M48
; DRILL file KiCad 10.0.6 date 2026-09-18T23:59:17
; FORMAT={-:-/ absolute / metric / decimal}
; #@! TF.CreationDate,2026-09-18T23:59:17+01:00
; #@! TF.GenerationSoftware,Kicad,Pcbnew,10.0.6
; #@! TF.FileFunction,Plated,1,2,PTH
FMAT,2
METRIC
; #@! TA.AperFunction,Plated,PTH,ViaDrill
T1C0.400
; #@! TA.AperFunction,Plated,PTH,ComponentDrill
T2C0.800
; #@! TA.AperFunction,Plated,PTH,ComponentDrill
T3C0.900
; #@! TA.AperFunction,Plated,PTH,ComponentDrill
T4C1.000
; #@! TA.AperFunction,Plated,PTH,ComponentDrill
T5C1.100
; #@! TA.AperFunction,Plated,PTH,ComponentDrill
T6C1.200
; #@! TA.AperFunction,Plated,PTH,ComponentDrill
T7C1.300
; #@! TA.AperFunction,Plated,PTH,ComponentDrill
T8C1.600
; #@! TA.AperFunction,Plated,PTH,ComponentDrill
T9C1.700
%
G90
G05
T1
X28.0Y-46.0
X32.25Y-66.85
X38.84Y-89.0
X38.85Y-86.9
X51.5Y-54.5
X51.65Y-59.25
X55.11Y-44.3
T2
X14.32Y-53.6
X16.335Y-72.0
X16.335Y-79.62
X16.67Y-67.5
X18.875Y-72.0
X18.875Y-79.62
X19.38Y-61.5
X20.5Y-46.0
X22.0Y-57.0
X24.48Y-53.6
X24.55Y-72.32
X24.55Y-82.48
X26.83Y-67.5
X27.0Y-57.0
X27.0Y-61.5
X28.92Y-49.25
X29.45Y-72.32
X29.45Y-82.48
X30.0Y-68.0
X30.38Y-55.38
X30.38Y-57.92
X30.38Y-60.46
X30.38Y-63.0
X30.66Y-46.0
X38.0Y-55.38
X38.0Y-57.92
X38.0Y-60.46
X38.0Y-63.0
X39.08Y-49.25
X40.16Y-68.0
X42.0Y-49.5
X42.0Y-54.5
X42.25Y-66.3
X43.0Y-71.5
X43.12Y-19.2
X43.12Y-25.8
X44.35Y-98.66
X44.41Y-93.88
X44.79Y-66.3
X45.0Y-71.5
X47.33Y-66.3
X48.0Y-58.0
X49.42Y-63.0
X50.1Y-66.025
X50.1Y-71.025
X53.28Y-19.2
X53.28Y-25.8
X54.0Y-54.0
X54.51Y-98.66
X54.57Y-93.88
X55.0Y-46.0
X58.16Y-58.0
X59.58Y-63.0
X64.16Y-54.0
X65.16Y-46.0
X65.21Y-98.2
X66.92Y-90.95
X67.14Y-58.7
X67.14Y-61.24
X67.14Y-63.78
X67.75Y-98.2
X70.29Y-98.2
X72.35Y-68.75
X77.08Y-90.95
X82.51Y-68.75
X84.0Y-47.04
X84.0Y-57.2
X89.32Y-67.0
X99.48Y-67.0
T3
X76.2Y-76.2
X78.74Y-76.2
X84.0Y-76.2
X86.54Y-76.2
X92.6Y-76.2
X95.14Y-76.2
T4
X24.99Y-91.21
X24.99Y-93.75
X27.53Y-91.21
X27.53Y-93.75
X30.07Y-91.21
X30.07Y-93.75
X32.61Y-91.21
X32.61Y-93.75
X35.15Y-91.21
X35.15Y-93.75
X48.0Y-47.0
X48.0Y-49.54
X48.0Y-52.08
X50.54Y-47.0
X50.54Y-49.54
X50.54Y-52.08
X80.94Y-90.8
X80.96Y-98.25
X80.98Y-83.6
X83.48Y-90.8
X83.5Y-98.25
X83.52Y-83.6
X86.02Y-90.8
X86.04Y-98.25
X86.06Y-83.6
X88.56Y-90.8
X88.58Y-98.25
X88.6Y-83.6
X91.25Y-53.75
X96.25Y-53.75
T5
X67.17Y-52.0
X67.85Y-72.25
X67.85Y-78.75
X72.35Y-72.25
X72.35Y-78.75
X77.33Y-52.0
X91.0Y-42.0
X94.5Y-42.0
T6
X16.8Y-27.2
X16.8Y-32.28
X16.8Y-37.36
X16.8Y-42.44
X97.267Y-28.21
X97.267Y-33.29
T7
X60.0Y-32.5
X60.0Y-40.0
X80.0Y-32.5
X83.5Y-40.0
T8
X62.0Y-20.5
X82.0Y-20.5
T9
X28.38Y-32.0
X28.38Y-40.0
X43.62Y-32.0
X43.62Y-40.0
M30
