%TF.GenerationSoftware,KiCad,Pcbnew,10.0.6*%
%TF.CreationDate,2026-09-18T23:12:30+01:00*%
%TF.ProjectId,S660-PDB,53363630-2d50-4444-922e-6b696361645f,rev?*%
%TF.SameCoordinates,Original*%
%TF.FileFunction,Copper,L2,Bot*%
%TF.FilePolarity,Positive*%
%FSLAX46Y46*%
G04 Gerber Fmt 4.6, Leading zero omitted, Abs format (unit mm)*
G04 Created by KiCad (PCBNEW 10.0.6) date 2026-09-18 23:12:30*
%MOMM*%
%LPD*%
G01*
G04 APERTURE LIST*
G04 Aperture macros list*
%AMRoundRect*
0 Rectangle with rounded corners*
0 $1 Rounding radius*
0 $2 $3 $4 $5 $6 $7 $8 $9 X,Y pos of 4 corners*
0 Add a 4 corners polygon primitive as box body*
4,1,4,$2,$3,$4,$5,$6,$7,$8,$9,$2,$3,0*
0 Add four circle primitives for the rounded corners*
1,1,$1+$1,$2,$3*
1,1,$1+$1,$4,$5*
1,1,$1+$1,$6,$7*
1,1,$1+$1,$8,$9*
0 Add four rect primitives between the rounded corners*
20,1,$1+$1,$2,$3,$4,$5,0*
20,1,$1+$1,$4,$5,$6,$7,0*
20,1,$1+$1,$6,$7,$8,$9,0*
20,1,$1+$1,$8,$9,$2,$3,0*%
G04 Aperture macros list end*
%TA.AperFunction,ComponentPad*%
%ADD10RoundRect,0.250000X-0.550000X-0.550000X0.550000X-0.550000X0.550000X0.550000X-0.550000X0.550000X0*%
%TD*%
%TA.AperFunction,ComponentPad*%
%ADD11C,1.600000*%
%TD*%
%TA.AperFunction,ComponentPad*%
%ADD12R,1.500000X1.500000*%
%TD*%
%TA.AperFunction,ComponentPad*%
%ADD13C,1.500000*%
%TD*%
%TA.AperFunction,ComponentPad*%
%ADD14R,1.700000X1.700000*%
%TD*%
%TA.AperFunction,ComponentPad*%
%ADD15C,1.700000*%
%TD*%
%TA.AperFunction,ComponentPad*%
%ADD16RoundRect,0.250000X-1.550000X0.650000X-1.550000X-0.650000X1.550000X-0.650000X1.550000X0.650000X0*%
%TD*%
%TA.AperFunction,ComponentPad*%
%ADD17O,3.600000X1.800000*%
%TD*%
%TA.AperFunction,ComponentPad*%
%ADD18C,2.000000*%
%TD*%
%TA.AperFunction,ComponentPad*%
%ADD19R,2.000000X2.000000*%
%TD*%
%TA.AperFunction,ComponentPad*%
%ADD20R,1.800000X1.800000*%
%TD*%
%TA.AperFunction,ComponentPad*%
%ADD21C,1.800000*%
%TD*%
%TA.AperFunction,ComponentPad*%
%ADD22RoundRect,0.249999X0.850001X0.850001X-0.850001X0.850001X-0.850001X-0.850001X0.850001X-0.850001X0*%
%TD*%
%TA.AperFunction,ComponentPad*%
%ADD23C,2.200000*%
%TD*%
%TA.AperFunction,ComponentPad*%
%ADD24RoundRect,0.250000X0.550000X0.550000X-0.550000X0.550000X-0.550000X-0.550000X0.550000X-0.550000X0*%
%TD*%
%TA.AperFunction,ComponentPad*%
%ADD25RoundRect,0.250000X-0.550000X0.550000X-0.550000X-0.550000X0.550000X-0.550000X0.550000X0.550000X0*%
%TD*%
%TA.AperFunction,ComponentPad*%
%ADD26RoundRect,0.250000X-0.750000X-0.750000X0.750000X-0.750000X0.750000X0.750000X-0.750000X0.750000X0*%
%TD*%
%TA.AperFunction,ComponentPad*%
%ADD27RoundRect,0.250000X1.550000X-0.650000X1.550000X0.650000X-1.550000X0.650000X-1.550000X-0.650000X0*%
%TD*%
%TA.AperFunction,ComponentPad*%
%ADD28RoundRect,0.250000X-1.350000X-1.350000X1.350000X-1.350000X1.350000X1.350000X-1.350000X1.350000X0*%
%TD*%
%TA.AperFunction,ComponentPad*%
%ADD29C,3.200000*%
%TD*%
%TA.AperFunction,ComponentPad*%
%ADD30R,2.400000X2.400000*%
%TD*%
%TA.AperFunction,ComponentPad*%
%ADD31C,2.400000*%
%TD*%
%TA.AperFunction,ComponentPad*%
%ADD32R,3.200000X3.200000*%
%TD*%
%TA.AperFunction,ViaPad*%
%ADD33C,0.800000*%
%TD*%
%TA.AperFunction,Conductor*%
%ADD34C,0.500000*%
%TD*%
%TA.AperFunction,Conductor*%
%ADD35C,2.000000*%
%TD*%
G04 APERTURE END LIST*
D10*
%TO.P,C7,1*%
%TO.N,Net-(C7-Pad1)*%
X43000000Y-71500000D03*
D11*
%TO.P,C7,2*%
%TO.N,GND*%
X45000000Y-71500000D03*
%TD*%
D12*
%TO.P,U2,1,VO_1*%
%TO.N,/3V3*%
X42250000Y-66300000D03*
D13*
%TO.P,U2,2,GND_2*%
%TO.N,GND*%
X44790000Y-66300000D03*
%TO.P,U2,3,VI_3*%
%TO.N,/12V_IN*%
X47330000Y-66300000D03*
%TD*%
D11*
%TO.P,C5,1*%
%TO.N,/12V_IN*%
X50100000Y-66025000D03*
%TO.P,C5,2*%
%TO.N,GND*%
X50100000Y-71025000D03*
%TD*%
%TO.P,R20,1*%
%TO.N,/3V3*%
X30000000Y-68000000D03*
%TO.P,R20,2*%
%TO.N,Net-(C7-Pad1)*%
X40160000Y-68000000D03*
%TD*%
D12*
%TO.P,Q2,1,C_1*%
%TO.N,/COIL_LOW*%
X67140000Y-58700000D03*
D13*
%TO.P,Q2,2,B_2*%
%TO.N,/Q2_BASE*%
X67140000Y-61240000D03*
%TO.P,Q2,3,E_3*%
%TO.N,GND*%
X67140000Y-63780000D03*
%TD*%
D12*
%TO.P,Q3,1,S_1*%
%TO.N,GND*%
X65209999Y-98200000D03*
D13*
%TO.P,Q3,2,G_2*%
%TO.N,/Q3_GATE*%
X67749999Y-98200000D03*
%TO.P,Q3,3,D_3*%
%TO.N,/FAN_PWM_BUS*%
X70289999Y-98200000D03*
%TD*%
D11*
%TO.P,R16,1*%
%TO.N,/LED3_DRV*%
X84000000Y-47040000D03*
%TO.P,R16,2*%
%TO.N,Net-(LED3-A)*%
X84000000Y-57200000D03*
%TD*%
D10*
%TO.P,U1,1,~{RESET}/PB5_1*%
%TO.N,/nRESET*%
X30380000Y-55380000D03*
D11*
%TO.P,U1,2,XTAL1/PB3_2*%
%TO.N,/BATT_SENSE*%
X30380000Y-57920000D03*
%TO.P,U1,3,XTAL2/PB4_3*%
%TO.N,/IGN_MCU*%
X30380000Y-60460000D03*
%TO.P,U1,4,GND_4*%
%TO.N,GND*%
X30380000Y-63000000D03*
%TO.P,U1,5,AREF/PB0_5*%
%TO.N,/COIL_DRV*%
X38000000Y-63000000D03*
%TO.P,U1,6,PB1_6*%
%TO.N,/LED3_DRV*%
X38000000Y-60460000D03*
%TO.P,U1,7,PB2_7*%
%TO.N,/HALT_IN*%
X38000000Y-57920000D03*
%TO.P,U1,8,VCC_8*%
%TO.N,/3V3*%
X38000000Y-55380000D03*
%TD*%
%TO.P,R4,1*%
%TO.N,/FAN_PWM_PI*%
X44350000Y-98660000D03*
%TO.P,R4,2*%
%TO.N,/Q3_GATE*%
X54510000Y-98660000D03*
%TD*%
D14*
%TO.P,FAN3,1,Pin_1_1*%
%TO.N,GND*%
X88580000Y-98250000D03*
D15*
%TO.P,FAN3,2,Pin_2_2*%
%TO.N,/12V_SW*%
X86040000Y-98250000D03*
%TO.P,FAN3,3,Pin_3_3*%
%TO.N,unconnected-(FAN3-Pin_3-Pad3)*%
X83500000Y-98250000D03*
%TO.P,FAN3,4,Pin_4_4*%
%TO.N,/FAN_PWM_BUS*%
X80960000Y-98250000D03*
%TD*%
D14*
%TO.P,J4,1,Pin_1_1*%
%TO.N,/LED3_DRV*%
X48000000Y-47000000D03*
D15*
%TO.P,J4,2,Pin_2_2*%
%TO.N,/3V3*%
X50540000Y-47000000D03*
%TO.P,J4,3,Pin_3_3*%
%TO.N,/HALT_IN*%
X48000000Y-49540000D03*
%TO.P,J4,4,Pin_4_4*%
%TO.N,/COIL_DRV*%
X50540000Y-49540000D03*
%TO.P,J4,5,Pin_5_5*%
%TO.N,/nRESET*%
X48000000Y-52080000D03*
%TO.P,J4,6,Pin_6_6*%
%TO.N,GND*%
X50540000Y-52080000D03*
%TD*%
D11*
%TO.P,R2,1*%
%TO.N,/BATT_SENSE*%
X43120000Y-25800000D03*
%TO.P,R2,2*%
%TO.N,GND*%
X53280000Y-25800000D03*
%TD*%
%TO.P,R1,1*%
%TO.N,/12V_IN*%
X53280000Y-19200000D03*
%TO.P,R1,2*%
%TO.N,/BATT_SENSE*%
X43120000Y-19200000D03*
%TD*%
%TO.P,C6,1*%
%TO.N,/BATT_SENSE*%
X27000000Y-57000000D03*
%TO.P,C6,2*%
%TO.N,GND*%
X22000000Y-57000000D03*
%TD*%
D14*
%TO.P,FAN1,1,Pin_1_1*%
%TO.N,GND*%
X88600000Y-83600000D03*
D15*
%TO.P,FAN1,2,Pin_2_2*%
%TO.N,/12V_SW*%
X86060000Y-83600000D03*
%TO.P,FAN1,3,Pin_3_3*%
%TO.N,/FAN1_TACH*%
X83520000Y-83600000D03*
%TO.P,FAN1,4,Pin_4_4*%
%TO.N,/FAN_PWM_BUS*%
X80980000Y-83600000D03*
%TD*%
D11*
%TO.P,R9,1*%
%TO.N,/FAN1_TACH*%
X77080000Y-90950000D03*
%TO.P,R9,2*%
%TO.N,/TACH*%
X66920000Y-90950000D03*
%TD*%
D16*
%TO.P,J1,1,Pin_1_1*%
%TO.N,/12V_IN*%
X16800000Y-27200000D03*
D17*
%TO.P,J1,2,Pin_2_2*%
%TO.N,/ACC_IN*%
X16800000Y-32280000D03*
%TO.P,J1,3,Pin_3_3*%
%TO.N,/ON_IN*%
X16800000Y-37360000D03*
%TO.P,J1,4,Pin_4_4*%
%TO.N,GND*%
X16800000Y-42440000D03*
%TD*%
D18*
%TO.P,K1,13*%
%TO.N,/12V_IN*%
X80000000Y-32500000D03*
%TO.P,K1,14*%
%TO.N,/12V_SW*%
X83500000Y-40000000D03*
D19*
%TO.P,K1,A1*%
%TO.N,/12V_IN*%
X60000000Y-40000000D03*
D18*
%TO.P,K1,A2*%
%TO.N,/COIL_LOW*%
X60000000Y-32500000D03*
%TD*%
D11*
%TO.P,R12,1*%
%TO.N,/3V3*%
X20500000Y-46000000D03*
%TO.P,R12,2*%
%TO.N,/IGN_STATE*%
X30660000Y-46000000D03*
%TD*%
%TO.P,R15,1*%
%TO.N,/12V_SW*%
X89320000Y-67000000D03*
%TO.P,R15,2*%
%TO.N,Net-(LED2-A)*%
X99480000Y-67000000D03*
%TD*%
D18*
%TO.P,SW1,1,1_1*%
%TO.N,/LED_TEST*%
X72350000Y-72250000D03*
X72350000Y-78750000D03*
%TO.P,SW1,2,2_2*%
%TO.N,/12V_IN*%
X67850000Y-72250000D03*
X67850000Y-78750000D03*
%TD*%
D20*
%TO.P,LED3,1,K_1*%
%TO.N,GND*%
X86540000Y-76200000D03*
D21*
%TO.P,LED3,2,A_2*%
%TO.N,Net-(LED3-A)*%
X84000000Y-76200000D03*
%TD*%
D22*
%TO.P,D4,1,K_1*%
%TO.N,/12V_IN*%
X77330000Y-52000000D03*
D23*
%TO.P,D4,2,A_2*%
%TO.N,/COIL_LOW*%
X67170000Y-52000000D03*
%TD*%
D14*
%TO.P,FAN2,1,Pin_1_1*%
%TO.N,GND*%
X88560000Y-90800000D03*
D15*
%TO.P,FAN2,2,Pin_2_2*%
%TO.N,/12V_SW*%
X86020000Y-90800000D03*
%TO.P,FAN2,3,Pin_3_3*%
%TO.N,unconnected-(FAN2-Pin_3-Pad3)*%
X83480000Y-90800000D03*
%TO.P,FAN2,4,Pin_4_4*%
%TO.N,/FAN_PWM_BUS*%
X80940000Y-90800000D03*
%TD*%
D24*
%TO.P,Z2,1,K_1*%
%TO.N,/BATT_SENSE*%
X27000000Y-61500000D03*
D11*
%TO.P,Z2,2,A_2*%
%TO.N,GND*%
X19380000Y-61500000D03*
%TD*%
D20*
%TO.P,LED1,1,K_1*%
%TO.N,GND*%
X78740000Y-76200000D03*
D21*
%TO.P,LED1,2,A_2*%
%TO.N,Net-(LED1-A)*%
X76200000Y-76200000D03*
%TD*%
D25*
%TO.P,U3,1*%
%TO.N,/U3_ANODE*%
X18875000Y-72000000D03*
D11*
%TO.P,U3,2*%
%TO.N,GND*%
X16335000Y-72000000D03*
%TO.P,U3,3*%
X16335000Y-79620000D03*
%TO.P,U3,4*%
%TO.N,/IGN_STATE*%
X18875000Y-79620000D03*
%TD*%
%TO.P,R6,1*%
%TO.N,/IGN_12V*%
X24480000Y-53600000D03*
%TO.P,R6,2*%
%TO.N,/U3_ANODE*%
X14320000Y-53600000D03*
%TD*%
%TO.P,R11,1*%
%TO.N,/3V3*%
X39080000Y-49250000D03*
%TO.P,R11,2*%
%TO.N,/nRESET*%
X28920000Y-49250000D03*
%TD*%
%TO.P,R17,1*%
%TO.N,/J3_MOSI*%
X55000000Y-46000000D03*
%TO.P,R17,2*%
%TO.N,/COIL_DRV*%
X65160000Y-46000000D03*
%TD*%
D20*
%TO.P,LED2,1,K_1*%
%TO.N,GND*%
X92600000Y-76200000D03*
D21*
%TO.P,LED2,2,A_2*%
%TO.N,Net-(LED2-A)*%
X95140000Y-76200000D03*
%TD*%
D11*
%TO.P,R5,1*%
%TO.N,/Q3_GATE*%
X54570000Y-93880000D03*
%TO.P,R5,2*%
%TO.N,GND*%
X44410000Y-93880000D03*
%TD*%
%TO.P,R7,1*%
%TO.N,/J3_HALT*%
X24550000Y-82480000D03*
%TO.P,R7,2*%
%TO.N,/HALT_IN*%
X24550000Y-72320000D03*
%TD*%
%TO.P,R19,1*%
%TO.N,/J3_RESET*%
X48000000Y-58000000D03*
%TO.P,R19,2*%
%TO.N,/nRESET*%
X58160000Y-58000000D03*
%TD*%
D26*
%TO.P,C3,1*%
%TO.N,/12V_SW*%
X91250000Y-53750000D03*
D18*
%TO.P,C3,2*%
%TO.N,GND*%
X96250000Y-53750000D03*
%TD*%
D11*
%TO.P,R18,1*%
%TO.N,/J3_MISO*%
X54000000Y-54000000D03*
%TO.P,R18,2*%
%TO.N,/LED3_DRV*%
X64160000Y-54000000D03*
%TD*%
D27*
%TO.P,J2,1,Pin_1_1*%
%TO.N,/12V_SW*%
X97267500Y-33290000D03*
D17*
%TO.P,J2,2,Pin_2_2*%
%TO.N,GND*%
X97267500Y-28210000D03*
%TD*%
D11*
%TO.P,R8,1*%
%TO.N,/J3_SHDN*%
X29450000Y-82480000D03*
%TO.P,R8,2*%
%TO.N,/SHDN_TP*%
X29450000Y-72320000D03*
%TD*%
%TO.P,R14,1*%
%TO.N,/LED_TEST*%
X72350000Y-68750000D03*
%TO.P,R14,2*%
%TO.N,Net-(LED1-A)*%
X82510000Y-68750000D03*
%TD*%
%TO.P,C4,1*%
%TO.N,/3V3*%
X42000000Y-54500000D03*
%TO.P,C4,2*%
%TO.N,GND*%
X42000000Y-49500000D03*
%TD*%
%TO.P,R3,1*%
%TO.N,/COIL_DRV*%
X49420000Y-63000000D03*
%TO.P,R3,2*%
%TO.N,/Q2_BASE*%
X59580000Y-63000000D03*
%TD*%
D14*
%TO.P,J3,1,Pin_1_1*%
%TO.N,GND*%
X24990000Y-93750000D03*
D15*
%TO.P,J3,2,Pin_2_2*%
%TO.N,/IGN_STATE*%
X24990000Y-91210000D03*
%TO.P,J3,3,Pin_3_3*%
%TO.N,/J3_HALT*%
X27530000Y-93750000D03*
%TO.P,J3,4,Pin_4_4*%
%TO.N,/J3_SHDN*%
X27530000Y-91210000D03*
%TO.P,J3,5,Pin_5_5*%
%TO.N,/FAN_PWM_PI*%
X30070000Y-93750000D03*
%TO.P,J3,6,Pin_6_6*%
%TO.N,/TACH*%
X30070000Y-91210000D03*
%TO.P,J3,7,Pin_7_7*%
%TO.N,/J3_MOSI*%
X32610000Y-93750000D03*
%TO.P,J3,8,Pin_8_8*%
%TO.N,/J3_MISO*%
X32610000Y-91210000D03*
%TO.P,J3,9,Pin_9_9*%
%TO.N,/J3_RESET*%
X35150000Y-93750000D03*
%TO.P,J3,10,Pin_10_10*%
%TO.N,GND*%
X35150000Y-91210000D03*
%TD*%
D28*
%TO.P,D1,1,A1_1*%
%TO.N,GND*%
X62000000Y-20500000D03*
D29*
%TO.P,D1,2,A2_2*%
%TO.N,/12V_IN*%
X82000000Y-20500000D03*
%TD*%
D11*
%TO.P,R13,1*%
%TO.N,/IGN_STATE*%
X16670000Y-67500000D03*
%TO.P,R13,2*%
%TO.N,/IGN_MCU*%
X26830000Y-67500000D03*
%TD*%
D30*
%TO.P,JP1,1,Pin_1_1*%
%TO.N,/12V_IN*%
X94500000Y-42000000D03*
D31*
%TO.P,JP1,2,Pin_2_2*%
%TO.N,/12V_SW*%
X91000000Y-42000000D03*
%TD*%
D32*
%TO.P,D2,1,K_1*%
%TO.N,/IGN_12V*%
X43620000Y-32000000D03*
D29*
%TO.P,D2,2,A_2*%
%TO.N,/ACC_IN*%
X28380000Y-32000000D03*
%TD*%
D32*
%TO.P,D3,1,K_1*%
%TO.N,/IGN_12V*%
X43620000Y-40000000D03*
D29*
%TO.P,D3,2,A_2*%
%TO.N,/ON_IN*%
X28380000Y-40000000D03*
%TD*%
D33*
%TO.N,/LED3_DRV*%
X55110000Y-44300000D03*
%TO.N,/nRESET*%
X32250000Y-66850000D03*
X51500000Y-54500000D03*
%TO.N,/3V3*%
X28000000Y-46000000D03*
%TO.N,/J3_RESET*%
X38850000Y-86900000D03*
X38840000Y-89000000D03*
%TO.N,/J3_MISO*%
X51650000Y-59250000D03*
%TD*%
%TO.N,GND*%
D34*
X45000000Y-71500000D02*
X44640000Y-66300000D01*
%TO.N,Net-(C7-Pad1)*%
X40160000Y-68660000D02*
X43000000Y-71500000D01*
X40160000Y-68000000D02*
X40160000Y-68660000D01*
%TO.N,/LED3_DRV*%
X55110000Y-44300000D02*
X58800000Y-44300000D01*
X77635000Y-47040000D02*
X84000000Y-47040000D01*
X58800000Y-44300000D02*
X60950000Y-46450000D01*
X70675000Y-54000000D02*
X77635000Y-47040000D01*
X60950000Y-50790000D02*
X64160000Y-54000000D01*
X64160000Y-54000000D02*
X70675000Y-54000000D01*
X60950000Y-46450000D02*
X60950000Y-50790000D01*
%TO.N,/nRESET*%
X45350000Y-59775000D02*
X45350000Y-58130000D01*
X50375000Y-54500000D02*
X48000000Y-52125000D01*
X38275000Y-66850000D02*
X45350000Y-59775000D01*
X32250000Y-66850000D02*
X38275000Y-66850000D01*
X45350000Y-58130000D02*
X48000000Y-55480000D01*
X48000000Y-55480000D02*
X48000000Y-52080000D01*
X51500000Y-54500000D02*
X50375000Y-54500000D01*
%TO.N,/BATT_SENSE*%
X43120000Y-25800000D02*
X39450000Y-25800000D01*
X36275000Y-37875000D02*
X29250000Y-44900000D01*
X27000000Y-61500000D02*
X27000000Y-59800000D01*
X36275000Y-28975000D02*
X36275000Y-37875000D01*
X27000000Y-49100000D02*
X27000000Y-57000000D01*
X29250000Y-44900000D02*
X29250000Y-46850000D01*
X27000000Y-57000000D02*
X29460000Y-57000000D01*
X29460000Y-57000000D02*
X30380000Y-57920000D01*
X29250000Y-46850000D02*
X27000000Y-49100000D01*
X28880000Y-57920000D02*
X30380000Y-57920000D01*
X39450000Y-25800000D02*
X36275000Y-28975000D01*
X27000000Y-59800000D02*
X28880000Y-57920000D01*
%TO.N,/IGN_MCU*%
X28575000Y-62265000D02*
X30380000Y-60460000D01*
X28575000Y-65755000D02*
X28575000Y-62265000D01*
X26830000Y-67500000D02*
X28575000Y-65755000D01*
%TO.N,/HALT_IN*%
X28080000Y-68790000D02*
X24550000Y-72320000D01*
X45925000Y-51615000D02*
X45925000Y-55925000D01*
X45925000Y-55925000D02*
X43930000Y-57920000D01*
X28080000Y-67840000D02*
X28080000Y-68790000D01*
X38000000Y-57920000D02*
X28080000Y-67840000D01*
X48000000Y-49540000D02*
X45925000Y-51615000D01*
X43930000Y-57920000D02*
X38000000Y-57920000D01*
%TO.N,/3V3*%
X45225000Y-47275000D02*
X45225000Y-53100000D01*
X20500000Y-46000000D02*
X28000000Y-46000000D01*
X49000000Y-45500000D02*
X47000000Y-45500000D01*
X47000000Y-45500000D02*
X45225000Y-47275000D01*
X43825000Y-54500000D02*
X42000000Y-54500000D01*
X45225000Y-53100000D02*
X43825000Y-54500000D01*
X50540000Y-47000000D02*
X49000000Y-45500000D01*
%TO.N,/12V_IN*%
D35*
X80000000Y-32500000D02*
X85000000Y-32500000D01*
X85000000Y-32500000D02*
X94500000Y-42000000D01*
X67850000Y-78750000D02*
X67850000Y-72250000D01*
%TO.N,/IGN_STATE*%
D34*
X18875000Y-90000000D02*
X18875000Y-79620000D01*
X24990000Y-91210000D02*
X20085000Y-91210000D01*
X20085000Y-91210000D02*
X18875000Y-90000000D01*
%TO.N,/LED_TEST*%
X72350000Y-72250000D02*
X72350000Y-68750000D01*
X72350000Y-78750000D02*
X72350000Y-72250000D01*
%TO.N,Net-(LED1-A)*%
X82510000Y-69890000D02*
X76200000Y-76200000D01*
X82510000Y-68750000D02*
X82510000Y-69890000D01*
%TO.N,/J3_RESET*%
X38850000Y-86900000D02*
X38850000Y-67264949D01*
X38840000Y-91900000D02*
X36990000Y-93750000D01*
X38840000Y-89000000D02*
X38840000Y-91900000D01*
X36990000Y-93750000D02*
X35150000Y-93750000D01*
X38850000Y-67264949D02*
X48000000Y-58114949D01*
%TO.N,/J3_MISO*%
X51650000Y-59250000D02*
X51650000Y-59400000D01*
X47850000Y-76660050D02*
X47850000Y-84912283D01*
X51800000Y-59550000D02*
X51800000Y-72710050D01*
X44792283Y-87970000D02*
X33920000Y-87970000D01*
X51800000Y-72710050D02*
X47850000Y-76660050D01*
X32619999Y-89270001D02*
X32619999Y-91200000D01*
X33920000Y-87970000D02*
X32619999Y-89270001D01*
X51650000Y-59400000D02*
X51800000Y-59550000D01*
X47850000Y-84912283D02*
X44792283Y-87970000D01*
%TO.N,/J3_SHDN*%
X27540000Y-91200000D02*
X27540000Y-84390000D01*
X27540000Y-84390000D02*
X29370000Y-82560000D01*
%TO.N,/J3_MOSI*%
X32619999Y-93760000D02*
X32619999Y-95339999D01*
X33470000Y-96190000D02*
X37562233Y-96190000D01*
X48550000Y-85202233D02*
X48550000Y-76950000D01*
X32619999Y-95339999D02*
X33470000Y-96190000D01*
X37562233Y-96190000D02*
X48550000Y-85202233D01*
X48550000Y-76950000D02*
X55250000Y-70250000D01*
X55250000Y-70250000D02*
X55250000Y-53482233D01*
X55250000Y-53482233D02*
X55240000Y-53472233D01*
X55240000Y-53472233D02*
X55240000Y-46240000D01*
%TD*%
%TA.AperFunction,Conductor*%
%TO.N,GND*%
G36*
X37893399Y-88740185D02*
G01*
X37939154Y-88792989D01*
X37949098Y-88862147D01*
X37947977Y-88868692D01*
X37939500Y-88911306D01*
X37939500Y-89088695D01*
X37974103Y-89262658D01*
X37974106Y-89262667D01*
X38041984Y-89426542D01*
X38041985Y-89426543D01*
X38041987Y-89426547D01*
X38057324Y-89449500D01*
X38068602Y-89466378D01*
X38089480Y-89533055D01*
X38089500Y-89535269D01*
X38089500Y-91537770D01*
X38069815Y-91604809D01*
X38053181Y-91625451D01*
X36715451Y-92963181D01*
X36654128Y-92996666D01*
X36627770Y-92999500D01*
X36337221Y-92999500D01*
X36270182Y-92979815D01*
X36236903Y-92948385D01*
X36180107Y-92870211D01*
X36029786Y-92719890D01*
X35857820Y-92594951D01*
X35668414Y-92498444D01*
X35668413Y-92498443D01*
X35668412Y-92498443D01*
X35466243Y-92432754D01*
X35466241Y-92432753D01*
X35466240Y-92432753D01*
X35304957Y-92407208D01*
X35256287Y-92399500D01*
X35043713Y-92399500D01*
X34995042Y-92407208D01*
X34833760Y-92432753D01*
X34631585Y-92498444D01*
X34442179Y-92594951D01*
X34270213Y-92719890D01*
X34119890Y-92870213D01*
X33994949Y-93042182D01*
X33990484Y-93050946D01*
X33942509Y-93101742D01*
X33874688Y-93118536D01*
X33808553Y-93095998D01*
X33769516Y-93050946D01*
X33765050Y-93042182D01*
X33640109Y-92870213D01*
X33489786Y-92719890D01*
X33317820Y-92594951D01*
X33317115Y-92594591D01*
X33309054Y-92590485D01*
X33258259Y-92542512D01*
X33241463Y-92474692D01*
X33263999Y-92408556D01*
X33309054Y-92369515D01*
X33317816Y-92365051D01*
X33339789Y-92349086D01*
X33489786Y-92240109D01*
X33489788Y-92240106D01*
X33489792Y-92240104D01*
X33640104Y-92089792D01*
X33640106Y-92089788D01*
X33640109Y-92089786D01*
X33765048Y-91917820D01*
X33765047Y-91917820D01*
X33765051Y-91917816D01*
X33861557Y-91728412D01*
X33927246Y-91526243D01*
X33960500Y-91316287D01*
X33960500Y-91103713D01*
X33927246Y-90893757D01*
X33861557Y-90691588D01*
X33765051Y-90502184D01*
X33765049Y-90502181D01*
X33765048Y-90502179D01*
X33640109Y-90330213D01*
X33489790Y-90179894D01*
X33489785Y-90179890D01*
X33421614Y-90130361D01*
X33378948Y-90075031D01*
X33370499Y-90030043D01*
X33370499Y-89632231D01*
X33390184Y-89565192D01*
X33406818Y-89544550D01*
X34194549Y-88756819D01*
X34255872Y-88723334D01*
X34282230Y-88720500D01*
X37826360Y-88720500D01*
X37893399Y-88740185D01*
G37*
%TD.AperFunction*%
%TA.AperFunction,Conductor*%
G36*
X97002702Y-12500617D02*
G01*
X97386773Y-12517386D01*
X97397505Y-12518326D01*
X97775963Y-12568150D01*
X97786601Y-12570025D01*
X98159279Y-12652647D01*
X98169720Y-12655445D01*
X98533765Y-12770227D01*
X98543911Y-12773920D01*
X98896578Y-12920000D01*
X98906369Y-12924566D01*
X99244942Y-13100816D01*
X99254310Y-13106224D01*
X99576244Y-13311318D01*
X99585105Y-13317523D01*
X99887930Y-13549889D01*
X99896217Y-13556843D01*
X100177635Y-13814715D01*
X100185284Y-13822364D01*
X100443156Y-14103782D01*
X100450110Y-14112069D01*
X100682476Y-14414894D01*
X100688681Y-14423755D01*
X100893775Y-14745689D01*
X100899183Y-14755057D01*
X101075430Y-15093623D01*
X101080002Y-15103427D01*
X101226075Y-15456078D01*
X101229775Y-15466244D01*
X101344553Y-15830276D01*
X101347353Y-15840724D01*
X101429972Y-16213390D01*
X101431850Y-16224044D01*
X101481671Y-16602472D01*
X101482614Y-16613248D01*
X101499382Y-16997297D01*
X101499500Y-17002706D01*
X101499500Y-96997293D01*
X101499382Y-97002702D01*
X101482614Y-97386751D01*
X101481671Y-97397527D01*
X101431850Y-97775955D01*
X101429972Y-97786609D01*
X101347353Y-98159275D01*
X101344553Y-98169723D01*
X101229775Y-98533755D01*
X101226075Y-98543921D01*
X101080002Y-98896572D01*
X101075430Y-98906376D01*
X100899183Y-99244942D01*
X100893775Y-99254310D01*
X100688681Y-99576244D01*
X100682476Y-99585105D01*
X100450110Y-99887930D01*
X100443156Y-99896217D01*
X100185284Y-100177635D01*
X100177635Y-100185284D01*
X99896217Y-100443156D01*
X99887930Y-100450110D01*
X99585105Y-100682476D01*
X99576244Y-100688681D01*
X99254310Y-100893775D01*
X99244942Y-100899183D01*
X98906376Y-101075430D01*
X98896572Y-101080002D01*
X98543921Y-101226075D01*
X98533755Y-101229775D01*
X98169723Y-101344553D01*
X98159275Y-101347353D01*
X97786609Y-101429972D01*
X97775955Y-101431850D01*
X97397527Y-101481671D01*
X97386751Y-101482614D01*
X97002703Y-101499382D01*
X96997294Y-101499500D01*
X17002706Y-101499500D01*
X16997297Y-101499382D01*
X16613248Y-101482614D01*
X16602474Y-101481671D01*
X16540007Y-101473447D01*
X16224044Y-101431850D01*
X16213390Y-101429972D01*
X15840724Y-101347353D01*
X15830276Y-101344553D01*
X15466244Y-101229775D01*
X15456078Y-101226075D01*
X15103427Y-101080002D01*
X15093623Y-101075430D01*
X14755057Y-100899183D01*
X14745689Y-100893775D01*
X14423755Y-100688681D01*
X14414894Y-100682476D01*
X14112069Y-100450110D01*
X14103782Y-100443156D01*
X13822364Y-100185284D01*
X13814715Y-100177635D01*
X13556843Y-99896217D01*
X13549889Y-99887930D01*
X13317523Y-99585105D01*
X13311318Y-99576244D01*
X13231210Y-99450500D01*
X13106223Y-99254309D01*
X13100816Y-99244942D01*
X13058275Y-99163222D01*
X12924566Y-98906369D01*
X12919997Y-98896572D01*
X12919042Y-98894266D01*
X12773920Y-98543911D01*
X12770224Y-98533755D01*
X12769132Y-98530293D01*
X12655445Y-98169720D01*
X12652646Y-98159275D01*
X12570025Y-97786601D01*
X12568149Y-97775955D01*
X12518326Y-97397505D01*
X12517386Y-97386771D01*
X12517034Y-97378711D01*
X14649500Y-97378711D01*
X14649500Y-97621288D01*
X14681161Y-97861785D01*
X14743947Y-98096104D01*
X14827748Y-98298417D01*
X14836776Y-98320212D01*
X14958064Y-98530289D01*
X14958066Y-98530292D01*
X14958067Y-98530293D01*
X15105733Y-98722736D01*
X15105739Y-98722743D01*
X15277256Y-98894260D01*
X15277263Y-98894266D01*
X15390321Y-98981018D01*
X15469711Y-99041936D01*
X15679788Y-99163224D01*
X15875269Y-99244195D01*
X15899689Y-99254310D01*
X15903900Y-99256054D01*
X16138211Y-99318838D01*
X16311185Y-99341610D01*
X16378711Y-99350500D01*
X16378712Y-99350500D01*
X16621289Y-99350500D01*
X16669388Y-99344167D01*
X16861789Y-99318838D01*
X17096100Y-99256054D01*
X17320212Y-99163224D01*
X17530289Y-99041936D01*
X17722738Y-98894265D01*
X17894265Y-98722738D01*
X18020943Y-98557648D01*
X43049500Y-98557648D01*
X43049500Y-98762351D01*
X43081522Y-98964534D01*
X43144781Y-99159223D01*
X43237715Y-99341613D01*
X43358028Y-99507213D01*
X43502786Y-99651971D01*
X43657749Y-99764556D01*
X43668390Y-99772287D01*
X43758168Y-99818031D01*
X43850776Y-99865218D01*
X43850778Y-99865218D01*
X43850781Y-99865220D01*
X43933888Y-99892223D01*
X44045465Y-99928477D01*
X44146557Y-99944488D01*
X44247648Y-99960500D01*
X44247649Y-99960500D01*
X44452351Y-99960500D01*
X44452352Y-99960500D01*
X44654534Y-99928477D01*
X44849219Y-99865220D01*
X45031610Y-99772287D01*
X45124590Y-99704732D01*
X45197213Y-99651971D01*
X45197215Y-99651968D01*
X45197219Y-99651966D01*
X45341966Y-99507219D01*
X45341968Y-99507215D01*
X45341971Y-99507213D01*
X45416197Y-99405048D01*
X45462287Y-99341610D01*
X45555220Y-99159219D01*
X45618477Y-98964534D01*
X45650500Y-98762352D01*
X45650500Y-98557648D01*
X53209500Y-98557648D01*
X53209500Y-98762351D01*
X53241522Y-98964534D01*
X53304781Y-99159223D01*
X53397715Y-99341613D01*
X53518028Y-99507213D01*
X53662786Y-99651971D01*
X53817749Y-99764556D01*
X53828390Y-99772287D01*
X53918168Y-99818031D01*
X54010776Y-99865218D01*
X54010778Y-99865218D01*
X54010781Y-99865220D01*
X54093888Y-99892223D01*
X54205465Y-99928477D01*
X54306557Y-99944488D01*
X54407648Y-99960500D01*
X54407649Y-99960500D01*
X54612351Y-99960500D01*
X54612352Y-99960500D01*
X54814534Y-99928477D01*
X55009219Y-99865220D01*
X55191610Y-99772287D01*
X55284590Y-99704732D01*
X55357213Y-99651971D01*
X55357215Y-99651968D01*
X55357219Y-99651966D01*
X55501966Y-99507219D01*
X55501968Y-99507215D01*
X55501971Y-99507213D01*
X55576197Y-99405048D01*
X55622287Y-99341610D01*
X55715220Y-99159219D01*
X55778477Y-98964534D01*
X55810500Y-98762352D01*
X55810500Y-98557648D01*
X55778477Y-98355466D01*
X55715220Y-98160781D01*
X55714453Y-98159275D01*
X55711260Y-98153007D01*
X55711259Y-98153006D01*
X55685054Y-98101577D01*
X66499499Y-98101577D01*
X66499499Y-98298422D01*
X66530289Y-98492826D01*
X66591116Y-98680029D01*
X66633062Y-98762352D01*
X66680475Y-98855405D01*
X66796171Y-99014646D01*
X66935353Y-99153828D01*
X67094594Y-99269524D01*
X67177454Y-99311743D01*
X67269969Y-99358882D01*
X67269971Y-99358882D01*
X67269974Y-99358884D01*
X67370316Y-99391487D01*
X67457172Y-99419709D01*
X67651577Y-99450500D01*
X67651582Y-99450500D01*
X67848421Y-99450500D01*
X68042825Y-99419709D01*
X68087937Y-99405051D01*
X68230024Y-99358884D01*
X68405404Y-99269524D01*
X68564645Y-99153828D01*
X68703827Y-99014646D01*
X68819523Y-98855405D01*
X68887121Y-98722736D01*
X68909514Y-98678787D01*
X68957488Y-98627990D01*
X69025309Y-98611195D01*
X69091444Y-98633732D01*
X69130484Y-98678787D01*
X69220473Y-98855403D01*
X69248709Y-98894266D01*
X69336171Y-99014646D01*
X69475353Y-99153828D01*
X69634594Y-99269524D01*
X69717454Y-99311743D01*
X69809969Y-99358882D01*
X69809971Y-99358882D01*
X69809974Y-99358884D01*
X69910316Y-99391487D01*
X69997172Y-99419709D01*
X70191577Y-99450500D01*
X70191582Y-99450500D01*
X70388421Y-99450500D01*
X70582825Y-99419709D01*
X70627937Y-99405051D01*
X70770024Y-99358884D01*
X70945404Y-99269524D01*
X71104645Y-99153828D01*
X71243827Y-99014646D01*
X71359523Y-98855405D01*
X71448883Y-98680025D01*
X71509708Y-98492826D01*
X71510033Y-98490776D01*
X71540499Y-98298422D01*
X71540499Y-98143713D01*
X79609500Y-98143713D01*
X79609500Y-98356286D01*
X79641392Y-98557648D01*
X79642754Y-98566243D01*
X79693604Y-98722743D01*
X79708444Y-98768414D01*
X79804951Y-98957820D01*
X79929890Y-99129786D01*
X80080213Y-99280109D01*
X80252179Y-99405048D01*
X80252181Y-99405049D01*
X80252184Y-99405051D01*
X80441588Y-99501557D01*
X80643757Y-99567246D01*
X80853713Y-99600500D01*
X80853714Y-99600500D01*
X81066286Y-99600500D01*
X81066287Y-99600500D01*
X81276243Y-99567246D01*
X81478412Y-99501557D01*
X81667816Y-99405051D01*
X81786479Y-99318838D01*
X81839786Y-99280109D01*
X81839788Y-99280106D01*
X81839792Y-99280104D01*
X81990104Y-99129792D01*
X81990106Y-99129788D01*
X81990109Y-99129786D01*
X82115048Y-98957820D01*
X82115047Y-98957820D01*
X82115051Y-98957816D01*
X82119514Y-98949054D01*
X82167488Y-98898259D01*
X82235308Y-98881463D01*
X82301444Y-98903999D01*
X82340486Y-98949056D01*
X82344951Y-98957820D01*
X82469890Y-99129786D01*
X82620213Y-99280109D01*
X82792179Y-99405048D01*
X82792181Y-99405049D01*
X82792184Y-99405051D01*
X82981588Y-99501557D01*
X83183757Y-99567246D01*
X83393713Y-99600500D01*
X83393714Y-99600500D01*
X83606286Y-99600500D01*
X83606287Y-99600500D01*
X83816243Y-99567246D01*
X84018412Y-99501557D01*
X84207816Y-99405051D01*
X84326479Y-99318838D01*
X84379786Y-99280109D01*
X84379788Y-99280106D01*
X84379792Y-99280104D01*
X84530104Y-99129792D01*
X84530106Y-99129788D01*
X84530109Y-99129786D01*
X84655048Y-98957820D01*
X84655047Y-98957820D01*
X84655051Y-98957816D01*
X84659514Y-98949054D01*
X84707488Y-98898259D01*
X84775308Y-98881463D01*
X84841444Y-98903999D01*
X84880486Y-98949056D01*
X84884951Y-98957820D01*
X85009890Y-99129786D01*
X85160213Y-99280109D01*
X85332179Y-99405048D01*
X85332181Y-99405049D01*
X85332184Y-99405051D01*
X85521588Y-99501557D01*
X85723757Y-99567246D01*
X85933713Y-99600500D01*
X85933714Y-99600500D01*
X86146286Y-99600500D01*
X86146287Y-99600500D01*
X86356243Y-99567246D01*
X86558412Y-99501557D01*
X86747816Y-99405051D01*
X86866479Y-99318838D01*
X86919786Y-99280109D01*
X86919788Y-99280106D01*
X86919792Y-99280104D01*
X87070104Y-99129792D01*
X87070106Y-99129788D01*
X87070109Y-99129786D01*
X87195048Y-98957820D01*
X87195047Y-98957820D01*
X87195051Y-98957816D01*
X87291557Y-98768412D01*
X87357246Y-98566243D01*
X87390500Y-98356287D01*
X87390500Y-98143713D01*
X87357246Y-97933757D01*
X87291557Y-97731588D01*
X87195051Y-97542184D01*
X87195049Y-97542181D01*
X87195048Y-97542179D01*
X87126288Y-97447538D01*
X87076283Y-97378711D01*
X95649500Y-97378711D01*
X95649500Y-97621288D01*
X95681161Y-97861785D01*
X95743947Y-98096104D01*
X95827748Y-98298417D01*
X95836776Y-98320212D01*
X95958064Y-98530289D01*
X95958066Y-98530292D01*
X95958067Y-98530293D01*
X96105733Y-98722736D01*
X96105739Y-98722743D01*
X96277256Y-98894260D01*
X96277263Y-98894266D01*
X96390321Y-98981018D01*
X96469711Y-99041936D01*
X96679788Y-99163224D01*
X96875269Y-99244195D01*
X96899689Y-99254310D01*
X96903900Y-99256054D01*
X97138211Y-99318838D01*
X97311185Y-99341610D01*
X97378711Y-99350500D01*
X97378712Y-99350500D01*
X97621289Y-99350500D01*
X97669388Y-99344167D01*
X97861789Y-99318838D01*
X98096100Y-99256054D01*
X98320212Y-99163224D01*
X98530289Y-99041936D01*
X98722738Y-98894265D01*
X98894265Y-98722738D01*
X99041936Y-98530289D01*
X99163224Y-98320212D01*
X99256054Y-98096100D01*
X99318838Y-97861789D01*
X99350500Y-97621288D01*
X99350500Y-97378712D01*
X99349380Y-97370208D01*
X99318838Y-97138214D01*
X99318838Y-97138211D01*
X99256054Y-96903900D01*
X99254231Y-96899500D01*
X99222206Y-96822183D01*
X99163224Y-96679788D01*
X99041936Y-96469711D01*
X98894265Y-96277262D01*
X98894260Y-96277256D01*
X98722743Y-96105739D01*
X98722736Y-96105733D01*
X98530293Y-95958067D01*
X98530292Y-95958066D01*
X98530289Y-95958064D01*
X98320212Y-95836776D01*
X98275880Y-95818413D01*
X98096104Y-95743947D01*
X97861785Y-95681161D01*
X97621289Y-95649500D01*
X97621288Y-95649500D01*
X97378712Y-95649500D01*
X97378711Y-95649500D01*
X97138214Y-95681161D01*
X96903895Y-95743947D01*
X96679794Y-95836773D01*
X96679785Y-95836777D01*
X96469706Y-95958067D01*
X96277263Y-96105733D01*
X96277256Y-96105739D01*
X96105739Y-96277256D01*
X96105733Y-96277263D01*
X95958067Y-96469706D01*
X95836777Y-96679785D01*
X95836773Y-96679794D01*
X95743947Y-96903895D01*
X95681161Y-97138214D01*
X95649500Y-97378711D01*
X87076283Y-97378711D01*
X87070109Y-97370213D01*
X86919786Y-97219890D01*
X86747820Y-97094951D01*
X86558414Y-96998444D01*
X86558413Y-96998443D01*
X86558412Y-96998443D01*
X86356243Y-96932754D01*
X86356241Y-96932753D01*
X86356240Y-96932753D01*
X86174067Y-96903900D01*
X86146287Y-96899500D01*
X85933713Y-96899500D01*
X85905933Y-96903900D01*
X85723760Y-96932753D01*
X85521585Y-96998444D01*
X85332179Y-97094951D01*
X85160213Y-97219890D01*
X85009890Y-97370213D01*
X84884949Y-97542182D01*
X84880484Y-97550946D01*
X84832509Y-97601742D01*
X84764688Y-97618536D01*
X84698553Y-97595998D01*
X84659516Y-97550946D01*
X84655050Y-97542182D01*
X84530109Y-97370213D01*
X84379786Y-97219890D01*
X84207820Y-97094951D01*
X84018414Y-96998444D01*
X84018413Y-96998443D01*
X84018412Y-96998443D01*
X83816243Y-96932754D01*
X83816241Y-96932753D01*
X83816240Y-96932753D01*
X83634067Y-96903900D01*
X83606287Y-96899500D01*
X83393713Y-96899500D01*
X83365933Y-96903900D01*
X83183760Y-96932753D01*
X82981585Y-96998444D01*
X82792179Y-97094951D01*
X82620213Y-97219890D01*
X82469890Y-97370213D01*
X82344949Y-97542182D01*
X82340484Y-97550946D01*
X82292509Y-97601742D01*
X82224688Y-97618536D01*
X82158553Y-97595998D01*
X82119516Y-97550946D01*
X82115050Y-97542182D01*
X81990109Y-97370213D01*
X81839786Y-97219890D01*
X81667820Y-97094951D01*
X81478414Y-96998444D01*
X81478413Y-96998443D01*
X81478412Y-96998443D01*
X81276243Y-96932754D01*
X81276241Y-96932753D01*
X81276240Y-96932753D01*
X81094067Y-96903900D01*
X81066287Y-96899500D01*
X80853713Y-96899500D01*
X80825933Y-96903900D01*
X80643760Y-96932753D01*
X80441585Y-96998444D01*
X80252179Y-97094951D01*
X80080213Y-97219890D01*
X79929890Y-97370213D01*
X79804951Y-97542179D01*
X79708444Y-97731585D01*
X79642753Y-97933760D01*
X79609500Y-98143713D01*
X71540499Y-98143713D01*
X71540499Y-98101577D01*
X71509708Y-97907173D01*
X71470534Y-97786609D01*
X71448883Y-97719975D01*
X71448881Y-97719972D01*
X71448881Y-97719970D01*
X71362759Y-97550946D01*
X71359523Y-97544595D01*
X71243827Y-97385354D01*
X71104645Y-97246172D01*
X70945404Y-97130476D01*
X70770028Y-97041117D01*
X70582825Y-96980290D01*
X70388421Y-96949500D01*
X70388416Y-96949500D01*
X70191582Y-96949500D01*
X70191577Y-96949500D01*
X69997172Y-96980290D01*
X69809969Y-97041117D01*
X69634593Y-97130476D01*
X69543740Y-97196485D01*
X69475353Y-97246172D01*
X69475351Y-97246174D01*
X69475350Y-97246174D01*
X69336173Y-97385351D01*
X69336173Y-97385352D01*
X69336171Y-97385354D01*
X69327327Y-97397527D01*
X69220475Y-97544594D01*
X69130484Y-97721213D01*
X69082510Y-97772009D01*
X69014689Y-97788804D01*
X68948554Y-97766267D01*
X68909514Y-97721213D01*
X68858600Y-97621288D01*
X68819523Y-97544595D01*
X68703827Y-97385354D01*
X68564645Y-97246172D01*
X68405404Y-97130476D01*
X68230028Y-97041117D01*
X68042825Y-96980290D01*
X67848421Y-96949500D01*
X67848416Y-96949500D01*
X67651582Y-96949500D01*
X67651577Y-96949500D01*
X67457172Y-96980290D01*
X67269969Y-97041117D01*
X67094593Y-97130476D01*
X67003740Y-97196485D01*
X66935353Y-97246172D01*
X66935351Y-97246174D01*
X66935350Y-97246174D01*
X66796173Y-97385351D01*
X66796173Y-97385352D01*
X66796171Y-97385354D01*
X66787327Y-97397527D01*
X66680475Y-97544594D01*
X66591116Y-97719970D01*
X66530289Y-97907173D01*
X66499499Y-98101577D01*
X55685054Y-98101577D01*
X55678280Y-98088283D01*
X55622287Y-97978390D01*
X55589862Y-97933760D01*
X55501971Y-97812786D01*
X55357213Y-97668028D01*
X55191613Y-97547715D01*
X55191612Y-97547714D01*
X55191610Y-97547713D01*
X55134653Y-97518691D01*
X55009223Y-97454781D01*
X54814534Y-97391522D01*
X54639995Y-97363878D01*
X54612352Y-97359500D01*
X54407648Y-97359500D01*
X54383329Y-97363351D01*
X54205465Y-97391522D01*
X54010776Y-97454781D01*
X53828386Y-97547715D01*
X53662786Y-97668028D01*
X53518028Y-97812786D01*
X53397715Y-97978386D01*
X53304781Y-98160776D01*
X53241522Y-98355465D01*
X53209500Y-98557648D01*
X45650500Y-98557648D01*
X45618477Y-98355466D01*
X45555220Y-98160781D01*
X45555218Y-98160778D01*
X45555218Y-98160776D01*
X45521503Y-98094607D01*
X45462287Y-97978390D01*
X45429862Y-97933760D01*
X45341971Y-97812786D01*
X45197213Y-97668028D01*
X45031613Y-97547715D01*
X45031612Y-97547714D01*
X45031610Y-97547713D01*
X44974653Y-97518691D01*
X44849223Y-97454781D01*
X44654534Y-97391522D01*
X44479995Y-97363878D01*
X44452352Y-97359500D01*
X44247648Y-97359500D01*
X44223329Y-97363351D01*
X44045465Y-97391522D01*
X43850776Y-97454781D01*
X43668386Y-97547715D01*
X43502786Y-97668028D01*
X43358028Y-97812786D01*
X43237715Y-97978386D01*
X43144781Y-98160776D01*
X43081522Y-98355465D01*
X43049500Y-98557648D01*
X18020943Y-98557648D01*
X18041936Y-98530289D01*
X18163224Y-98320212D01*
X18256054Y-98096100D01*
X18318838Y-97861789D01*
X18350500Y-97621288D01*
X18350500Y-97378712D01*
X18349380Y-97370208D01*
X18318838Y-97138214D01*
X18318838Y-97138211D01*
X18256054Y-96903900D01*
X18254231Y-96899500D01*
X18222206Y-96822183D01*
X18163224Y-96679788D01*
X18041936Y-96469711D01*
X17894265Y-96277262D01*
X17894260Y-96277256D01*
X17722743Y-96105739D01*
X17722736Y-96105733D01*
X17530293Y-95958067D01*
X17530292Y-95958066D01*
X17530289Y-95958064D01*
X17320212Y-95836776D01*
X17275880Y-95818413D01*
X17096104Y-95743947D01*
X16861785Y-95681161D01*
X16621289Y-95649500D01*
X16621288Y-95649500D01*
X16378712Y-95649500D01*
X16378711Y-95649500D01*
X16138214Y-95681161D01*
X15903895Y-95743947D01*
X15679794Y-95836773D01*
X15679785Y-95836777D01*
X15469706Y-95958067D01*
X15277263Y-96105733D01*
X15277256Y-96105739D01*
X15105739Y-96277256D01*
X15105733Y-96277263D01*
X14958067Y-96469706D01*
X14836777Y-96679785D01*
X14836773Y-96679794D01*
X14743947Y-96903895D01*
X14681161Y-97138214D01*
X14649500Y-97378711D01*
X12517034Y-97378711D01*
X12500618Y-97002702D01*
X12500500Y-96997293D01*
X12500500Y-79517648D01*
X17574500Y-79517648D01*
X17574500Y-79722351D01*
X17606522Y-79924534D01*
X17669781Y-80119223D01*
X17762715Y-80301613D01*
X17883028Y-80467213D01*
X17883034Y-80467219D01*
X18027781Y-80611966D01*
X18073384Y-80645098D01*
X18116050Y-80700425D01*
X18124500Y-80745416D01*
X18124500Y-90073918D01*
X18124500Y-90073920D01*
X18124499Y-90073920D01*
X18153340Y-90218907D01*
X18153343Y-90218917D01*
X18209913Y-90355490D01*
X18209916Y-90355495D01*
X18223591Y-90375960D01*
X18223592Y-90375965D01*
X18223594Y-90375965D01*
X18273583Y-90450781D01*
X18292051Y-90478420D01*
X18292052Y-90478421D01*
X19606580Y-91792948D01*
X19606584Y-91792951D01*
X19729498Y-91875080D01*
X19729511Y-91875087D01*
X19832669Y-91917816D01*
X19866087Y-91931658D01*
X19866091Y-91931658D01*
X19866092Y-91931659D01*
X20011079Y-91960500D01*
X20011082Y-91960500D01*
X20158917Y-91960500D01*
X23802779Y-91960500D01*
X23869818Y-91980185D01*
X23903097Y-92011615D01*
X23959892Y-92089788D01*
X24110213Y-92240109D01*
X24282179Y-92365048D01*
X24282181Y-92365049D01*
X24282184Y-92365051D01*
X24471588Y-92461557D01*
X24673757Y-92527246D01*
X24883713Y-92560500D01*
X24883714Y-92560500D01*
X25096286Y-92560500D01*
X25096287Y-92560500D01*
X25306243Y-92527246D01*
X25508412Y-92461557D01*
X25697816Y-92365051D01*
X25719789Y-92349086D01*
X25869786Y-92240109D01*
X25869788Y-92240106D01*
X25869792Y-92240104D01*
X26020104Y-92089792D01*
X26020106Y-92089788D01*
X26020109Y-92089786D01*
X26145048Y-91917820D01*
X26145047Y-91917820D01*
X26145051Y-91917816D01*
X26149514Y-91909054D01*
X26197488Y-91858259D01*
X26265308Y-91841463D01*
X26331444Y-91863999D01*
X26370486Y-91909056D01*
X26374951Y-91917820D01*
X26499890Y-92089786D01*
X26650213Y-92240109D01*
X26822182Y-92365050D01*
X26830946Y-92369516D01*
X26881742Y-92417491D01*
X26898536Y-92485312D01*
X26875998Y-92551447D01*
X26830946Y-92590484D01*
X26822182Y-92594949D01*
X26650213Y-92719890D01*
X26499890Y-92870213D01*
X26374951Y-93042179D01*
X26278444Y-93231585D01*
X26212753Y-93433760D01*
X26190309Y-93575465D01*
X26179500Y-93643713D01*
X26179500Y-93856287D01*
X26212754Y-94066243D01*
X26251189Y-94184534D01*
X26278444Y-94268414D01*
X26374951Y-94457820D01*
X26499890Y-94629786D01*
X26650213Y-94780109D01*
X26822179Y-94905048D01*
X26822181Y-94905049D01*
X26822184Y-94905051D01*
X27011588Y-95001557D01*
X27213757Y-95067246D01*
X27423713Y-95100500D01*
X27423714Y-95100500D01*
X27636286Y-95100500D01*
X27636287Y-95100500D01*
X27846243Y-95067246D01*
X28048412Y-95001557D01*
X28237816Y-94905051D01*
X28341614Y-94829638D01*
X28409786Y-94780109D01*
X28409788Y-94780106D01*
X28409792Y-94780104D01*
X28560104Y-94629792D01*
X28560106Y-94629788D01*
X28560109Y-94629786D01*
X28685048Y-94457820D01*
X28685047Y-94457820D01*
X28685051Y-94457816D01*
X28689514Y-94449054D01*
X28737488Y-94398259D01*
X28805308Y-94381463D01*
X28871444Y-94403999D01*
X28910486Y-94449056D01*
X28914951Y-94457820D01*
X29039890Y-94629786D01*
X29190213Y-94780109D01*
X29362179Y-94905048D01*
X29362181Y-94905049D01*
X29362184Y-94905051D01*
X29551588Y-95001557D01*
X29753757Y-95067246D01*
X29963713Y-95100500D01*
X29963714Y-95100500D01*
X30176286Y-95100500D01*
X30176287Y-95100500D01*
X30386243Y-95067246D01*
X30588412Y-95001557D01*
X30777816Y-94905051D01*
X30881614Y-94829638D01*
X30949786Y-94780109D01*
X30949788Y-94780106D01*
X30949792Y-94780104D01*
X31100104Y-94629792D01*
X31100106Y-94629788D01*
X31100109Y-94629786D01*
X31225048Y-94457820D01*
X31225047Y-94457820D01*
X31225051Y-94457816D01*
X31229514Y-94449054D01*
X31277488Y-94398259D01*
X31345308Y-94381463D01*
X31411444Y-94403999D01*
X31450486Y-94449056D01*
X31454951Y-94457820D01*
X31579890Y-94629786D01*
X31730211Y-94780107D01*
X31818383Y-94844166D01*
X31861050Y-94899495D01*
X31869499Y-94944485D01*
X31869499Y-95413917D01*
X31869499Y-95413919D01*
X31869498Y-95413919D01*
X31898339Y-95558906D01*
X31898342Y-95558916D01*
X31954911Y-95695487D01*
X31954917Y-95695498D01*
X31965663Y-95711579D01*
X31965665Y-95711584D01*
X32037045Y-95818413D01*
X32037051Y-95818420D01*
X32991584Y-96772952D01*
X32991586Y-96772954D01*
X33021058Y-96792645D01*
X33065270Y-96822186D01*
X33114505Y-96855084D01*
X33114506Y-96855084D01*
X33114507Y-96855085D01*
X33114509Y-96855086D01*
X33221735Y-96899500D01*
X33251087Y-96911658D01*
X33251091Y-96911658D01*
X33251092Y-96911659D01*
X33396079Y-96940500D01*
X33396082Y-96940500D01*
X37636153Y-96940500D01*
X37733695Y-96921096D01*
X37781146Y-96911658D01*
X37917728Y-96855084D01*
X37966962Y-96822186D01*
X37966967Y-96822183D01*
X37991304Y-96805921D01*
X38040649Y-96772952D01*
X41035953Y-93777648D01*
X53269500Y-93777648D01*
X53269500Y-93982351D01*
X53301522Y-94184534D01*
X53364781Y-94379223D01*
X53426576Y-94500500D01*
X53452620Y-94551615D01*
X53457715Y-94561613D01*
X53578028Y-94727213D01*
X53722786Y-94871971D01*
X53877749Y-94984556D01*
X53888390Y-94992287D01*
X54004607Y-95051503D01*
X54070776Y-95085218D01*
X54070778Y-95085218D01*
X54070781Y-95085220D01*
X54175137Y-95119127D01*
X54265465Y-95148477D01*
X54366557Y-95164488D01*
X54467648Y-95180500D01*
X54467649Y-95180500D01*
X54672351Y-95180500D01*
X54672352Y-95180500D01*
X54874534Y-95148477D01*
X55069219Y-95085220D01*
X55251610Y-94992287D01*
X55371685Y-94905048D01*
X55417213Y-94871971D01*
X55417215Y-94871968D01*
X55417219Y-94871966D01*
X55561966Y-94727219D01*
X55561968Y-94727215D01*
X55561971Y-94727213D01*
X55632753Y-94629788D01*
X55682287Y-94561610D01*
X55775220Y-94379219D01*
X55838477Y-94184534D01*
X55870500Y-93982352D01*
X55870500Y-93777648D01*
X55855841Y-93685095D01*
X55838477Y-93575465D01*
X55775218Y-93380776D01*
X55699202Y-93231588D01*
X55682287Y-93198390D01*
X55674556Y-93187749D01*
X55561971Y-93032786D01*
X55417213Y-92888028D01*
X55251613Y-92767715D01*
X55251612Y-92767714D01*
X55251610Y-92767713D01*
X55194653Y-92738691D01*
X55069223Y-92674781D01*
X54874534Y-92611522D01*
X54699995Y-92583878D01*
X54672352Y-92579500D01*
X54467648Y-92579500D01*
X54443329Y-92583351D01*
X54265465Y-92611522D01*
X54070776Y-92674781D01*
X53888386Y-92767715D01*
X53722786Y-92888028D01*
X53578028Y-93032786D01*
X53457715Y-93198386D01*
X53364781Y-93380776D01*
X53301522Y-93575465D01*
X53269500Y-93777648D01*
X41035953Y-93777648D01*
X43559067Y-91254534D01*
X43965953Y-90847648D01*
X65619500Y-90847648D01*
X65619500Y-91052351D01*
X65651522Y-91254534D01*
X65714781Y-91449223D01*
X65807715Y-91631613D01*
X65928028Y-91797213D01*
X66072786Y-91941971D01*
X66223621Y-92051557D01*
X66238390Y-92062287D01*
X66354607Y-92121503D01*
X66420776Y-92155218D01*
X66420778Y-92155218D01*
X66420781Y-92155220D01*
X66525137Y-92189127D01*
X66615465Y-92218477D01*
X66716557Y-92234488D01*
X66817648Y-92250500D01*
X66817649Y-92250500D01*
X67022351Y-92250500D01*
X67022352Y-92250500D01*
X67224534Y-92218477D01*
X67419219Y-92155220D01*
X67601610Y-92062287D01*
X67723238Y-91973920D01*
X67767213Y-91941971D01*
X67767215Y-91941968D01*
X67767219Y-91941966D01*
X67911966Y-91797219D01*
X67911968Y-91797215D01*
X67911971Y-91797213D01*
X68003196Y-91671650D01*
X68032287Y-91631610D01*
X68125220Y-91449219D01*
X68188477Y-91254534D01*
X68220500Y-91052352D01*
X68220500Y-90847648D01*
X75779500Y-90847648D01*
X75779500Y-91052351D01*
X75811522Y-91254534D01*
X75874781Y-91449223D01*
X75967715Y-91631613D01*
X76088028Y-91797213D01*
X76232786Y-91941971D01*
X76383621Y-92051557D01*
X76398390Y-92062287D01*
X76514607Y-92121503D01*
X76580776Y-92155218D01*
X76580778Y-92155218D01*
X76580781Y-92155220D01*
X76685137Y-92189127D01*
X76775465Y-92218477D01*
X76876557Y-92234488D01*
X76977648Y-92250500D01*
X76977649Y-92250500D01*
X77182351Y-92250500D01*
X77182352Y-92250500D01*
X77384534Y-92218477D01*
X77579219Y-92155220D01*
X77761610Y-92062287D01*
X77883238Y-91973920D01*
X77927213Y-91941971D01*
X77927215Y-91941968D01*
X77927219Y-91941966D01*
X78071966Y-91797219D01*
X78071968Y-91797215D01*
X78071971Y-91797213D01*
X78163196Y-91671650D01*
X78192287Y-91631610D01*
X78285220Y-91449219D01*
X78348477Y-91254534D01*
X78380500Y-91052352D01*
X78380500Y-90847648D01*
X78356119Y-90693713D01*
X79589500Y-90693713D01*
X79589500Y-90906286D01*
X79612634Y-91052352D01*
X79622754Y-91116243D01*
X79687752Y-91316286D01*
X79688444Y-91318414D01*
X79784951Y-91507820D01*
X79909890Y-91679786D01*
X80060213Y-91830109D01*
X80232179Y-91955048D01*
X80232181Y-91955049D01*
X80232184Y-91955051D01*
X80421588Y-92051557D01*
X80623757Y-92117246D01*
X80833713Y-92150500D01*
X80833714Y-92150500D01*
X81046286Y-92150500D01*
X81046287Y-92150500D01*
X81256243Y-92117246D01*
X81458412Y-92051557D01*
X81647816Y-91955051D01*
X81680017Y-91931656D01*
X81819786Y-91830109D01*
X81819788Y-91830106D01*
X81819792Y-91830104D01*
X81970104Y-91679792D01*
X81970106Y-91679788D01*
X81970109Y-91679786D01*
X82095048Y-91507820D01*
X82095047Y-91507820D01*
X82095051Y-91507816D01*
X82099514Y-91499054D01*
X82147488Y-91448259D01*
X82215308Y-91431463D01*
X82281444Y-91453999D01*
X82320486Y-91499056D01*
X82324951Y-91507820D01*
X82449890Y-91679786D01*
X82600213Y-91830109D01*
X82772179Y-91955048D01*
X82772181Y-91955049D01*
X82772184Y-91955051D01*
X82961588Y-92051557D01*
X83163757Y-92117246D01*
X83373713Y-92150500D01*
X83373714Y-92150500D01*
X83586286Y-92150500D01*
X83586287Y-92150500D01*
X83796243Y-92117246D01*
X83998412Y-92051557D01*
X84187816Y-91955051D01*
X84220017Y-91931656D01*
X84359786Y-91830109D01*
X84359788Y-91830106D01*
X84359792Y-91830104D01*
X84510104Y-91679792D01*
X84510106Y-91679788D01*
X84510109Y-91679786D01*
X84635048Y-91507820D01*
X84635047Y-91507820D01*
X84635051Y-91507816D01*
X84639514Y-91499054D01*
X84687488Y-91448259D01*
X84755308Y-91431463D01*
X84821444Y-91453999D01*
X84860486Y-91499056D01*
X84864951Y-91507820D01*
X84989890Y-91679786D01*
X85140213Y-91830109D01*
X85312179Y-91955048D01*
X85312181Y-91955049D01*
X85312184Y-91955051D01*
X85501588Y-92051557D01*
X85703757Y-92117246D01*
X85913713Y-92150500D01*
X85913714Y-92150500D01*
X86126286Y-92150500D01*
X86126287Y-92150500D01*
X86336243Y-92117246D01*
X86538412Y-92051557D01*
X86727816Y-91955051D01*
X86760017Y-91931656D01*
X86899786Y-91830109D01*
X86899788Y-91830106D01*
X86899792Y-91830104D01*
X87050104Y-91679792D01*
X87050106Y-91679788D01*
X87050109Y-91679786D01*
X87175048Y-91507820D01*
X87175047Y-91507820D01*
X87175051Y-91507816D01*
X87271557Y-91318412D01*
X87337246Y-91116243D01*
X87370500Y-90906287D01*
X87370500Y-90693713D01*
X87337246Y-90483757D01*
X87271557Y-90281588D01*
X87175051Y-90092184D01*
X87175049Y-90092181D01*
X87175048Y-90092179D01*
X87050109Y-89920213D01*
X86899786Y-89769890D01*
X86727820Y-89644951D01*
X86538414Y-89548444D01*
X86538413Y-89548443D01*
X86538412Y-89548443D01*
X86336243Y-89482754D01*
X86336241Y-89482753D01*
X86336240Y-89482753D01*
X86174957Y-89457208D01*
X86126287Y-89449500D01*
X85913713Y-89449500D01*
X85865042Y-89457208D01*
X85703760Y-89482753D01*
X85501585Y-89548444D01*
X85312179Y-89644951D01*
X85140213Y-89769890D01*
X84989890Y-89920213D01*
X84864949Y-90092182D01*
X84860484Y-90100946D01*
X84812509Y-90151742D01*
X84744688Y-90168536D01*
X84678553Y-90145998D01*
X84639516Y-90100946D01*
X84635050Y-90092182D01*
X84510109Y-89920213D01*
X84359786Y-89769890D01*
X84187820Y-89644951D01*
X83998414Y-89548444D01*
X83998413Y-89548443D01*
X83998412Y-89548443D01*
X83796243Y-89482754D01*
X83796241Y-89482753D01*
X83796240Y-89482753D01*
X83634957Y-89457208D01*
X83586287Y-89449500D01*
X83373713Y-89449500D01*
X83325042Y-89457208D01*
X83163760Y-89482753D01*
X82961585Y-89548444D01*
X82772179Y-89644951D01*
X82600213Y-89769890D01*
X82449890Y-89920213D01*
X82324949Y-90092182D01*
X82320484Y-90100946D01*
X82272509Y-90151742D01*
X82204688Y-90168536D01*
X82138553Y-90145998D01*
X82099516Y-90100946D01*
X82095050Y-90092182D01*
X81970109Y-89920213D01*
X81819786Y-89769890D01*
X81647820Y-89644951D01*
X81458414Y-89548444D01*
X81458413Y-89548443D01*
X81458412Y-89548443D01*
X81256243Y-89482754D01*
X81256241Y-89482753D01*
X81256240Y-89482753D01*
X81094957Y-89457208D01*
X81046287Y-89449500D01*
X80833713Y-89449500D01*
X80785042Y-89457208D01*
X80623760Y-89482753D01*
X80421585Y-89548444D01*
X80232179Y-89644951D01*
X80060213Y-89769890D01*
X79909890Y-89920213D01*
X79784951Y-90092179D01*
X79688444Y-90281585D01*
X79622753Y-90483760D01*
X79589500Y-90693713D01*
X78356119Y-90693713D01*
X78348477Y-90645466D01*
X78285220Y-90450781D01*
X78285218Y-90450778D01*
X78285218Y-90450776D01*
X78236669Y-90355495D01*
X78192287Y-90268390D01*
X78156336Y-90218907D01*
X78071971Y-90102786D01*
X77927213Y-89958028D01*
X77761613Y-89837715D01*
X77761612Y-89837714D01*
X77761610Y-89837713D01*
X77704653Y-89808691D01*
X77579223Y-89744781D01*
X77384534Y-89681522D01*
X77209995Y-89653878D01*
X77182352Y-89649500D01*
X76977648Y-89649500D01*
X76953329Y-89653351D01*
X76775465Y-89681522D01*
X76580776Y-89744781D01*
X76398386Y-89837715D01*
X76232786Y-89958028D01*
X76088028Y-90102786D01*
X75967715Y-90268386D01*
X75874781Y-90450776D01*
X75811522Y-90645465D01*
X75779500Y-90847648D01*
X68220500Y-90847648D01*
X68204772Y-90748349D01*
X68188477Y-90645465D01*
X68141920Y-90502179D01*
X68125220Y-90450781D01*
X68125218Y-90450778D01*
X68125218Y-90450776D01*
X68076669Y-90355495D01*
X68032287Y-90268390D01*
X67996336Y-90218907D01*
X67911971Y-90102786D01*
X67767213Y-89958028D01*
X67601613Y-89837715D01*
X67601612Y-89837714D01*
X67601610Y-89837713D01*
X67544653Y-89808691D01*
X67419223Y-89744781D01*
X67224534Y-89681522D01*
X67049995Y-89653878D01*
X67022352Y-89649500D01*
X66817648Y-89649500D01*
X66793329Y-89653351D01*
X66615465Y-89681522D01*
X66420776Y-89744781D01*
X66238386Y-89837715D01*
X66072786Y-89958028D01*
X65928028Y-90102786D01*
X65807715Y-90268386D01*
X65714781Y-90450776D01*
X65651522Y-90645465D01*
X65619500Y-90847648D01*
X43965953Y-90847648D01*
X44058506Y-90755095D01*
X49132946Y-85680654D01*
X49132949Y-85680651D01*
X49132948Y-85680651D01*
X49132951Y-85680649D01*
X49164160Y-85633941D01*
X49215084Y-85557728D01*
X49271658Y-85421146D01*
X49300500Y-85276151D01*
X49300500Y-83493713D01*
X79629500Y-83493713D01*
X79629500Y-83706286D01*
X79662016Y-83911588D01*
X79662754Y-83916243D01*
X79685182Y-83985270D01*
X79728444Y-84118414D01*
X79824951Y-84307820D01*
X79949890Y-84479786D01*
X80100213Y-84630109D01*
X80272179Y-84755048D01*
X80272181Y-84755049D01*
X80272184Y-84755051D01*
X80461588Y-84851557D01*
X80663757Y-84917246D01*
X80873713Y-84950500D01*
X80873714Y-84950500D01*
X81086286Y-84950500D01*
X81086287Y-84950500D01*
X81296243Y-84917246D01*
X81498412Y-84851557D01*
X81687816Y-84755051D01*
X81762393Y-84700868D01*
X81859786Y-84630109D01*
X81859788Y-84630106D01*
X81859792Y-84630104D01*
X82010104Y-84479792D01*
X82010106Y-84479788D01*
X82010109Y-84479786D01*
X82135048Y-84307820D01*
X82135047Y-84307820D01*
X82135051Y-84307816D01*
X82139514Y-84299054D01*
X82187488Y-84248259D01*
X82255308Y-84231463D01*
X82321444Y-84253999D01*
X82360486Y-84299056D01*
X82364951Y-84307820D01*
X82489890Y-84479786D01*
X82640213Y-84630109D01*
X82812179Y-84755048D01*
X82812181Y-84755049D01*
X82812184Y-84755051D01*
X83001588Y-84851557D01*
X83203757Y-84917246D01*
X83413713Y-84950500D01*
X83413714Y-84950500D01*
X83626286Y-84950500D01*
X83626287Y-84950500D01*
X83836243Y-84917246D01*
X84038412Y-84851557D01*
X84227816Y-84755051D01*
X84302393Y-84700868D01*
X84399786Y-84630109D01*
X84399788Y-84630106D01*
X84399792Y-84630104D01*
X84550104Y-84479792D01*
X84550106Y-84479788D01*
X84550109Y-84479786D01*
X84675048Y-84307820D01*
X84675047Y-84307820D01*
X84675051Y-84307816D01*
X84679514Y-84299054D01*
X84727488Y-84248259D01*
X84795308Y-84231463D01*
X84861444Y-84253999D01*
X84900486Y-84299056D01*
X84904951Y-84307820D01*
X85029890Y-84479786D01*
X85180213Y-84630109D01*
X85352179Y-84755048D01*
X85352181Y-84755049D01*
X85352184Y-84755051D01*
X85541588Y-84851557D01*
X85743757Y-84917246D01*
X85953713Y-84950500D01*
X85953714Y-84950500D01*
X86166286Y-84950500D01*
X86166287Y-84950500D01*
X86376243Y-84917246D01*
X86578412Y-84851557D01*
X86767816Y-84755051D01*
X86842393Y-84700868D01*
X86939786Y-84630109D01*
X86939788Y-84630106D01*
X86939792Y-84630104D01*
X87090104Y-84479792D01*
X87090106Y-84479788D01*
X87090109Y-84479786D01*
X87215048Y-84307820D01*
X87215047Y-84307820D01*
X87215051Y-84307816D01*
X87311557Y-84118412D01*
X87377246Y-83916243D01*
X87410500Y-83706287D01*
X87410500Y-83493713D01*
X87377246Y-83283757D01*
X87311557Y-83081588D01*
X87215051Y-82892184D01*
X87215049Y-82892181D01*
X87215048Y-82892179D01*
X87090109Y-82720213D01*
X86939786Y-82569890D01*
X86767820Y-82444951D01*
X86578414Y-82348444D01*
X86578413Y-82348443D01*
X86578412Y-82348443D01*
X86376243Y-82282754D01*
X86376241Y-82282753D01*
X86376240Y-82282753D01*
X86214957Y-82257208D01*
X86166287Y-82249500D01*
X85953713Y-82249500D01*
X85905042Y-82257208D01*
X85743760Y-82282753D01*
X85541585Y-82348444D01*
X85352179Y-82444951D01*
X85180213Y-82569890D01*
X85029890Y-82720213D01*
X84904949Y-82892182D01*
X84900484Y-82900946D01*
X84852509Y-82951742D01*
X84784688Y-82968536D01*
X84718553Y-82945998D01*
X84679516Y-82900946D01*
X84675050Y-82892182D01*
X84550109Y-82720213D01*
X84399786Y-82569890D01*
X84227820Y-82444951D01*
X84038414Y-82348444D01*
X84038413Y-82348443D01*
X84038412Y-82348443D01*
X83836243Y-82282754D01*
X83836241Y-82282753D01*
X83836240Y-82282753D01*
X83674957Y-82257208D01*
X83626287Y-82249500D01*
X83413713Y-82249500D01*
X83365042Y-82257208D01*
X83203760Y-82282753D01*
X83001585Y-82348444D01*
X82812179Y-82444951D01*
X82640213Y-82569890D01*
X82489890Y-82720213D01*
X82364949Y-82892182D01*
X82360484Y-82900946D01*
X82312509Y-82951742D01*
X82244688Y-82968536D01*
X82178553Y-82945998D01*
X82139516Y-82900946D01*
X82135050Y-82892182D01*
X82010109Y-82720213D01*
X81859786Y-82569890D01*
X81687820Y-82444951D01*
X81498414Y-82348444D01*
X81498413Y-82348443D01*
X81498412Y-82348443D01*
X81296243Y-82282754D01*
X81296241Y-82282753D01*
X81296240Y-82282753D01*
X81134957Y-82257208D01*
X81086287Y-82249500D01*
X80873713Y-82249500D01*
X80825042Y-82257208D01*
X80663760Y-82282753D01*
X80461585Y-82348444D01*
X80272179Y-82444951D01*
X80100213Y-82569890D01*
X79949890Y-82720213D01*
X79824951Y-82892179D01*
X79728444Y-83081585D01*
X79662753Y-83283760D01*
X79629500Y-83493713D01*
X49300500Y-83493713D01*
X49300500Y-77312230D01*
X49320185Y-77245191D01*
X49336819Y-77224549D01*
X54429467Y-72131902D01*
X66349500Y-72131902D01*
X66349500Y-78868097D01*
X66386446Y-79101368D01*
X66459433Y-79325996D01*
X66566657Y-79536433D01*
X66705483Y-79727510D01*
X66872490Y-79894517D01*
X67063567Y-80033343D01*
X67162991Y-80084002D01*
X67274003Y-80140566D01*
X67274005Y-80140566D01*
X67274008Y-80140568D01*
X67394412Y-80179689D01*
X67498631Y-80213553D01*
X67731903Y-80250500D01*
X67731908Y-80250500D01*
X67968097Y-80250500D01*
X68201368Y-80213553D01*
X68425992Y-80140568D01*
X68636433Y-80033343D01*
X68827510Y-79894517D01*
X68994517Y-79727510D01*
X69133343Y-79536433D01*
X69240568Y-79325992D01*
X69313553Y-79101368D01*
X69350500Y-78868097D01*
X69350500Y-72131902D01*
X70849500Y-72131902D01*
X70849500Y-72368097D01*
X70886446Y-72601368D01*
X70959433Y-72825996D01*
X71048914Y-73001610D01*
X71066657Y-73036433D01*
X71205483Y-73227510D01*
X71372490Y-73394517D01*
X71548386Y-73522313D01*
X71591051Y-73577643D01*
X71599500Y-73622631D01*
X71599500Y-77377368D01*
X71579815Y-77444407D01*
X71548386Y-77477686D01*
X71372488Y-77605484D01*
X71205485Y-77772487D01*
X71205485Y-77772488D01*
X71205483Y-77772490D01*
X71145862Y-77854550D01*
X71066657Y-77963566D01*
X70959433Y-78174003D01*
X70886446Y-78398631D01*
X70849500Y-78631902D01*
X70849500Y-78868097D01*
X70886446Y-79101368D01*
X70959433Y-79325996D01*
X71066657Y-79536433D01*
X71205483Y-79727510D01*
X71372490Y-79894517D01*
X71563567Y-80033343D01*
X71662991Y-80084002D01*
X71774003Y-80140566D01*
X71774005Y-80140566D01*
X71774008Y-80140568D01*
X71894412Y-80179689D01*
X71998631Y-80213553D01*
X72231903Y-80250500D01*
X72231908Y-80250500D01*
X72468097Y-80250500D01*
X72701368Y-80213553D01*
X72925992Y-80140568D01*
X73136433Y-80033343D01*
X73327510Y-79894517D01*
X73494517Y-79727510D01*
X73633343Y-79536433D01*
X73740568Y-79325992D01*
X73813553Y-79101368D01*
X73850500Y-78868097D01*
X73850500Y-78631902D01*
X73813553Y-78398631D01*
X73740566Y-78174003D01*
X73633342Y-77963566D01*
X73494517Y-77772490D01*
X73327510Y-77605483D01*
X73179430Y-77497896D01*
X73151614Y-77477686D01*
X73108949Y-77422355D01*
X73100500Y-77377368D01*
X73100500Y-76089778D01*
X74799500Y-76089778D01*
X74799500Y-76310221D01*
X74833985Y-76527952D01*
X74902103Y-76737603D01*
X74902104Y-76737606D01*
X75002187Y-76934025D01*
X75131752Y-77112358D01*
X75131756Y-77112363D01*
X75287636Y-77268243D01*
X75287641Y-77268247D01*
X75437835Y-77377368D01*
X75465978Y-77397815D01*
X75565154Y-77448348D01*
X75662393Y-77497895D01*
X75662396Y-77497896D01*
X75767221Y-77531955D01*
X75872049Y-77566015D01*
X76089778Y-77600500D01*
X76089779Y-77600500D01*
X76310221Y-77600500D01*
X76310222Y-77600500D01*
X76527951Y-77566015D01*
X76737606Y-77497895D01*
X76934022Y-77397815D01*
X77112365Y-77268242D01*
X77268242Y-77112365D01*
X77397815Y-76934022D01*
X77497895Y-76737606D01*
X77566015Y-76527951D01*
X77600500Y-76310222D01*
X77600500Y-76089778D01*
X82599500Y-76089778D01*
X82599500Y-76310221D01*
X82633985Y-76527952D01*
X82702103Y-76737603D01*
X82702104Y-76737606D01*
X82802187Y-76934025D01*
X82931752Y-77112358D01*
X82931756Y-77112363D01*
X83087636Y-77268243D01*
X83087641Y-77268247D01*
X83237835Y-77377368D01*
X83265978Y-77397815D01*
X83365154Y-77448348D01*
X83462393Y-77497895D01*
X83462396Y-77497896D01*
X83567221Y-77531955D01*
X83672049Y-77566015D01*
X83889778Y-77600500D01*
X83889779Y-77600500D01*
X84110221Y-77600500D01*
X84110222Y-77600500D01*
X84327951Y-77566015D01*
X84537606Y-77497895D01*
X84734022Y-77397815D01*
X84912365Y-77268242D01*
X85068242Y-77112365D01*
X85197815Y-76934022D01*
X85297895Y-76737606D01*
X85366015Y-76527951D01*
X85400500Y-76310222D01*
X85400500Y-76089778D01*
X93739500Y-76089778D01*
X93739500Y-76310221D01*
X93773985Y-76527952D01*
X93842103Y-76737603D01*
X93842104Y-76737606D01*
X93942187Y-76934025D01*
X94071752Y-77112358D01*
X94071756Y-77112363D01*
X94227636Y-77268243D01*
X94227641Y-77268247D01*
X94377835Y-77377368D01*
X94405978Y-77397815D01*
X94505154Y-77448348D01*
X94602393Y-77497895D01*
X94602396Y-77497896D01*
X94707221Y-77531955D01*
X94812049Y-77566015D01*
X95029778Y-77600500D01*
X95029779Y-77600500D01*
X95250221Y-77600500D01*
X95250222Y-77600500D01*
X95467951Y-77566015D01*
X95677606Y-77497895D01*
X95874022Y-77397815D01*
X96052365Y-77268242D01*
X96208242Y-77112365D01*
X96337815Y-76934022D01*
X96437895Y-76737606D01*
X96506015Y-76527951D01*
X96540500Y-76310222D01*
X96540500Y-76089778D01*
X96506015Y-75872049D01*
X96437895Y-75662394D01*
X96437895Y-75662393D01*
X96403237Y-75594375D01*
X96337815Y-75465978D01*
X96321260Y-75443192D01*
X96208247Y-75287641D01*
X96208243Y-75287636D01*
X96052363Y-75131756D01*
X96052358Y-75131752D01*
X95874025Y-75002187D01*
X95874024Y-75002186D01*
X95874022Y-75002185D01*
X95811096Y-74970122D01*
X95677606Y-74902104D01*
X95677603Y-74902103D01*
X95467952Y-74833985D01*
X95359086Y-74816742D01*
X95250222Y-74799500D01*
X95029778Y-74799500D01*
X94957201Y-74810995D01*
X94812047Y-74833985D01*
X94602396Y-74902103D01*
X94602393Y-74902104D01*
X94405974Y-75002187D01*
X94227641Y-75131752D01*
X94227636Y-75131756D01*
X94071756Y-75287636D01*
X94071752Y-75287641D01*
X93942187Y-75465974D01*
X93842104Y-75662393D01*
X93842103Y-75662396D01*
X93773985Y-75872047D01*
X93739500Y-76089778D01*
X85400500Y-76089778D01*
X85366015Y-75872049D01*
X85297895Y-75662394D01*
X85297895Y-75662393D01*
X85263237Y-75594375D01*
X85197815Y-75465978D01*
X85181260Y-75443192D01*
X85068247Y-75287641D01*
X85068243Y-75287636D01*
X84912363Y-75131756D01*
X84912358Y-75131752D01*
X84734025Y-75002187D01*
X84734024Y-75002186D01*
X84734022Y-75002185D01*
X84671096Y-74970122D01*
X84537606Y-74902104D01*
X84537603Y-74902103D01*
X84327952Y-74833985D01*
X84219086Y-74816742D01*
X84110222Y-74799500D01*
X83889778Y-74799500D01*
X83817201Y-74810995D01*
X83672047Y-74833985D01*
X83462396Y-74902103D01*
X83462393Y-74902104D01*
X83265974Y-75002187D01*
X83087641Y-75131752D01*
X83087636Y-75131756D01*
X82931756Y-75287636D01*
X82931752Y-75287641D01*
X82802187Y-75465974D01*
X82702104Y-75662393D01*
X82702103Y-75662396D01*
X82633985Y-75872047D01*
X82599500Y-76089778D01*
X77600500Y-76089778D01*
X77578987Y-75953951D01*
X77583609Y-75919545D01*
X77588038Y-75885276D01*
X77588257Y-75884955D01*
X77588291Y-75884704D01*
X77588995Y-75883875D01*
X77613873Y-75847493D01*
X83092952Y-70368415D01*
X83122684Y-70323917D01*
X83175084Y-70245495D01*
X83203836Y-70176082D01*
X83231659Y-70108912D01*
X83260500Y-69963917D01*
X83260500Y-69875416D01*
X83280185Y-69808377D01*
X83311613Y-69775099D01*
X83357219Y-69741966D01*
X83501966Y-69597219D01*
X83501968Y-69597215D01*
X83501971Y-69597213D01*
X83554732Y-69524590D01*
X83622287Y-69431610D01*
X83715220Y-69249219D01*
X83778477Y-69054534D01*
X83810500Y-68852352D01*
X83810500Y-68647648D01*
X83786992Y-68499225D01*
X83778477Y-68445465D01*
X83732685Y-68304534D01*
X83715220Y-68250781D01*
X83715218Y-68250778D01*
X83715218Y-68250776D01*
X83679976Y-68181610D01*
X83622287Y-68068390D01*
X83566766Y-67991971D01*
X83501971Y-67902786D01*
X83357213Y-67758028D01*
X83191613Y-67637715D01*
X83191612Y-67637714D01*
X83191610Y-67637713D01*
X83118615Y-67600520D01*
X83009223Y-67544781D01*
X82814534Y-67481522D01*
X82639995Y-67453878D01*
X82612352Y-67449500D01*
X82407648Y-67449500D01*
X82383329Y-67453351D01*
X82205465Y-67481522D01*
X82010776Y-67544781D01*
X81828386Y-67637715D01*
X81662786Y-67758028D01*
X81518028Y-67902786D01*
X81397715Y-68068386D01*
X81304781Y-68250776D01*
X81241522Y-68445465D01*
X81209500Y-68647648D01*
X81209500Y-68852351D01*
X81241522Y-69054534D01*
X81304781Y-69249223D01*
X81397715Y-69431613D01*
X81518028Y-69597213D01*
X81542042Y-69621227D01*
X81575527Y-69682550D01*
X81570543Y-69752242D01*
X81542042Y-69796589D01*
X76552508Y-74786122D01*
X76491185Y-74819607D01*
X76445429Y-74820914D01*
X76310227Y-74799500D01*
X76310222Y-74799500D01*
X76089778Y-74799500D01*
X76017201Y-74810995D01*
X75872047Y-74833985D01*
X75662396Y-74902103D01*
X75662393Y-74902104D01*
X75465974Y-75002187D01*
X75287641Y-75131752D01*
X75287636Y-75131756D01*
X75131756Y-75287636D01*
X75131752Y-75287641D01*
X75002187Y-75465974D01*
X74902104Y-75662393D01*
X74902103Y-75662396D01*
X74833985Y-75872047D01*
X74799500Y-76089778D01*
X73100500Y-76089778D01*
X73100500Y-73622631D01*
X73120185Y-73555592D01*
X73151614Y-73522313D01*
X73327510Y-73394517D01*
X73494517Y-73227510D01*
X73633343Y-73036433D01*
X73740568Y-72825992D01*
X73813553Y-72601368D01*
X73839824Y-72435500D01*
X73850500Y-72368097D01*
X73850500Y-72131902D01*
X73813553Y-71898631D01*
X73779689Y-71794412D01*
X73740568Y-71674008D01*
X73740566Y-71674005D01*
X73740566Y-71674003D01*
X73638040Y-71472786D01*
X73633343Y-71463567D01*
X73494517Y-71272490D01*
X73327510Y-71105483D01*
X73209165Y-71019500D01*
X73151614Y-70977686D01*
X73108949Y-70922355D01*
X73100500Y-70877368D01*
X73100500Y-69875416D01*
X73120185Y-69808377D01*
X73151613Y-69775099D01*
X73197219Y-69741966D01*
X73341966Y-69597219D01*
X73341968Y-69597215D01*
X73341971Y-69597213D01*
X73394732Y-69524590D01*
X73462287Y-69431610D01*
X73555220Y-69249219D01*
X73618477Y-69054534D01*
X73650500Y-68852352D01*
X73650500Y-68647648D01*
X73626992Y-68499225D01*
X73618477Y-68445465D01*
X73572685Y-68304534D01*
X73555220Y-68250781D01*
X73555218Y-68250778D01*
X73555218Y-68250776D01*
X73519976Y-68181610D01*
X73462287Y-68068390D01*
X73406766Y-67991971D01*
X73341971Y-67902786D01*
X73197213Y-67758028D01*
X73031613Y-67637715D01*
X73031612Y-67637714D01*
X73031610Y-67637713D01*
X72958615Y-67600520D01*
X72849223Y-67544781D01*
X72654534Y-67481522D01*
X72479995Y-67453878D01*
X72452352Y-67449500D01*
X72247648Y-67449500D01*
X72223329Y-67453351D01*
X72045465Y-67481522D01*
X71850776Y-67544781D01*
X71668386Y-67637715D01*
X71502786Y-67758028D01*
X71358028Y-67902786D01*
X71237715Y-68068386D01*
X71144781Y-68250776D01*
X71081522Y-68445465D01*
X71049500Y-68647648D01*
X71049500Y-68852351D01*
X71081522Y-69054534D01*
X71144781Y-69249223D01*
X71237715Y-69431613D01*
X71358028Y-69597213D01*
X71358034Y-69597219D01*
X71502781Y-69741966D01*
X71548384Y-69775098D01*
X71591050Y-69830425D01*
X71599500Y-69875416D01*
X71599500Y-70877368D01*
X71579815Y-70944407D01*
X71548386Y-70977686D01*
X71372488Y-71105484D01*
X71205485Y-71272487D01*
X71205485Y-71272488D01*
X71205483Y-71272490D01*
X71176611Y-71312229D01*
X71066657Y-71463566D01*
X70959433Y-71674003D01*
X70886446Y-71898631D01*
X70849500Y-72131902D01*
X69350500Y-72131902D01*
X69313553Y-71898631D01*
X69279689Y-71794412D01*
X69240568Y-71674008D01*
X69240566Y-71674005D01*
X69240566Y-71674003D01*
X69138040Y-71472786D01*
X69133343Y-71463567D01*
X68994517Y-71272490D01*
X68827510Y-71105483D01*
X68636433Y-70966657D01*
X68592765Y-70944407D01*
X68425996Y-70859433D01*
X68201368Y-70786446D01*
X67968097Y-70749500D01*
X67968092Y-70749500D01*
X67731908Y-70749500D01*
X67731903Y-70749500D01*
X67498631Y-70786446D01*
X67274003Y-70859433D01*
X67063566Y-70966657D01*
X66990835Y-71019500D01*
X66872490Y-71105483D01*
X66872488Y-71105485D01*
X66872487Y-71105485D01*
X66705485Y-71272487D01*
X66705485Y-71272488D01*
X66705483Y-71272490D01*
X66676611Y-71312229D01*
X66566657Y-71463566D01*
X66459433Y-71674003D01*
X66386446Y-71898631D01*
X66349500Y-72131902D01*
X54429467Y-72131902D01*
X54522014Y-72039355D01*
X55832947Y-70728421D01*
X55832948Y-70728420D01*
X55832952Y-70728416D01*
X55898265Y-70630666D01*
X55915084Y-70605495D01*
X55971658Y-70468913D01*
X55991648Y-70368420D01*
X56000500Y-70323920D01*
X56000500Y-66897648D01*
X88019500Y-66897648D01*
X88019500Y-67102351D01*
X88051522Y-67304534D01*
X88114781Y-67499223D01*
X88167328Y-67602351D01*
X88203320Y-67672989D01*
X88207715Y-67681613D01*
X88328028Y-67847213D01*
X88472786Y-67991971D01*
X88627749Y-68104556D01*
X88638390Y-68112287D01*
X88754607Y-68171503D01*
X88820776Y-68205218D01*
X88820778Y-68205218D01*
X88820781Y-68205220D01*
X88925137Y-68239127D01*
X89015465Y-68268477D01*
X89116557Y-68284488D01*
X89217648Y-68300500D01*
X89217649Y-68300500D01*
X89422351Y-68300500D01*
X89422352Y-68300500D01*
X89624534Y-68268477D01*
X89819219Y-68205220D01*
X90001610Y-68112287D01*
X90157231Y-67999223D01*
X90167213Y-67991971D01*
X90167215Y-67991968D01*
X90167219Y-67991966D01*
X90311966Y-67847219D01*
X90311968Y-67847215D01*
X90311971Y-67847213D01*
X90376762Y-67758034D01*
X90432287Y-67681610D01*
X90525220Y-67499219D01*
X90588477Y-67304534D01*
X90620500Y-67102352D01*
X90620500Y-66897648D01*
X98179500Y-66897648D01*
X98179500Y-67102351D01*
X98211522Y-67304534D01*
X98274781Y-67499223D01*
X98327328Y-67602351D01*
X98363320Y-67672989D01*
X98367715Y-67681613D01*
X98488028Y-67847213D01*
X98632786Y-67991971D01*
X98787749Y-68104556D01*
X98798390Y-68112287D01*
X98914607Y-68171503D01*
X98980776Y-68205218D01*
X98980778Y-68205218D01*
X98980781Y-68205220D01*
X99085137Y-68239127D01*
X99175465Y-68268477D01*
X99276557Y-68284488D01*
X99377648Y-68300500D01*
X99377649Y-68300500D01*
X99582351Y-68300500D01*
X99582352Y-68300500D01*
X99784534Y-68268477D01*
X99979219Y-68205220D01*
X100161610Y-68112287D01*
X100317231Y-67999223D01*
X100327213Y-67991971D01*
X100327215Y-67991968D01*
X100327219Y-67991966D01*
X100471966Y-67847219D01*
X100471968Y-67847215D01*
X100471971Y-67847213D01*
X100536762Y-67758034D01*
X100592287Y-67681610D01*
X100685220Y-67499219D01*
X100748477Y-67304534D01*
X100780500Y-67102352D01*
X100780500Y-66897648D01*
X100763325Y-66789211D01*
X100748477Y-66695465D01*
X100709344Y-66575028D01*
X100685220Y-66500781D01*
X100685218Y-66500778D01*
X100685218Y-66500776D01*
X100645816Y-66423446D01*
X100592287Y-66318390D01*
X100575134Y-66294781D01*
X100471971Y-66152786D01*
X100327213Y-66008028D01*
X100161613Y-65887715D01*
X100161612Y-65887714D01*
X100161610Y-65887713D01*
X100104653Y-65858691D01*
X99979223Y-65794781D01*
X99784534Y-65731522D01*
X99609995Y-65703878D01*
X99582352Y-65699500D01*
X99377648Y-65699500D01*
X99353329Y-65703351D01*
X99175465Y-65731522D01*
X98980776Y-65794781D01*
X98798386Y-65887715D01*
X98632786Y-66008028D01*
X98488028Y-66152786D01*
X98367715Y-66318386D01*
X98274781Y-66500776D01*
X98211522Y-66695465D01*
X98179500Y-66897648D01*
X90620500Y-66897648D01*
X90603325Y-66789211D01*
X90588477Y-66695465D01*
X90549344Y-66575028D01*
X90525220Y-66500781D01*
X90525218Y-66500778D01*
X90525218Y-66500776D01*
X90485816Y-66423446D01*
X90432287Y-66318390D01*
X90415134Y-66294781D01*
X90311971Y-66152786D01*
X90167213Y-66008028D01*
X90001613Y-65887715D01*
X90001612Y-65887714D01*
X90001610Y-65887713D01*
X89944653Y-65858691D01*
X89819223Y-65794781D01*
X89624534Y-65731522D01*
X89449995Y-65703878D01*
X89422352Y-65699500D01*
X89217648Y-65699500D01*
X89193329Y-65703351D01*
X89015465Y-65731522D01*
X88820776Y-65794781D01*
X88638386Y-65887715D01*
X88472786Y-66008028D01*
X88328028Y-66152786D01*
X88207715Y-66318386D01*
X88114781Y-66500776D01*
X88051522Y-66695465D01*
X88019500Y-66897648D01*
X56000500Y-66897648D01*
X56000500Y-62897648D01*
X58279500Y-62897648D01*
X58279500Y-63102351D01*
X58311522Y-63304534D01*
X58374781Y-63499223D01*
X58467715Y-63681613D01*
X58588028Y-63847213D01*
X58732786Y-63991971D01*
X58887749Y-64104556D01*
X58898390Y-64112287D01*
X59014607Y-64171503D01*
X59080776Y-64205218D01*
X59080778Y-64205218D01*
X59080781Y-64205220D01*
X59185137Y-64239127D01*
X59275465Y-64268477D01*
X59376557Y-64284488D01*
X59477648Y-64300500D01*
X59477649Y-64300500D01*
X59682351Y-64300500D01*
X59682352Y-64300500D01*
X59884534Y-64268477D01*
X60079219Y-64205220D01*
X60261610Y-64112287D01*
X60354590Y-64044732D01*
X60427213Y-63991971D01*
X60427215Y-63991968D01*
X60427219Y-63991966D01*
X60571966Y-63847219D01*
X60571968Y-63847215D01*
X60571971Y-63847213D01*
X60624732Y-63774590D01*
X60692287Y-63681610D01*
X60785220Y-63499219D01*
X60848477Y-63304534D01*
X60880500Y-63102352D01*
X60880500Y-62897648D01*
X60848477Y-62695466D01*
X60785220Y-62500781D01*
X60785218Y-62500778D01*
X60785218Y-62500776D01*
X60733301Y-62398884D01*
X60692287Y-62318390D01*
X60684556Y-62307749D01*
X60571971Y-62152786D01*
X60427213Y-62008028D01*
X60261613Y-61887715D01*
X60261612Y-61887714D01*
X60261610Y-61887713D01*
X60204653Y-61858691D01*
X60079223Y-61794781D01*
X59884534Y-61731522D01*
X59709995Y-61703878D01*
X59682352Y-61699500D01*
X59477648Y-61699500D01*
X59453329Y-61703351D01*
X59275465Y-61731522D01*
X59080776Y-61794781D01*
X58898386Y-61887715D01*
X58732786Y-62008028D01*
X58588028Y-62152786D01*
X58467715Y-62318386D01*
X58374781Y-62500776D01*
X58311522Y-62695465D01*
X58279500Y-62897648D01*
X56000500Y-62897648D01*
X56000500Y-57897648D01*
X56859500Y-57897648D01*
X56859500Y-58102351D01*
X56891522Y-58304534D01*
X56954781Y-58499223D01*
X56998530Y-58585084D01*
X57046357Y-58678949D01*
X57047715Y-58681613D01*
X57168028Y-58847213D01*
X57312786Y-58991971D01*
X57467749Y-59104556D01*
X57478390Y-59112287D01*
X57574591Y-59161304D01*
X57660776Y-59205218D01*
X57660778Y-59205218D01*
X57660781Y-59205220D01*
X57765137Y-59239127D01*
X57855465Y-59268477D01*
X57956557Y-59284488D01*
X58057648Y-59300500D01*
X58057649Y-59300500D01*
X58262351Y-59300500D01*
X58262352Y-59300500D01*
X58464534Y-59268477D01*
X58659219Y-59205220D01*
X58841610Y-59112287D01*
X58934590Y-59044732D01*
X59007213Y-58991971D01*
X59007215Y-58991968D01*
X59007219Y-58991966D01*
X59151966Y-58847219D01*
X59151968Y-58847215D01*
X59151971Y-58847213D01*
X59238561Y-58728030D01*
X59272287Y-58681610D01*
X59365220Y-58499219D01*
X59428477Y-58304534D01*
X59460500Y-58102352D01*
X59460500Y-57902135D01*
X65889500Y-57902135D01*
X65889500Y-59497870D01*
X65889501Y-59497876D01*
X65895908Y-59557483D01*
X65946202Y-59692328D01*
X65946206Y-59692335D01*
X66032452Y-59807544D01*
X66032455Y-59807547D01*
X66147664Y-59893793D01*
X66147671Y-59893797D01*
X66282517Y-59944091D01*
X66282516Y-59944091D01*
X66289444Y-59944835D01*
X66342127Y-59950500D01*
X66405733Y-59950499D01*
X66472770Y-59970183D01*
X66518526Y-60022986D01*
X66528470Y-60092144D01*
X66499446Y-60155700D01*
X66478619Y-60174816D01*
X66325354Y-60286171D01*
X66186174Y-60425351D01*
X66186174Y-60425352D01*
X66186172Y-60425354D01*
X66161861Y-60458815D01*
X66070476Y-60584594D01*
X65981117Y-60759970D01*
X65920290Y-60947173D01*
X65889500Y-61141577D01*
X65889500Y-61338422D01*
X65920290Y-61532826D01*
X65981117Y-61720029D01*
X66042493Y-61840485D01*
X66070476Y-61895405D01*
X66186172Y-62054646D01*
X66325354Y-62193828D01*
X66484595Y-62309524D01*
X66501996Y-62318390D01*
X66659970Y-62398882D01*
X66659972Y-62398882D01*
X66659975Y-62398884D01*
X66760317Y-62431487D01*
X66847173Y-62459709D01*
X67041578Y-62490500D01*
X67041583Y-62490500D01*
X67238422Y-62490500D01*
X67432826Y-62459709D01*
X67620025Y-62398884D01*
X67795405Y-62309524D01*
X67954646Y-62193828D01*
X68093828Y-62054646D01*
X68209524Y-61895405D01*
X68298884Y-61720025D01*
X68359709Y-61532826D01*
X68372516Y-61451966D01*
X68390500Y-61338422D01*
X68390500Y-61141577D01*
X68359709Y-60947173D01*
X68331487Y-60860317D01*
X68298884Y-60759975D01*
X68298882Y-60759972D01*
X68298882Y-60759970D01*
X68232998Y-60630666D01*
X68209524Y-60584595D01*
X68093828Y-60425354D01*
X67954646Y-60286172D01*
X67801377Y-60174815D01*
X67758714Y-60119487D01*
X67752735Y-60049873D01*
X67785341Y-59988078D01*
X67846180Y-59953721D01*
X67874264Y-59950499D01*
X67937872Y-59950499D01*
X67997483Y-59944091D01*
X68132331Y-59893796D01*
X68247546Y-59807546D01*
X68333796Y-59692331D01*
X68384091Y-59557483D01*
X68390500Y-59497873D01*
X68390499Y-57902128D01*
X68385299Y-57853757D01*
X68384091Y-57842516D01*
X68333797Y-57707671D01*
X68333793Y-57707664D01*
X68247547Y-57592455D01*
X68247544Y-57592452D01*
X68132335Y-57506206D01*
X68132328Y-57506202D01*
X67997482Y-57455908D01*
X67997483Y-57455908D01*
X67937883Y-57449501D01*
X67937881Y-57449500D01*
X67937873Y-57449500D01*
X67937864Y-57449500D01*
X66342129Y-57449500D01*
X66342123Y-57449501D01*
X66282516Y-57455908D01*
X66147671Y-57506202D01*
X66147664Y-57506206D01*
X66032455Y-57592452D01*
X66032452Y-57592455D01*
X65946206Y-57707664D01*
X65946202Y-57707671D01*
X65895908Y-57842517D01*
X65889501Y-57902116D01*
X65889501Y-57902123D01*
X65889500Y-57902135D01*
X59460500Y-57902135D01*
X59460500Y-57897648D01*
X59429072Y-57699223D01*
X59428477Y-57695465D01*
X59395006Y-57592452D01*
X59365220Y-57500781D01*
X59365218Y-57500778D01*
X59365218Y-57500776D01*
X59272287Y-57318390D01*
X59161324Y-57165661D01*
X59161323Y-57165660D01*
X59151967Y-57152782D01*
X59096833Y-57097648D01*
X82699500Y-57097648D01*
X82699500Y-57302351D01*
X82731522Y-57504534D01*
X82794781Y-57699223D01*
X82887715Y-57881613D01*
X83008028Y-58047213D01*
X83152786Y-58191971D01*
X83258090Y-58268477D01*
X83318390Y-58312287D01*
X83420544Y-58364337D01*
X83500776Y-58405218D01*
X83500778Y-58405218D01*
X83500781Y-58405220D01*
X83605137Y-58439127D01*
X83695465Y-58468477D01*
X83788933Y-58483281D01*
X83897648Y-58500500D01*
X83897649Y-58500500D01*
X84102351Y-58500500D01*
X84102352Y-58500500D01*
X84304534Y-58468477D01*
X84499219Y-58405220D01*
X84681610Y-58312287D01*
X84802393Y-58224534D01*
X84847213Y-58191971D01*
X84847215Y-58191968D01*
X84847219Y-58191966D01*
X84991966Y-58047219D01*
X84991968Y-58047215D01*
X84991971Y-58047213D01*
X85044732Y-57974590D01*
X85112287Y-57881610D01*
X85205220Y-57699219D01*
X85268477Y-57504534D01*
X85300500Y-57302352D01*
X85300500Y-57097648D01*
X85273635Y-56928034D01*
X85268477Y-56895465D01*
X85216350Y-56735036D01*
X85205220Y-56700781D01*
X85205218Y-56700778D01*
X85205218Y-56700776D01*
X85171503Y-56634607D01*
X85112287Y-56518390D01*
X85093320Y-56492284D01*
X84991971Y-56352786D01*
X84847213Y-56208028D01*
X84681613Y-56087715D01*
X84681612Y-56087714D01*
X84681610Y-56087713D01*
X84624653Y-56058691D01*
X84499223Y-55994781D01*
X84304534Y-55931522D01*
X84129995Y-55903878D01*
X84102352Y-55899500D01*
X83897648Y-55899500D01*
X83873329Y-55903351D01*
X83695465Y-55931522D01*
X83500776Y-55994781D01*
X83318386Y-56087715D01*
X83152786Y-56208028D01*
X83008028Y-56352786D01*
X82887715Y-56518386D01*
X82794781Y-56700776D01*
X82731522Y-56895465D01*
X82699500Y-57097648D01*
X59096833Y-57097648D01*
X59007213Y-57008028D01*
X58841613Y-56887715D01*
X58841612Y-56887714D01*
X58841610Y-56887713D01*
X58784653Y-56858691D01*
X58659223Y-56794781D01*
X58464534Y-56731522D01*
X58289995Y-56703878D01*
X58262352Y-56699500D01*
X58057648Y-56699500D01*
X58033329Y-56703351D01*
X57855465Y-56731522D01*
X57660776Y-56794781D01*
X57478386Y-56887715D01*
X57312786Y-57008028D01*
X57168028Y-57152786D01*
X57047715Y-57318386D01*
X56954781Y-57500776D01*
X56891522Y-57695465D01*
X56859500Y-57897648D01*
X56000500Y-57897648D01*
X56000500Y-53408313D01*
X55992883Y-53370023D01*
X55990500Y-53345830D01*
X55990500Y-46889527D01*
X56010185Y-46822488D01*
X56014182Y-46816642D01*
X56062236Y-46750500D01*
X56112287Y-46681610D01*
X56205220Y-46499219D01*
X56268477Y-46304534D01*
X56300500Y-46102352D01*
X56300500Y-45897648D01*
X56295625Y-45866869D01*
X56268477Y-45695465D01*
X56205218Y-45500776D01*
X56171503Y-45434607D01*
X56112287Y-45318390D01*
X56106417Y-45310311D01*
X56060700Y-45247385D01*
X56037220Y-45181579D01*
X56053046Y-45113525D01*
X56103152Y-45064830D01*
X56161018Y-45050500D01*
X58437770Y-45050500D01*
X58504809Y-45070185D01*
X58525451Y-45086819D01*
X60163181Y-46724548D01*
X60196666Y-46785871D01*
X60199500Y-46812229D01*
X60199500Y-50863918D01*
X60199500Y-50863920D01*
X60199499Y-50863920D01*
X60228340Y-51008907D01*
X60228343Y-51008917D01*
X60284913Y-51145490D01*
X60284916Y-51145495D01*
X60295377Y-51161150D01*
X60295378Y-51161155D01*
X60295380Y-51161155D01*
X60367051Y-51268420D01*
X60367052Y-51268421D01*
X62833526Y-53734893D01*
X62867011Y-53796216D01*
X62868318Y-53841971D01*
X62859500Y-53897648D01*
X62859500Y-54102352D01*
X62860953Y-54111523D01*
X62891522Y-54304534D01*
X62954781Y-54499223D01*
X63047715Y-54681613D01*
X63168028Y-54847213D01*
X63312786Y-54991971D01*
X63438016Y-55082954D01*
X63478390Y-55112287D01*
X63582002Y-55165080D01*
X63660776Y-55205218D01*
X63660778Y-55205218D01*
X63660781Y-55205220D01*
X63765137Y-55239127D01*
X63855465Y-55268477D01*
X63873914Y-55271399D01*
X64057648Y-55300500D01*
X64057649Y-55300500D01*
X64262351Y-55300500D01*
X64262352Y-55300500D01*
X64464534Y-55268477D01*
X64659219Y-55205220D01*
X64841610Y-55112287D01*
X64997231Y-54999223D01*
X65007213Y-54991971D01*
X65007215Y-54991968D01*
X65007219Y-54991966D01*
X65151966Y-54847219D01*
X65154650Y-54843524D01*
X65185100Y-54801615D01*
X65240429Y-54758949D01*
X65285418Y-54750500D01*
X70748920Y-54750500D01*
X70846462Y-54731096D01*
X70893913Y-54721658D01*
X71030495Y-54665084D01*
X71079729Y-54632186D01*
X71153416Y-54582952D01*
X74636385Y-51099982D01*
X75729500Y-51099982D01*
X75729500Y-52900017D01*
X75740000Y-53002796D01*
X75795185Y-53169332D01*
X75795187Y-53169337D01*
X75800410Y-53177805D01*
X75887288Y-53318656D01*
X76011344Y-53442712D01*
X76160665Y-53534814D01*
X76327202Y-53589999D01*
X76429990Y-53600500D01*
X76429995Y-53600500D01*
X78230005Y-53600500D01*
X78230010Y-53600500D01*
X78332798Y-53589999D01*
X78499335Y-53534814D01*
X78648656Y-53442712D01*
X78772712Y-53318656D01*
X78864814Y-53169335D01*
X78919999Y-53002798D01*
X78925395Y-52949983D01*
X89749500Y-52949983D01*
X89749500Y-54550001D01*
X89749501Y-54550018D01*
X89760000Y-54652796D01*
X89760001Y-54652799D01*
X89815185Y-54819331D01*
X89815187Y-54819336D01*
X89845497Y-54868477D01*
X89907288Y-54968656D01*
X90031344Y-55092712D01*
X90180666Y-55184814D01*
X90347203Y-55239999D01*
X90449991Y-55250500D01*
X92050008Y-55250499D01*
X92152797Y-55239999D01*
X92319334Y-55184814D01*
X92468656Y-55092712D01*
X92592712Y-54968656D01*
X92684814Y-54819334D01*
X92739999Y-54652797D01*
X92750500Y-54550009D01*
X92750499Y-52949992D01*
X92749092Y-52936223D01*
X92739999Y-52847203D01*
X92739998Y-52847200D01*
X92722628Y-52794781D01*
X92684814Y-52680666D01*
X92592712Y-52531344D01*
X92468656Y-52407288D01*
X92319334Y-52315186D01*
X92152797Y-52260001D01*
X92152795Y-52260000D01*
X92050010Y-52249500D01*
X90449998Y-52249500D01*
X90449981Y-52249501D01*
X90347203Y-52260000D01*
X90347200Y-52260001D01*
X90180668Y-52315185D01*
X90180663Y-52315187D01*
X90031342Y-52407289D01*
X89907289Y-52531342D01*
X89815187Y-52680663D01*
X89815185Y-52680668D01*
X89791289Y-52752781D01*
X89760001Y-52847203D01*
X89760001Y-52847204D01*
X89760000Y-52847204D01*
X89749500Y-52949983D01*
X78925395Y-52949983D01*
X78930500Y-52900010D01*
X78930500Y-51099990D01*
X78919999Y-50997202D01*
X78864814Y-50830665D01*
X78772712Y-50681344D01*
X78648656Y-50557288D01*
X78499335Y-50465186D01*
X78332798Y-50410001D01*
X78332796Y-50410000D01*
X78230017Y-50399500D01*
X78230010Y-50399500D01*
X76429990Y-50399500D01*
X76429982Y-50399500D01*
X76327203Y-50410000D01*
X76327202Y-50410001D01*
X76297655Y-50419792D01*
X76160667Y-50465185D01*
X76160662Y-50465187D01*
X76011342Y-50557289D01*
X75887289Y-50681342D01*
X75795187Y-50830662D01*
X75795186Y-50830665D01*
X75740001Y-50997202D01*
X75740001Y-50997203D01*
X75740000Y-50997203D01*
X75729500Y-51099982D01*
X74636385Y-51099982D01*
X77909548Y-47826818D01*
X77970871Y-47793334D01*
X77997229Y-47790500D01*
X82874582Y-47790500D01*
X82941621Y-47810185D01*
X82974900Y-47841615D01*
X83008028Y-47887212D01*
X83008032Y-47887217D01*
X83152786Y-48031971D01*
X83235872Y-48092335D01*
X83318390Y-48152287D01*
X83409198Y-48198556D01*
X83500776Y-48245218D01*
X83500778Y-48245218D01*
X83500781Y-48245220D01*
X83560710Y-48264692D01*
X83695465Y-48308477D01*
X83796557Y-48324488D01*
X83897648Y-48340500D01*
X83897649Y-48340500D01*
X84102351Y-48340500D01*
X84102352Y-48340500D01*
X84304534Y-48308477D01*
X84499219Y-48245220D01*
X84681610Y-48152287D01*
X84829581Y-48044781D01*
X84847213Y-48031971D01*
X84847215Y-48031968D01*
X84847219Y-48031966D01*
X84991966Y-47887219D01*
X84991968Y-47887215D01*
X84991971Y-47887213D01*
X85062236Y-47790500D01*
X85112287Y-47721610D01*
X85205220Y-47539219D01*
X85268477Y-47344534D01*
X85300500Y-47142352D01*
X85300500Y-46937648D01*
X85278384Y-46798013D01*
X85268477Y-46735465D01*
X85205218Y-46540776D01*
X85162556Y-46457048D01*
X85112287Y-46358390D01*
X85104556Y-46347749D01*
X84991971Y-46192786D01*
X84847213Y-46048028D01*
X84681613Y-45927715D01*
X84681612Y-45927714D01*
X84681610Y-45927713D01*
X84622604Y-45897648D01*
X84499223Y-45834781D01*
X84304534Y-45771522D01*
X84129995Y-45743878D01*
X84102352Y-45739500D01*
X83897648Y-45739500D01*
X83873329Y-45743351D01*
X83695465Y-45771522D01*
X83500776Y-45834781D01*
X83318386Y-45927715D01*
X83152786Y-46048028D01*
X83008032Y-46192782D01*
X83008028Y-46192787D01*
X82974900Y-46238385D01*
X82919571Y-46281051D01*
X82874582Y-46289500D01*
X77561080Y-46289500D01*
X77416092Y-46318340D01*
X77416082Y-46318343D01*
X77279511Y-46374912D01*
X77279498Y-46374919D01*
X77156584Y-46457048D01*
X77156580Y-46457051D01*
X70400451Y-53213181D01*
X70339128Y-53246666D01*
X70312770Y-53249500D01*
X68483108Y-53249500D01*
X68416069Y-53229815D01*
X68370314Y-53177011D01*
X68360370Y-53107853D01*
X68388045Y-53046681D01*
X68387930Y-53046598D01*
X68388336Y-53046038D01*
X68388825Y-53044959D01*
X68390779Y-53042669D01*
X68390793Y-53042656D01*
X68538870Y-52838845D01*
X68653241Y-52614379D01*
X68731090Y-52374785D01*
X68770500Y-52125962D01*
X68770500Y-51874038D01*
X68731090Y-51625215D01*
X68653241Y-51385621D01*
X68653239Y-51385618D01*
X68653239Y-51385616D01*
X68538867Y-51161150D01*
X68390798Y-50957350D01*
X68390794Y-50957345D01*
X68212654Y-50779205D01*
X68212649Y-50779201D01*
X68008848Y-50631132D01*
X68008847Y-50631131D01*
X68008845Y-50631130D01*
X67938747Y-50595413D01*
X67784383Y-50516760D01*
X67544785Y-50438910D01*
X67474450Y-50427770D01*
X67295962Y-50399500D01*
X67044038Y-50399500D01*
X66977738Y-50410001D01*
X66795214Y-50438910D01*
X66555616Y-50516760D01*
X66331151Y-50631132D01*
X66127350Y-50779201D01*
X66127345Y-50779205D01*
X65949205Y-50957345D01*
X65949201Y-50957350D01*
X65801133Y-51161150D01*
X65686760Y-51385616D01*
X65608910Y-51625214D01*
X65569500Y-51874038D01*
X65569500Y-52125961D01*
X65608910Y-52374785D01*
X65686760Y-52614383D01*
X65724265Y-52687989D01*
X65794305Y-52825451D01*
X65801132Y-52838848D01*
X65949196Y-53042642D01*
X65949201Y-53042648D01*
X65949207Y-53042656D01*
X65949213Y-53042662D01*
X65951175Y-53044959D01*
X65951651Y-53046021D01*
X65952070Y-53046598D01*
X65951948Y-53046685D01*
X65979751Y-53108718D01*
X65969321Y-53177805D01*
X65923195Y-53230285D01*
X65856892Y-53249500D01*
X65285418Y-53249500D01*
X65218379Y-53229815D01*
X65185100Y-53198385D01*
X65151971Y-53152787D01*
X65151967Y-53152782D01*
X65007213Y-53008028D01*
X64841613Y-52887715D01*
X64841612Y-52887714D01*
X64841610Y-52887713D01*
X64762099Y-52847200D01*
X64659223Y-52794781D01*
X64464534Y-52731522D01*
X64289995Y-52703878D01*
X64262352Y-52699500D01*
X64057648Y-52699500D01*
X64001971Y-52708318D01*
X63932678Y-52699363D01*
X63894893Y-52673526D01*
X61736819Y-50515451D01*
X61703334Y-50454128D01*
X61700500Y-50427770D01*
X61700500Y-46376079D01*
X61671659Y-46231092D01*
X61671658Y-46231091D01*
X61671658Y-46231087D01*
X61625731Y-46120208D01*
X61615087Y-46094511D01*
X61615080Y-46094498D01*
X61534506Y-45973911D01*
X61534505Y-45973910D01*
X61532951Y-45971584D01*
X61459015Y-45897648D01*
X63859500Y-45897648D01*
X63859500Y-46102351D01*
X63891522Y-46304534D01*
X63954781Y-46499223D01*
X64047715Y-46681613D01*
X64168028Y-46847213D01*
X64312786Y-46991971D01*
X64447801Y-47090063D01*
X64478390Y-47112287D01*
X64552408Y-47150001D01*
X64660776Y-47205218D01*
X64660778Y-47205218D01*
X64660781Y-47205220D01*
X64765137Y-47239127D01*
X64855465Y-47268477D01*
X64956557Y-47284488D01*
X65057648Y-47300500D01*
X65057649Y-47300500D01*
X65262351Y-47300500D01*
X65262352Y-47300500D01*
X65464534Y-47268477D01*
X65659219Y-47205220D01*
X65841610Y-47112287D01*
X65934590Y-47044732D01*
X66007213Y-46991971D01*
X66007215Y-46991968D01*
X66007219Y-46991966D01*
X66151966Y-46847219D01*
X66151966Y-46847218D01*
X66151969Y-46847216D01*
X66151971Y-46847213D01*
X66222236Y-46750500D01*
X66272287Y-46681610D01*
X66365220Y-46499219D01*
X66428477Y-46304534D01*
X66460500Y-46102352D01*
X66460500Y-45897648D01*
X66455625Y-45866869D01*
X66428477Y-45695465D01*
X66365218Y-45500776D01*
X66331503Y-45434607D01*
X66272287Y-45318390D01*
X66222236Y-45249500D01*
X66151971Y-45152786D01*
X66007213Y-45008028D01*
X65841613Y-44887715D01*
X65841612Y-44887714D01*
X65841610Y-44887713D01*
X65766050Y-44849213D01*
X65659223Y-44794781D01*
X65464534Y-44731522D01*
X65286476Y-44703321D01*
X65262352Y-44699500D01*
X65057648Y-44699500D01*
X65033524Y-44703321D01*
X64855465Y-44731522D01*
X64660776Y-44794781D01*
X64478386Y-44887715D01*
X64312786Y-45008028D01*
X64168028Y-45152786D01*
X64047715Y-45318386D01*
X63954781Y-45500776D01*
X63891522Y-45695465D01*
X63859500Y-45897648D01*
X61459015Y-45897648D01*
X61428416Y-45867049D01*
X61062143Y-45500776D01*
X59278421Y-43717052D01*
X59278414Y-43717046D01*
X59204729Y-43667812D01*
X59204729Y-43667813D01*
X59155491Y-43634913D01*
X59018917Y-43578343D01*
X59018907Y-43578340D01*
X58873920Y-43549500D01*
X58873918Y-43549500D01*
X55645270Y-43549500D01*
X55578231Y-43529815D01*
X55576378Y-43528601D01*
X55536552Y-43501989D01*
X55536547Y-43501987D01*
X55372667Y-43434106D01*
X55372658Y-43434103D01*
X55198694Y-43399500D01*
X55198691Y-43399500D01*
X55021309Y-43399500D01*
X55021306Y-43399500D01*
X54847341Y-43434103D01*
X54847332Y-43434106D01*
X54683459Y-43501983D01*
X54683446Y-43501990D01*
X54535965Y-43600535D01*
X54535961Y-43600538D01*
X54410538Y-43725961D01*
X54410535Y-43725965D01*
X54311990Y-43873446D01*
X54311983Y-43873459D01*
X54244106Y-44037332D01*
X54244103Y-44037341D01*
X54209500Y-44211304D01*
X54209500Y-44388695D01*
X54244103Y-44562658D01*
X54244106Y-44562667D01*
X54311987Y-44726547D01*
X54311988Y-44726549D01*
X54320336Y-44739043D01*
X54341214Y-44805720D01*
X54322730Y-44873100D01*
X54290119Y-44908252D01*
X54152786Y-45008028D01*
X54008028Y-45152786D01*
X53887715Y-45318386D01*
X53794781Y-45500776D01*
X53731522Y-45695465D01*
X53699500Y-45897648D01*
X53699500Y-46102351D01*
X53731522Y-46304534D01*
X53794781Y-46499223D01*
X53887715Y-46681613D01*
X54008028Y-46847213D01*
X54152786Y-46991971D01*
X54318385Y-47112284D01*
X54318387Y-47112285D01*
X54318390Y-47112287D01*
X54421796Y-47164975D01*
X54472591Y-47212948D01*
X54489500Y-47275459D01*
X54489500Y-52620950D01*
X54469815Y-52687989D01*
X54417011Y-52733744D01*
X54347853Y-52743688D01*
X54327182Y-52738881D01*
X54304537Y-52731523D01*
X54152897Y-52707505D01*
X54102352Y-52699500D01*
X53897648Y-52699500D01*
X53873329Y-52703351D01*
X53695465Y-52731522D01*
X53500776Y-52794781D01*
X53318386Y-52887715D01*
X53152786Y-53008028D01*
X53008028Y-53152786D01*
X52887715Y-53318386D01*
X52794781Y-53500776D01*
X52731522Y-53695465D01*
X52699500Y-53897647D01*
X52699500Y-53897648D01*
X52699500Y-54102352D01*
X52700953Y-54111523D01*
X52731522Y-54304534D01*
X52794781Y-54499223D01*
X52887715Y-54681613D01*
X53008028Y-54847213D01*
X53152786Y-54991971D01*
X53278016Y-55082954D01*
X53318390Y-55112287D01*
X53422002Y-55165080D01*
X53500776Y-55205218D01*
X53500778Y-55205218D01*
X53500781Y-55205220D01*
X53605137Y-55239127D01*
X53695465Y-55268477D01*
X53713914Y-55271399D01*
X53897648Y-55300500D01*
X53897649Y-55300500D01*
X54102351Y-55300500D01*
X54102352Y-55300500D01*
X54304534Y-55268477D01*
X54304539Y-55268475D01*
X54304541Y-55268475D01*
X54337180Y-55257870D01*
X54407021Y-55255873D01*
X54466855Y-55291953D01*
X54497684Y-55354653D01*
X54499500Y-55375800D01*
X54499500Y-69887770D01*
X54479815Y-69954809D01*
X54463181Y-69975451D01*
X52762181Y-71676451D01*
X52700858Y-71709936D01*
X52631166Y-71704952D01*
X52575233Y-71663080D01*
X52550816Y-71597616D01*
X52550500Y-71588770D01*
X52550500Y-59476082D01*
X52544219Y-59444508D01*
X52541647Y-59431577D01*
X52541647Y-59383196D01*
X52550500Y-59338691D01*
X52550500Y-59161309D01*
X52550500Y-59161306D01*
X52550499Y-59161304D01*
X52515896Y-58987341D01*
X52515893Y-58987332D01*
X52448016Y-58823459D01*
X52448009Y-58823446D01*
X52349464Y-58675965D01*
X52349461Y-58675961D01*
X52224038Y-58550538D01*
X52224034Y-58550535D01*
X52076553Y-58451990D01*
X52076540Y-58451983D01*
X51912667Y-58384106D01*
X51912658Y-58384103D01*
X51738694Y-58349500D01*
X51738691Y-58349500D01*
X51561309Y-58349500D01*
X51561306Y-58349500D01*
X51387341Y-58384103D01*
X51387332Y-58384106D01*
X51223459Y-58451983D01*
X51223446Y-58451990D01*
X51075965Y-58550535D01*
X51075961Y-58550538D01*
X50950538Y-58675961D01*
X50950535Y-58675965D01*
X50851990Y-58823446D01*
X50851983Y-58823459D01*
X50784106Y-58987332D01*
X50784103Y-58987341D01*
X50749500Y-59161304D01*
X50749500Y-59338695D01*
X50784103Y-59512658D01*
X50784106Y-59512667D01*
X50851983Y-59676540D01*
X50851990Y-59676553D01*
X50950534Y-59824033D01*
X50950535Y-59824034D01*
X50950536Y-59824035D01*
X51013182Y-59886681D01*
X51046666Y-59948002D01*
X51049500Y-59974361D01*
X51049500Y-64863981D01*
X51029815Y-64931020D01*
X50977011Y-64976775D01*
X50907853Y-64986719D01*
X50852616Y-64964300D01*
X50781612Y-64912714D01*
X50599223Y-64819781D01*
X50404534Y-64756522D01*
X50229995Y-64728878D01*
X50202352Y-64724500D01*
X49997648Y-64724500D01*
X49973329Y-64728351D01*
X49795465Y-64756522D01*
X49600776Y-64819781D01*
X49418386Y-64912715D01*
X49252786Y-65033028D01*
X49108028Y-65177786D01*
X48987715Y-65343386D01*
X48894781Y-65525776D01*
X48831522Y-65720465D01*
X48799500Y-65922648D01*
X48799500Y-66008723D01*
X48779815Y-66075762D01*
X48727011Y-66121517D01*
X48657853Y-66131461D01*
X48594297Y-66102436D01*
X48556523Y-66043658D01*
X48553027Y-66028122D01*
X48549844Y-66008028D01*
X48549709Y-66007174D01*
X48488884Y-65819975D01*
X48488882Y-65819972D01*
X48488882Y-65819970D01*
X48399523Y-65644594D01*
X48283828Y-65485354D01*
X48144646Y-65346172D01*
X47985405Y-65230476D01*
X47810029Y-65141117D01*
X47622826Y-65080290D01*
X47428422Y-65049500D01*
X47428417Y-65049500D01*
X47231583Y-65049500D01*
X47231578Y-65049500D01*
X47037173Y-65080290D01*
X46849970Y-65141117D01*
X46674594Y-65230476D01*
X46583741Y-65296485D01*
X46515354Y-65346172D01*
X46515352Y-65346174D01*
X46515351Y-65346174D01*
X46376174Y-65485351D01*
X46376174Y-65485352D01*
X46376172Y-65485354D01*
X46346804Y-65525776D01*
X46260476Y-65644594D01*
X46171117Y-65819970D01*
X46110290Y-66007173D01*
X46079500Y-66201577D01*
X46079500Y-66398422D01*
X46110290Y-66592826D01*
X46171117Y-66780029D01*
X46239728Y-66914685D01*
X46260476Y-66955405D01*
X46376172Y-67114646D01*
X46515354Y-67253828D01*
X46674595Y-67369524D01*
X46729792Y-67397648D01*
X46849970Y-67458882D01*
X46849972Y-67458882D01*
X46849975Y-67458884D01*
X46950317Y-67491487D01*
X47037173Y-67519709D01*
X47231578Y-67550500D01*
X47231583Y-67550500D01*
X47428422Y-67550500D01*
X47622826Y-67519709D01*
X47810025Y-67458884D01*
X47985405Y-67369524D01*
X48144646Y-67253828D01*
X48283828Y-67114646D01*
X48399524Y-66955405D01*
X48488884Y-66780025D01*
X48549709Y-66592826D01*
X48563140Y-66508028D01*
X48580500Y-66398422D01*
X48580500Y-66320205D01*
X48600185Y-66253166D01*
X48652989Y-66207411D01*
X48722147Y-66197467D01*
X48785703Y-66226492D01*
X48823477Y-66285270D01*
X48826973Y-66300807D01*
X48831523Y-66329534D01*
X48894781Y-66524223D01*
X48926942Y-66587341D01*
X48982034Y-66695465D01*
X48987715Y-66706613D01*
X49108028Y-66872213D01*
X49252786Y-67016971D01*
X49384491Y-67112658D01*
X49418390Y-67137287D01*
X49514030Y-67186018D01*
X49600776Y-67230218D01*
X49600778Y-67230218D01*
X49600781Y-67230220D01*
X49673430Y-67253825D01*
X49795465Y-67293477D01*
X49865276Y-67304534D01*
X49997648Y-67325500D01*
X49997649Y-67325500D01*
X50202351Y-67325500D01*
X50202352Y-67325500D01*
X50404534Y-67293477D01*
X50599219Y-67230220D01*
X50781610Y-67137287D01*
X50819150Y-67110012D01*
X50852615Y-67085700D01*
X50918421Y-67062220D01*
X50986475Y-67078046D01*
X51035170Y-67128152D01*
X51049500Y-67186018D01*
X51049500Y-72347819D01*
X51029815Y-72414858D01*
X51013181Y-72435500D01*
X47267050Y-76181630D01*
X47267044Y-76181638D01*
X47217812Y-76255318D01*
X47217813Y-76255319D01*
X47184921Y-76304546D01*
X47184914Y-76304558D01*
X47128342Y-76441136D01*
X47128340Y-76441142D01*
X47099500Y-76586129D01*
X47099500Y-84550053D01*
X47079815Y-84617092D01*
X47063181Y-84637734D01*
X44517734Y-87183181D01*
X44456411Y-87216666D01*
X44430053Y-87219500D01*
X39855684Y-87219500D01*
X39788645Y-87199815D01*
X39742890Y-87147011D01*
X39732946Y-87077853D01*
X39734067Y-87071309D01*
X39750499Y-86988695D01*
X39750500Y-86988693D01*
X39750500Y-86811306D01*
X39750499Y-86811304D01*
X39715896Y-86637341D01*
X39715893Y-86637332D01*
X39648013Y-86473453D01*
X39648011Y-86473451D01*
X39648011Y-86473449D01*
X39621398Y-86433620D01*
X39600520Y-86366942D01*
X39600500Y-86364729D01*
X39600500Y-69461229D01*
X39620185Y-69394190D01*
X39672989Y-69348435D01*
X39742147Y-69338491D01*
X39805703Y-69367516D01*
X39812167Y-69373535D01*
X40684125Y-70245492D01*
X41663181Y-71224548D01*
X41696666Y-71285871D01*
X41699500Y-71312229D01*
X41699500Y-72100001D01*
X41699501Y-72100019D01*
X41710000Y-72202796D01*
X41710001Y-72202799D01*
X41714922Y-72217648D01*
X41765186Y-72369334D01*
X41857288Y-72518656D01*
X41981344Y-72642712D01*
X42130666Y-72734814D01*
X42297203Y-72789999D01*
X42399991Y-72800500D01*
X43600008Y-72800499D01*
X43702797Y-72789999D01*
X43869334Y-72734814D01*
X44018656Y-72642712D01*
X44142712Y-72518656D01*
X44234814Y-72369334D01*
X44289999Y-72202797D01*
X44300500Y-72100009D01*
X44300499Y-70899992D01*
X44289999Y-70797203D01*
X44234814Y-70630666D01*
X44142712Y-70481344D01*
X44018656Y-70357288D01*
X43869334Y-70265186D01*
X43702797Y-70210001D01*
X43702795Y-70210000D01*
X43600016Y-70199500D01*
X43600009Y-70199500D01*
X42812229Y-70199500D01*
X42745190Y-70179815D01*
X42724548Y-70163181D01*
X41326098Y-68764730D01*
X41292613Y-68703407D01*
X41297597Y-68633715D01*
X41303295Y-68620753D01*
X41365217Y-68499225D01*
X41365218Y-68499223D01*
X41365220Y-68499219D01*
X41428477Y-68304534D01*
X41460500Y-68102352D01*
X41460500Y-67897648D01*
X41428477Y-67695466D01*
X41428476Y-67695463D01*
X41428228Y-67693897D01*
X41437182Y-67624604D01*
X41482178Y-67571152D01*
X41548930Y-67550512D01*
X41550573Y-67550499D01*
X43047872Y-67550499D01*
X43107483Y-67544091D01*
X43242331Y-67493796D01*
X43357546Y-67407546D01*
X43443796Y-67292331D01*
X43494091Y-67157483D01*
X43500500Y-67097873D01*
X43500499Y-65502128D01*
X43494091Y-65442517D01*
X43461425Y-65354936D01*
X43443797Y-65307671D01*
X43443793Y-65307664D01*
X43357547Y-65192455D01*
X43357544Y-65192452D01*
X43242335Y-65106206D01*
X43242328Y-65106202D01*
X43107482Y-65055908D01*
X43107483Y-65055908D01*
X43047883Y-65049501D01*
X43047881Y-65049500D01*
X43047873Y-65049500D01*
X43047865Y-65049500D01*
X42426178Y-65049500D01*
X42359139Y-65029815D01*
X42313384Y-64977011D01*
X42303440Y-64907853D01*
X42332465Y-64844297D01*
X42338497Y-64837819D01*
X44278668Y-62897648D01*
X48119500Y-62897648D01*
X48119500Y-63102351D01*
X48151522Y-63304534D01*
X48214781Y-63499223D01*
X48307715Y-63681613D01*
X48428028Y-63847213D01*
X48572786Y-63991971D01*
X48727749Y-64104556D01*
X48738390Y-64112287D01*
X48854607Y-64171503D01*
X48920776Y-64205218D01*
X48920778Y-64205218D01*
X48920781Y-64205220D01*
X49025137Y-64239127D01*
X49115465Y-64268477D01*
X49216557Y-64284488D01*
X49317648Y-64300500D01*
X49317649Y-64300500D01*
X49522351Y-64300500D01*
X49522352Y-64300500D01*
X49724534Y-64268477D01*
X49919219Y-64205220D01*
X50101610Y-64112287D01*
X50194590Y-64044732D01*
X50267213Y-63991971D01*
X50267215Y-63991968D01*
X50267219Y-63991966D01*
X50411966Y-63847219D01*
X50411968Y-63847215D01*
X50411971Y-63847213D01*
X50464732Y-63774590D01*
X50532287Y-63681610D01*
X50625220Y-63499219D01*
X50688477Y-63304534D01*
X50720500Y-63102352D01*
X50720500Y-62897648D01*
X50688477Y-62695466D01*
X50625220Y-62500781D01*
X50625218Y-62500778D01*
X50625218Y-62500776D01*
X50573301Y-62398884D01*
X50532287Y-62318390D01*
X50524556Y-62307749D01*
X50411971Y-62152786D01*
X50267213Y-62008028D01*
X50101613Y-61887715D01*
X50101612Y-61887714D01*
X50101610Y-61887713D01*
X50044653Y-61858691D01*
X49919223Y-61794781D01*
X49724534Y-61731522D01*
X49549995Y-61703878D01*
X49522352Y-61699500D01*
X49317648Y-61699500D01*
X49293329Y-61703351D01*
X49115465Y-61731522D01*
X48920776Y-61794781D01*
X48738386Y-61887715D01*
X48572786Y-62008028D01*
X48428028Y-62152786D01*
X48307715Y-62318386D01*
X48214781Y-62500776D01*
X48151522Y-62695465D01*
X48119500Y-62897648D01*
X44278668Y-62897648D01*
X44371221Y-62805095D01*
X47839496Y-59336819D01*
X47900819Y-59303334D01*
X47927177Y-59300500D01*
X48102351Y-59300500D01*
X48102352Y-59300500D01*
X48304534Y-59268477D01*
X48499219Y-59205220D01*
X48681610Y-59112287D01*
X48774590Y-59044732D01*
X48847213Y-58991971D01*
X48847215Y-58991968D01*
X48847219Y-58991966D01*
X48991966Y-58847219D01*
X48991968Y-58847215D01*
X48991971Y-58847213D01*
X49078561Y-58728030D01*
X49112287Y-58681610D01*
X49205220Y-58499219D01*
X49268477Y-58304534D01*
X49300500Y-58102352D01*
X49300500Y-57897648D01*
X49269072Y-57699223D01*
X49268477Y-57695465D01*
X49235006Y-57592452D01*
X49205220Y-57500781D01*
X49205218Y-57500778D01*
X49205218Y-57500776D01*
X49164455Y-57420776D01*
X49112287Y-57318390D01*
X49100634Y-57302351D01*
X48991971Y-57152786D01*
X48847213Y-57008028D01*
X48681613Y-56887715D01*
X48681612Y-56887714D01*
X48681610Y-56887713D01*
X48624653Y-56858691D01*
X48499223Y-56794781D01*
X48304534Y-56731522D01*
X48117849Y-56701954D01*
X48054714Y-56672025D01*
X48017783Y-56612713D01*
X48018781Y-56542850D01*
X48049564Y-56491803D01*
X48582952Y-55958416D01*
X48654666Y-55851086D01*
X48654668Y-55851084D01*
X48665081Y-55835499D01*
X48665084Y-55835495D01*
X48721658Y-55698913D01*
X48735404Y-55629809D01*
X48750500Y-55553920D01*
X48750500Y-54236229D01*
X48770185Y-54169190D01*
X48822989Y-54123435D01*
X48892147Y-54113491D01*
X48955703Y-54142516D01*
X48962181Y-54148548D01*
X49792049Y-54978416D01*
X49887667Y-55074034D01*
X49896585Y-55082952D01*
X50019498Y-55165080D01*
X50019511Y-55165087D01*
X50156082Y-55221656D01*
X50156087Y-55221658D01*
X50156091Y-55221658D01*
X50156092Y-55221659D01*
X50301079Y-55250500D01*
X50301082Y-55250500D01*
X50964730Y-55250500D01*
X51031769Y-55270185D01*
X51033622Y-55271399D01*
X51073447Y-55298010D01*
X51073450Y-55298011D01*
X51073453Y-55298013D01*
X51237334Y-55365894D01*
X51237336Y-55365894D01*
X51237341Y-55365896D01*
X51411304Y-55400499D01*
X51411307Y-55400500D01*
X51411309Y-55400500D01*
X51588693Y-55400500D01*
X51588694Y-55400499D01*
X51646682Y-55388964D01*
X51762658Y-55365896D01*
X51762661Y-55365894D01*
X51762666Y-55365894D01*
X51926547Y-55298013D01*
X52074035Y-55199464D01*
X52199464Y-55074035D01*
X52298013Y-54926547D01*
X52365894Y-54762666D01*
X52366634Y-54758949D01*
X52391848Y-54632186D01*
X52400500Y-54588691D01*
X52400500Y-54411309D01*
X52400500Y-54411306D01*
X52400499Y-54411304D01*
X52365896Y-54237341D01*
X52365893Y-54237332D01*
X52298016Y-54073459D01*
X52298009Y-54073446D01*
X52199464Y-53925965D01*
X52199461Y-53925961D01*
X52074038Y-53800538D01*
X52074034Y-53800535D01*
X51926553Y-53701990D01*
X51926540Y-53701983D01*
X51762667Y-53634106D01*
X51762658Y-53634103D01*
X51588694Y-53599500D01*
X51588691Y-53599500D01*
X51411309Y-53599500D01*
X51411306Y-53599500D01*
X51237341Y-53634103D01*
X51237332Y-53634106D01*
X51073452Y-53701987D01*
X51073447Y-53701989D01*
X51033622Y-53728601D01*
X50966945Y-53749480D01*
X50964730Y-53749500D01*
X50737229Y-53749500D01*
X50670190Y-53729815D01*
X50649548Y-53713181D01*
X49364022Y-52427655D01*
X49330537Y-52366332D01*
X49329230Y-52320576D01*
X49338824Y-52260001D01*
X49350500Y-52186287D01*
X49350500Y-51973713D01*
X49317246Y-51763757D01*
X49251557Y-51561588D01*
X49155051Y-51372184D01*
X49155049Y-51372181D01*
X49155048Y-51372179D01*
X49030109Y-51200213D01*
X48879786Y-51049890D01*
X48707820Y-50924951D01*
X48707115Y-50924591D01*
X48699054Y-50920485D01*
X48648259Y-50872512D01*
X48631463Y-50804692D01*
X48653999Y-50738556D01*
X48699054Y-50699515D01*
X48707816Y-50695051D01*
X48795794Y-50631132D01*
X48879786Y-50570109D01*
X48879788Y-50570106D01*
X48879792Y-50570104D01*
X49030104Y-50419792D01*
X49030106Y-50419788D01*
X49030109Y-50419786D01*
X49155048Y-50247820D01*
X49155047Y-50247820D01*
X49155051Y-50247816D01*
X49159514Y-50239054D01*
X49207488Y-50188259D01*
X49275308Y-50171463D01*
X49341444Y-50193999D01*
X49380484Y-50239054D01*
X49381971Y-50241971D01*
X49384951Y-50247820D01*
X49509890Y-50419786D01*
X49660213Y-50570109D01*
X49832179Y-50695048D01*
X49832181Y-50695049D01*
X49832184Y-50695051D01*
X50021588Y-50791557D01*
X50223757Y-50857246D01*
X50433713Y-50890500D01*
X50433714Y-50890500D01*
X50646286Y-50890500D01*
X50646287Y-50890500D01*
X50856243Y-50857246D01*
X51058412Y-50791557D01*
X51247816Y-50695051D01*
X51335794Y-50631132D01*
X51419786Y-50570109D01*
X51419788Y-50570106D01*
X51419792Y-50570104D01*
X51570104Y-50419792D01*
X51570106Y-50419788D01*
X51570109Y-50419786D01*
X51695048Y-50247820D01*
X51695047Y-50247820D01*
X51695051Y-50247816D01*
X51791557Y-50058412D01*
X51857246Y-49856243D01*
X51890500Y-49646287D01*
X51890500Y-49433713D01*
X51857246Y-49223757D01*
X51791557Y-49021588D01*
X51695051Y-48832184D01*
X51695049Y-48832181D01*
X51695048Y-48832179D01*
X51570109Y-48660213D01*
X51419786Y-48509890D01*
X51247820Y-48384951D01*
X51247115Y-48384591D01*
X51239054Y-48380485D01*
X51188259Y-48332512D01*
X51171463Y-48264692D01*
X51193999Y-48198556D01*
X51239054Y-48159515D01*
X51247816Y-48155051D01*
X51334138Y-48092335D01*
X51419786Y-48030109D01*
X51419788Y-48030106D01*
X51419792Y-48030104D01*
X51570104Y-47879792D01*
X51570106Y-47879788D01*
X51570109Y-47879786D01*
X51695048Y-47707820D01*
X51695047Y-47707820D01*
X51695051Y-47707816D01*
X51791557Y-47518412D01*
X51857246Y-47316243D01*
X51890500Y-47106287D01*
X51890500Y-46893713D01*
X51857246Y-46683757D01*
X51791557Y-46481588D01*
X51695051Y-46292184D01*
X51695049Y-46292181D01*
X51695048Y-46292179D01*
X51570109Y-46120213D01*
X51419786Y-45969890D01*
X51247820Y-45844951D01*
X51058414Y-45748444D01*
X51058413Y-45748443D01*
X51058412Y-45748443D01*
X50856243Y-45682754D01*
X50856241Y-45682753D01*
X50856240Y-45682753D01*
X50694957Y-45657208D01*
X50646287Y-45649500D01*
X50433713Y-45649500D01*
X50433708Y-45649500D01*
X50319108Y-45667651D01*
X50249815Y-45658697D01*
X50213191Y-45634006D01*
X49527723Y-44966341D01*
X49526562Y-44965195D01*
X49478416Y-44917049D01*
X49474498Y-44913833D01*
X49470711Y-44910808D01*
X49470705Y-44910804D01*
X49413478Y-44873646D01*
X49412149Y-44872770D01*
X49355501Y-44834919D01*
X49351051Y-44832541D01*
X49346717Y-44830297D01*
X49283394Y-44805038D01*
X49281887Y-44804425D01*
X49218913Y-44778342D01*
X49214057Y-44776869D01*
X49209408Y-44775526D01*
X49209400Y-44775524D01*
X49209399Y-44775524D01*
X49173603Y-44768892D01*
X49142385Y-44763108D01*
X49140783Y-44762800D01*
X49073922Y-44749500D01*
X49069066Y-44749022D01*
X49064042Y-44748593D01*
X49064037Y-44748593D01*
X49064031Y-44748593D01*
X48995940Y-44749489D01*
X48994309Y-44749500D01*
X46926080Y-44749500D01*
X46781092Y-44778340D01*
X46781086Y-44778342D01*
X46644508Y-44834914D01*
X46644496Y-44834921D01*
X46595269Y-44867813D01*
X46521588Y-44917044D01*
X46521580Y-44917050D01*
X44642047Y-46796584D01*
X44642045Y-46796586D01*
X44608218Y-46847216D01*
X44608216Y-46847219D01*
X44559919Y-46919499D01*
X44559912Y-46919511D01*
X44503343Y-47056082D01*
X44503340Y-47056092D01*
X44474500Y-47201079D01*
X44474500Y-52737770D01*
X44454815Y-52804809D01*
X44438181Y-52825451D01*
X43550451Y-53713181D01*
X43489128Y-53746666D01*
X43462770Y-53749500D01*
X43125418Y-53749500D01*
X43058379Y-53729815D01*
X43025100Y-53698385D01*
X42991971Y-53652787D01*
X42991967Y-53652782D01*
X42847213Y-53508028D01*
X42681613Y-53387715D01*
X42681612Y-53387714D01*
X42681610Y-53387713D01*
X42623377Y-53358042D01*
X42499223Y-53294781D01*
X42304534Y-53231522D01*
X42129995Y-53203878D01*
X42102352Y-53199500D01*
X41897648Y-53199500D01*
X41873329Y-53203351D01*
X41695465Y-53231522D01*
X41500776Y-53294781D01*
X41318386Y-53387715D01*
X41152786Y-53508028D01*
X41008028Y-53652786D01*
X40887715Y-53818386D01*
X40794781Y-54000776D01*
X40731522Y-54195465D01*
X40699500Y-54397648D01*
X40699500Y-54602351D01*
X40731522Y-54804534D01*
X40794781Y-54999223D01*
X40887715Y-55181613D01*
X41008028Y-55347213D01*
X41152786Y-55491971D01*
X41253216Y-55564936D01*
X41318390Y-55612287D01*
X41434607Y-55671503D01*
X41500776Y-55705218D01*
X41500778Y-55705218D01*
X41500781Y-55705220D01*
X41605137Y-55739127D01*
X41695465Y-55768477D01*
X41796557Y-55784488D01*
X41897648Y-55800500D01*
X41897649Y-55800500D01*
X42102351Y-55800500D01*
X42102352Y-55800500D01*
X42304534Y-55768477D01*
X42499219Y-55705220D01*
X42681610Y-55612287D01*
X42811276Y-55518080D01*
X42847213Y-55491971D01*
X42847215Y-55491968D01*
X42847219Y-55491966D01*
X42991966Y-55347219D01*
X42994650Y-55343524D01*
X43025100Y-55301615D01*
X43080429Y-55258949D01*
X43125418Y-55250500D01*
X43898920Y-55250500D01*
X43996462Y-55231096D01*
X44043913Y-55221658D01*
X44180495Y-55165084D01*
X44229729Y-55132186D01*
X44303416Y-55082952D01*
X44962819Y-54423549D01*
X45024142Y-54390064D01*
X45093834Y-54395048D01*
X45149767Y-54436920D01*
X45174184Y-54502384D01*
X45174500Y-54511230D01*
X45174500Y-55562770D01*
X45154815Y-55629809D01*
X45138181Y-55650451D01*
X43655451Y-57133181D01*
X43594128Y-57166666D01*
X43567770Y-57169500D01*
X39125418Y-57169500D01*
X39058379Y-57149815D01*
X39025100Y-57118385D01*
X38991971Y-57072787D01*
X38991967Y-57072782D01*
X38847213Y-56928028D01*
X38681614Y-56807715D01*
X38675006Y-56804348D01*
X38588917Y-56760483D01*
X38538123Y-56712511D01*
X38521328Y-56644690D01*
X38543865Y-56578555D01*
X38588917Y-56539516D01*
X38681610Y-56492287D01*
X38810482Y-56398657D01*
X38847213Y-56371971D01*
X38847215Y-56371968D01*
X38847219Y-56371966D01*
X38991966Y-56227219D01*
X38991968Y-56227215D01*
X38991971Y-56227213D01*
X39046048Y-56152781D01*
X39112287Y-56061610D01*
X39205220Y-55879219D01*
X39268477Y-55684534D01*
X39300500Y-55482352D01*
X39300500Y-55277648D01*
X39285289Y-55181610D01*
X39268477Y-55075465D01*
X39205218Y-54880776D01*
X39153865Y-54779991D01*
X39112287Y-54698390D01*
X39096892Y-54677200D01*
X38991971Y-54532786D01*
X38847213Y-54388028D01*
X38681613Y-54267715D01*
X38681612Y-54267714D01*
X38681610Y-54267713D01*
X38619819Y-54236229D01*
X38499223Y-54174781D01*
X38304534Y-54111522D01*
X38129995Y-54083878D01*
X38102352Y-54079500D01*
X37897648Y-54079500D01*
X37873329Y-54083351D01*
X37695465Y-54111522D01*
X37500776Y-54174781D01*
X37318386Y-54267715D01*
X37152786Y-54388028D01*
X37008028Y-54532786D01*
X36887715Y-54698386D01*
X36794781Y-54880776D01*
X36731522Y-55075465D01*
X36699500Y-55277648D01*
X36699500Y-55482351D01*
X36731522Y-55684534D01*
X36794781Y-55879223D01*
X36887715Y-56061613D01*
X37008028Y-56227213D01*
X37152786Y-56371971D01*
X37307749Y-56484556D01*
X37318390Y-56492287D01*
X37409840Y-56538883D01*
X37411080Y-56539515D01*
X37461876Y-56587490D01*
X37478671Y-56655311D01*
X37456134Y-56721446D01*
X37411080Y-56760485D01*
X37318386Y-56807715D01*
X37152786Y-56928028D01*
X37008028Y-57072786D01*
X36887715Y-57238386D01*
X36794781Y-57420776D01*
X36731522Y-57615465D01*
X36699500Y-57817648D01*
X36699500Y-58022351D01*
X36708318Y-58078026D01*
X36699363Y-58147320D01*
X36673526Y-58185105D01*
X29537181Y-65321451D01*
X29475858Y-65354936D01*
X29406166Y-65349952D01*
X29350233Y-65308080D01*
X29325816Y-65242616D01*
X29325500Y-65233770D01*
X29325500Y-62627228D01*
X29345185Y-62560189D01*
X29361815Y-62539551D01*
X30114894Y-61786471D01*
X30176215Y-61752988D01*
X30221970Y-61751681D01*
X30277648Y-61760500D01*
X30277649Y-61760500D01*
X30482351Y-61760500D01*
X30482352Y-61760500D01*
X30684534Y-61728477D01*
X30879219Y-61665220D01*
X31061610Y-61572287D01*
X31154590Y-61504732D01*
X31227213Y-61451971D01*
X31227215Y-61451968D01*
X31227219Y-61451966D01*
X31371966Y-61307219D01*
X31371968Y-61307215D01*
X31371971Y-61307213D01*
X31458862Y-61187616D01*
X31492287Y-61141610D01*
X31585220Y-60959219D01*
X31648477Y-60764534D01*
X31680500Y-60562352D01*
X31680500Y-60357648D01*
X31680443Y-60357288D01*
X31648477Y-60155465D01*
X31614168Y-60049873D01*
X31585220Y-59960781D01*
X31585218Y-59960778D01*
X31585218Y-59960776D01*
X31507143Y-59807547D01*
X31492287Y-59778390D01*
X31484556Y-59767749D01*
X31371971Y-59612786D01*
X31227213Y-59468028D01*
X31061614Y-59347715D01*
X30974511Y-59303334D01*
X30968917Y-59300483D01*
X30918123Y-59252511D01*
X30901328Y-59184690D01*
X30923865Y-59118555D01*
X30968917Y-59079516D01*
X31061610Y-59032287D01*
X31117108Y-58991966D01*
X31227213Y-58911971D01*
X31227215Y-58911968D01*
X31227219Y-58911966D01*
X31371966Y-58767219D01*
X31371968Y-58767215D01*
X31371971Y-58767213D01*
X31454428Y-58653719D01*
X31492287Y-58601610D01*
X31585220Y-58419219D01*
X31648477Y-58224534D01*
X31680500Y-58022352D01*
X31680500Y-57817648D01*
X31648477Y-57615466D01*
X31641000Y-57592455D01*
X31612433Y-57504534D01*
X31585220Y-57420781D01*
X31585218Y-57420778D01*
X31585218Y-57420776D01*
X31524877Y-57302352D01*
X31492287Y-57238390D01*
X31439447Y-57165661D01*
X31371971Y-57072786D01*
X31227219Y-56928034D01*
X31185396Y-56897648D01*
X31133547Y-56859978D01*
X31090882Y-56804649D01*
X31084903Y-56735036D01*
X31117508Y-56673240D01*
X31167426Y-56641955D01*
X31249334Y-56614814D01*
X31398656Y-56522712D01*
X31522712Y-56398656D01*
X31614814Y-56249334D01*
X31669999Y-56082797D01*
X31680500Y-55980009D01*
X31680499Y-54779992D01*
X31678349Y-54758949D01*
X31669999Y-54677203D01*
X31669998Y-54677200D01*
X31655082Y-54632186D01*
X31614814Y-54510666D01*
X31522712Y-54361344D01*
X31398656Y-54237288D01*
X31249334Y-54145186D01*
X31082797Y-54090001D01*
X31082795Y-54090000D01*
X30980010Y-54079500D01*
X29779998Y-54079500D01*
X29779981Y-54079501D01*
X29677203Y-54090000D01*
X29677200Y-54090001D01*
X29510668Y-54145185D01*
X29510663Y-54145187D01*
X29361342Y-54237289D01*
X29237289Y-54361342D01*
X29145187Y-54510663D01*
X29145185Y-54510668D01*
X29132146Y-54550018D01*
X29090001Y-54677203D01*
X29090001Y-54677204D01*
X29090000Y-54677204D01*
X29079500Y-54779983D01*
X29079500Y-55980001D01*
X29079501Y-55980018D01*
X29090000Y-56082796D01*
X29090003Y-56082807D01*
X29091227Y-56086501D01*
X29091309Y-56088912D01*
X29091419Y-56089422D01*
X29091328Y-56089441D01*
X29093627Y-56156329D01*
X29057893Y-56216369D01*
X28995371Y-56247560D01*
X28973520Y-56249500D01*
X28125418Y-56249500D01*
X28058379Y-56229815D01*
X28025100Y-56198385D01*
X27991971Y-56152787D01*
X27991967Y-56152782D01*
X27847217Y-56008032D01*
X27847212Y-56008028D01*
X27801615Y-55974900D01*
X27758949Y-55919571D01*
X27750500Y-55874582D01*
X27750500Y-50219047D01*
X27770185Y-50152008D01*
X27822989Y-50106253D01*
X27892147Y-50096309D01*
X27955703Y-50125334D01*
X27962181Y-50131366D01*
X28072786Y-50241971D01*
X28180120Y-50319952D01*
X28238390Y-50362287D01*
X28311425Y-50399500D01*
X28420776Y-50455218D01*
X28420778Y-50455218D01*
X28420781Y-50455220D01*
X28494375Y-50479132D01*
X28615465Y-50518477D01*
X28716557Y-50534488D01*
X28817648Y-50550500D01*
X28817649Y-50550500D01*
X29022351Y-50550500D01*
X29022352Y-50550500D01*
X29224534Y-50518477D01*
X29419219Y-50455220D01*
X29601610Y-50362287D01*
X29759162Y-50247820D01*
X29767213Y-50241971D01*
X29767215Y-50241968D01*
X29767219Y-50241966D01*
X29911966Y-50097219D01*
X29911968Y-50097215D01*
X29911971Y-50097213D01*
X29981400Y-50001650D01*
X30032287Y-49931610D01*
X30125220Y-49749219D01*
X30188477Y-49554534D01*
X30220500Y-49352352D01*
X30220500Y-49147648D01*
X37779500Y-49147648D01*
X37779500Y-49352351D01*
X37811522Y-49554534D01*
X37874781Y-49749223D01*
X37967715Y-49931613D01*
X38088028Y-50097213D01*
X38232786Y-50241971D01*
X38340120Y-50319952D01*
X38398390Y-50362287D01*
X38471425Y-50399500D01*
X38580776Y-50455218D01*
X38580778Y-50455218D01*
X38580781Y-50455220D01*
X38654375Y-50479132D01*
X38775465Y-50518477D01*
X38876557Y-50534488D01*
X38977648Y-50550500D01*
X38977649Y-50550500D01*
X39182351Y-50550500D01*
X39182352Y-50550500D01*
X39384534Y-50518477D01*
X39579219Y-50455220D01*
X39761610Y-50362287D01*
X39919162Y-50247820D01*
X39927213Y-50241971D01*
X39927215Y-50241968D01*
X39927219Y-50241966D01*
X40071966Y-50097219D01*
X40071968Y-50097215D01*
X40071971Y-50097213D01*
X40141400Y-50001650D01*
X40192287Y-49931610D01*
X40285220Y-49749219D01*
X40348477Y-49554534D01*
X40380500Y-49352352D01*
X40380500Y-49147648D01*
X40348477Y-48945466D01*
X40285220Y-48750781D01*
X40285218Y-48750778D01*
X40285218Y-48750776D01*
X40239071Y-48660209D01*
X40192287Y-48568390D01*
X40149785Y-48509890D01*
X40071971Y-48402786D01*
X39927213Y-48258028D01*
X39761613Y-48137715D01*
X39761612Y-48137714D01*
X39761610Y-48137713D01*
X39672543Y-48092331D01*
X39579223Y-48044781D01*
X39384534Y-47981522D01*
X39209995Y-47953878D01*
X39182352Y-47949500D01*
X38977648Y-47949500D01*
X38953329Y-47953351D01*
X38775465Y-47981522D01*
X38580776Y-48044781D01*
X38398386Y-48137715D01*
X38232786Y-48258028D01*
X38088028Y-48402786D01*
X37967715Y-48568386D01*
X37874781Y-48750776D01*
X37811522Y-48945465D01*
X37779500Y-49147648D01*
X30220500Y-49147648D01*
X30188477Y-48945466D01*
X30125220Y-48750781D01*
X30125218Y-48750778D01*
X30125218Y-48750776D01*
X30079071Y-48660209D01*
X30032287Y-48568390D01*
X29989785Y-48509890D01*
X29911971Y-48402786D01*
X29767213Y-48258028D01*
X29601613Y-48137715D01*
X29601612Y-48137714D01*
X29601610Y-48137713D01*
X29512543Y-48092331D01*
X29419219Y-48044779D01*
X29383246Y-48033091D01*
X29325571Y-47993653D01*
X29298374Y-47929294D01*
X29310289Y-47860448D01*
X29333879Y-47827486D01*
X29832952Y-47328415D01*
X29912475Y-47209399D01*
X29915084Y-47205495D01*
X29915086Y-47205489D01*
X29916398Y-47203526D01*
X29970006Y-47158715D01*
X30039330Y-47150001D01*
X30075804Y-47161922D01*
X30160774Y-47205217D01*
X30160777Y-47205217D01*
X30160781Y-47205220D01*
X30295245Y-47248910D01*
X30355465Y-47268477D01*
X30456557Y-47284488D01*
X30557648Y-47300500D01*
X30557649Y-47300500D01*
X30762351Y-47300500D01*
X30762352Y-47300500D01*
X30964534Y-47268477D01*
X31159219Y-47205220D01*
X31341610Y-47112287D01*
X31434590Y-47044732D01*
X31507213Y-46991971D01*
X31507215Y-46991968D01*
X31507219Y-46991966D01*
X31651966Y-46847219D01*
X31651966Y-46847218D01*
X31651969Y-46847216D01*
X31651971Y-46847213D01*
X31722236Y-46750500D01*
X31772287Y-46681610D01*
X31865220Y-46499219D01*
X31928477Y-46304534D01*
X31960500Y-46102352D01*
X31960500Y-45897648D01*
X31955625Y-45866869D01*
X31928477Y-45695465D01*
X31865218Y-45500776D01*
X31831503Y-45434607D01*
X31772287Y-45318390D01*
X31722236Y-45249500D01*
X31651971Y-45152786D01*
X31507213Y-45008028D01*
X31341613Y-44887715D01*
X31341612Y-44887714D01*
X31341610Y-44887713D01*
X31266050Y-44849213D01*
X31159223Y-44794781D01*
X30964535Y-44731523D01*
X30786481Y-44703321D01*
X30723347Y-44673391D01*
X30686416Y-44614080D01*
X30687414Y-44544217D01*
X30718197Y-44493169D01*
X36857951Y-38353416D01*
X36858807Y-38352135D01*
X41519500Y-38352135D01*
X41519500Y-41647870D01*
X41519501Y-41647876D01*
X41525908Y-41707483D01*
X41576202Y-41842328D01*
X41576206Y-41842335D01*
X41662452Y-41957544D01*
X41662455Y-41957547D01*
X41777664Y-42043793D01*
X41777671Y-42043797D01*
X41912517Y-42094091D01*
X41912516Y-42094091D01*
X41919444Y-42094835D01*
X41972127Y-42100500D01*
X45267872Y-42100499D01*
X45327483Y-42094091D01*
X45462331Y-42043796D01*
X45577546Y-41957546D01*
X45663796Y-41842331D01*
X45714091Y-41707483D01*
X45720500Y-41647873D01*
X45720499Y-38952135D01*
X58499500Y-38952135D01*
X58499500Y-41047870D01*
X58499501Y-41047876D01*
X58505908Y-41107483D01*
X58556202Y-41242328D01*
X58556206Y-41242335D01*
X58642452Y-41357544D01*
X58642455Y-41357547D01*
X58757664Y-41443793D01*
X58757671Y-41443797D01*
X58892517Y-41494091D01*
X58892516Y-41494091D01*
X58899444Y-41494835D01*
X58952127Y-41500500D01*
X61047872Y-41500499D01*
X61107483Y-41494091D01*
X61242331Y-41443796D01*
X61357546Y-41357546D01*
X61443796Y-41242331D01*
X61494091Y-41107483D01*
X61500500Y-41047873D01*
X61500499Y-39881902D01*
X81999500Y-39881902D01*
X81999500Y-40118097D01*
X82036446Y-40351368D01*
X82109433Y-40575996D01*
X82168804Y-40692517D01*
X82216657Y-40786433D01*
X82355483Y-40977510D01*
X82522490Y-41144517D01*
X82713567Y-41283343D01*
X82812991Y-41334002D01*
X82924003Y-41390566D01*
X82924005Y-41390566D01*
X82924008Y-41390568D01*
X83044412Y-41429689D01*
X83148631Y-41463553D01*
X83381903Y-41500500D01*
X83381908Y-41500500D01*
X83618097Y-41500500D01*
X83851368Y-41463553D01*
X83886281Y-41452209D01*
X84075992Y-41390568D01*
X84081164Y-41387933D01*
X84140805Y-41357544D01*
X84286433Y-41283343D01*
X84477510Y-41144517D01*
X84644517Y-40977510D01*
X84783343Y-40786433D01*
X84890568Y-40575992D01*
X84963553Y-40351368D01*
X84974886Y-40279815D01*
X85000500Y-40118097D01*
X85000500Y-39881902D01*
X84963553Y-39648631D01*
X84890566Y-39424003D01*
X84783342Y-39213566D01*
X84644517Y-39022490D01*
X84477510Y-38855483D01*
X84286433Y-38716657D01*
X84075996Y-38609433D01*
X83851368Y-38536446D01*
X83618097Y-38499500D01*
X83618092Y-38499500D01*
X83381908Y-38499500D01*
X83381903Y-38499500D01*
X83148631Y-38536446D01*
X82924003Y-38609433D01*
X82713566Y-38716657D01*
X82657119Y-38757669D01*
X82522490Y-38855483D01*
X82522488Y-38855485D01*
X82522487Y-38855485D01*
X82355485Y-39022487D01*
X82355485Y-39022488D01*
X82355483Y-39022490D01*
X82295862Y-39104550D01*
X82216657Y-39213566D01*
X82109433Y-39424003D01*
X82036446Y-39648631D01*
X81999500Y-39881902D01*
X61500499Y-39881902D01*
X61500499Y-38952128D01*
X61494091Y-38892517D01*
X61480278Y-38855483D01*
X61443797Y-38757671D01*
X61443793Y-38757664D01*
X61357547Y-38642455D01*
X61357544Y-38642452D01*
X61242335Y-38556206D01*
X61242328Y-38556202D01*
X61107482Y-38505908D01*
X61107483Y-38505908D01*
X61047883Y-38499501D01*
X61047881Y-38499500D01*
X61047873Y-38499500D01*
X61047864Y-38499500D01*
X58952129Y-38499500D01*
X58952123Y-38499501D01*
X58892516Y-38505908D01*
X58757671Y-38556202D01*
X58757664Y-38556206D01*
X58642455Y-38642452D01*
X58642452Y-38642455D01*
X58556206Y-38757664D01*
X58556202Y-38757671D01*
X58505908Y-38892517D01*
X58499501Y-38952116D01*
X58499501Y-38952123D01*
X58499500Y-38952135D01*
X45720499Y-38952135D01*
X45720499Y-38352128D01*
X45714091Y-38292517D01*
X45706572Y-38272358D01*
X45663797Y-38157671D01*
X45663793Y-38157664D01*
X45577547Y-38042455D01*
X45577544Y-38042452D01*
X45462335Y-37956206D01*
X45462328Y-37956202D01*
X45327482Y-37905908D01*
X45327483Y-37905908D01*
X45267883Y-37899501D01*
X45267881Y-37899500D01*
X45267873Y-37899500D01*
X45267864Y-37899500D01*
X41972129Y-37899500D01*
X41972123Y-37899501D01*
X41912516Y-37905908D01*
X41777671Y-37956202D01*
X41777664Y-37956206D01*
X41662455Y-38042452D01*
X41662452Y-38042455D01*
X41576206Y-38157664D01*
X41576202Y-38157671D01*
X41525908Y-38292517D01*
X41519501Y-38352116D01*
X41519501Y-38352123D01*
X41519500Y-38352135D01*
X36858807Y-38352135D01*
X36858820Y-38352116D01*
X36907063Y-38279915D01*
X36940080Y-38230501D01*
X36940080Y-38230500D01*
X36940084Y-38230495D01*
X36996658Y-38093913D01*
X37014005Y-38006705D01*
X37025500Y-37948920D01*
X37025500Y-30352135D01*
X41519500Y-30352135D01*
X41519500Y-33647870D01*
X41519501Y-33647876D01*
X41525908Y-33707483D01*
X41576202Y-33842328D01*
X41576206Y-33842335D01*
X41662452Y-33957544D01*
X41662455Y-33957547D01*
X41777664Y-34043793D01*
X41777671Y-34043797D01*
X41912517Y-34094091D01*
X41912516Y-34094091D01*
X41919444Y-34094835D01*
X41972127Y-34100500D01*
X45267872Y-34100499D01*
X45327483Y-34094091D01*
X45462331Y-34043796D01*
X45577546Y-33957546D01*
X45663796Y-33842331D01*
X45714091Y-33707483D01*
X45720500Y-33647873D01*
X45720499Y-32381902D01*
X58499500Y-32381902D01*
X58499500Y-32618097D01*
X58536446Y-32851368D01*
X58609433Y-33075996D01*
X58668727Y-33192365D01*
X58716657Y-33286433D01*
X58855483Y-33477510D01*
X59022490Y-33644517D01*
X59213567Y-33783343D01*
X59312991Y-33834002D01*
X59424003Y-33890566D01*
X59424005Y-33890566D01*
X59424008Y-33890568D01*
X59544412Y-33929689D01*
X59648631Y-33963553D01*
X59881903Y-34000500D01*
X59881908Y-34000500D01*
X60118097Y-34000500D01*
X60351368Y-33963553D01*
X60575992Y-33890568D01*
X60786433Y-33783343D01*
X60977510Y-33644517D01*
X61144517Y-33477510D01*
X61283343Y-33286433D01*
X61390568Y-33075992D01*
X61463553Y-32851368D01*
X61468901Y-32817603D01*
X61500500Y-32618097D01*
X61500500Y-32381902D01*
X78499500Y-32381902D01*
X78499500Y-32618097D01*
X78536446Y-32851368D01*
X78609433Y-33075996D01*
X78668727Y-33192365D01*
X78716657Y-33286433D01*
X78855483Y-33477510D01*
X79022490Y-33644517D01*
X79213567Y-33783343D01*
X79312991Y-33834002D01*
X79424003Y-33890566D01*
X79424005Y-33890566D01*
X79424008Y-33890568D01*
X79544412Y-33929689D01*
X79648631Y-33963553D01*
X79881903Y-34000500D01*
X79881908Y-34000500D01*
X84327111Y-34000500D01*
X84394150Y-34020185D01*
X84414792Y-34036819D01*
X90546452Y-40168479D01*
X90579937Y-40229802D01*
X90574953Y-40299494D01*
X90533081Y-40355427D01*
X90490866Y-40375934D01*
X90452227Y-40386287D01*
X90452209Y-40386293D01*
X90246277Y-40471593D01*
X90246273Y-40471595D01*
X90053226Y-40583052D01*
X90053217Y-40583058D01*
X89876377Y-40718751D01*
X89876370Y-40718757D01*
X89718757Y-40876370D01*
X89718751Y-40876377D01*
X89583058Y-41053217D01*
X89583052Y-41053226D01*
X89471595Y-41246273D01*
X89471593Y-41246277D01*
X89386293Y-41452209D01*
X89386290Y-41452219D01*
X89333868Y-41647864D01*
X89328597Y-41667534D01*
X89328594Y-41667547D01*
X89299501Y-41888533D01*
X89299500Y-41888549D01*
X89299500Y-42111450D01*
X89299501Y-42111466D01*
X89328594Y-42332452D01*
X89328595Y-42332457D01*
X89328596Y-42332463D01*
X89328597Y-42332465D01*
X89386290Y-42547780D01*
X89386293Y-42547790D01*
X89416526Y-42620778D01*
X89471595Y-42753726D01*
X89583052Y-42946774D01*
X89583057Y-42946780D01*
X89583058Y-42946782D01*
X89718751Y-43123622D01*
X89718757Y-43123629D01*
X89876370Y-43281242D01*
X89876377Y-43281248D01*
X90002294Y-43377867D01*
X90053226Y-43416948D01*
X90246274Y-43528405D01*
X90297202Y-43549500D01*
X90420411Y-43600535D01*
X90452219Y-43613710D01*
X90667537Y-43671404D01*
X90888543Y-43700500D01*
X90888550Y-43700500D01*
X91111450Y-43700500D01*
X91111457Y-43700500D01*
X91332463Y-43671404D01*
X91547781Y-43613710D01*
X91753726Y-43528405D01*
X91946774Y-43416948D01*
X92123624Y-43281247D01*
X92281247Y-43123624D01*
X92416948Y-42946774D01*
X92528405Y-42753726D01*
X92560939Y-42675182D01*
X92604779Y-42620778D01*
X92671073Y-42598713D01*
X92738773Y-42615992D01*
X92786384Y-42667129D01*
X92799500Y-42722634D01*
X92799500Y-43247870D01*
X92799501Y-43247876D01*
X92805908Y-43307483D01*
X92856202Y-43442328D01*
X92856206Y-43442335D01*
X92942452Y-43557544D01*
X92942455Y-43557547D01*
X93057664Y-43643793D01*
X93057671Y-43643797D01*
X93192517Y-43694091D01*
X93192516Y-43694091D01*
X93199444Y-43694835D01*
X93252127Y-43700500D01*
X95747872Y-43700499D01*
X95807483Y-43694091D01*
X95942331Y-43643796D01*
X96057546Y-43557546D01*
X96143796Y-43442331D01*
X96194091Y-43307483D01*
X96200500Y-43247873D01*
X96200499Y-40752128D01*
X96194091Y-40692517D01*
X96188166Y-40676632D01*
X96143797Y-40557671D01*
X96143793Y-40557664D01*
X96057547Y-40442455D01*
X96057544Y-40442452D01*
X95942335Y-40356206D01*
X95942328Y-40356202D01*
X95807482Y-40305908D01*
X95807483Y-40305908D01*
X95747883Y-40299501D01*
X95747881Y-40299500D01*
X95747873Y-40299500D01*
X95747865Y-40299500D01*
X94972889Y-40299500D01*
X94905850Y-40279815D01*
X94885208Y-40263181D01*
X87212010Y-32589983D01*
X94967000Y-32589983D01*
X94967000Y-33990001D01*
X94967001Y-33990018D01*
X94977500Y-34092796D01*
X94977501Y-34092799D01*
X95032685Y-34259331D01*
X95032686Y-34259334D01*
X95124788Y-34408656D01*
X95248844Y-34532712D01*
X95398166Y-34624814D01*
X95564703Y-34679999D01*
X95667491Y-34690500D01*
X98867508Y-34690499D01*
X98970297Y-34679999D01*
X99136834Y-34624814D01*
X99286156Y-34532712D01*
X99410212Y-34408656D01*
X99502314Y-34259334D01*
X99557499Y-34092797D01*
X99568000Y-33990009D01*
X99567999Y-32589992D01*
X99557499Y-32487203D01*
X99502314Y-32320666D01*
X99410212Y-32171344D01*
X99286156Y-32047288D01*
X99136834Y-31955186D01*
X98970297Y-31900001D01*
X98970295Y-31900000D01*
X98867510Y-31889500D01*
X95667498Y-31889500D01*
X95667481Y-31889501D01*
X95564703Y-31900000D01*
X95564700Y-31900001D01*
X95398168Y-31955185D01*
X95398163Y-31955187D01*
X95248842Y-32047289D01*
X95124789Y-32171342D01*
X95032687Y-32320663D01*
X95032686Y-32320666D01*
X94977501Y-32487203D01*
X94977501Y-32487204D01*
X94977500Y-32487204D01*
X94967000Y-32589983D01*
X87212010Y-32589983D01*
X85977511Y-31355484D01*
X85786434Y-31216657D01*
X85575996Y-31109433D01*
X85351368Y-31036446D01*
X85118097Y-30999500D01*
X85118092Y-30999500D01*
X79881908Y-30999500D01*
X79881903Y-30999500D01*
X79648631Y-31036446D01*
X79424003Y-31109433D01*
X79213566Y-31216657D01*
X79104550Y-31295862D01*
X79022490Y-31355483D01*
X79022488Y-31355485D01*
X79022487Y-31355485D01*
X78855485Y-31522487D01*
X78855485Y-31522488D01*
X78855483Y-31522490D01*
X78838421Y-31545974D01*
X78716657Y-31713566D01*
X78609433Y-31924003D01*
X78536446Y-32148631D01*
X78499500Y-32381902D01*
X61500500Y-32381902D01*
X61463553Y-32148631D01*
X61429689Y-32044412D01*
X61390568Y-31924008D01*
X61390566Y-31924005D01*
X61390566Y-31924003D01*
X61334002Y-31812991D01*
X61283343Y-31713567D01*
X61144517Y-31522490D01*
X60977510Y-31355483D01*
X60786433Y-31216657D01*
X60776806Y-31211752D01*
X60575996Y-31109433D01*
X60351368Y-31036446D01*
X60118097Y-30999500D01*
X60118092Y-30999500D01*
X59881908Y-30999500D01*
X59881903Y-30999500D01*
X59648631Y-31036446D01*
X59424003Y-31109433D01*
X59213566Y-31216657D01*
X59104550Y-31295862D01*
X59022490Y-31355483D01*
X59022488Y-31355485D01*
X59022487Y-31355485D01*
X58855485Y-31522487D01*
X58855485Y-31522488D01*
X58855483Y-31522490D01*
X58838421Y-31545974D01*
X58716657Y-31713566D01*
X58609433Y-31924003D01*
X58536446Y-32148631D01*
X58499500Y-32381902D01*
X45720499Y-32381902D01*
X45720499Y-31955187D01*
X45720499Y-30352129D01*
X45720498Y-30352123D01*
X45720497Y-30352116D01*
X45714091Y-30292517D01*
X45698141Y-30249754D01*
X45663797Y-30157671D01*
X45663793Y-30157664D01*
X45577547Y-30042455D01*
X45577544Y-30042452D01*
X45462335Y-29956206D01*
X45462328Y-29956202D01*
X45327482Y-29905908D01*
X45327483Y-29905908D01*
X45267883Y-29899501D01*
X45267881Y-29899500D01*
X45267873Y-29899500D01*
X45267864Y-29899500D01*
X41972129Y-29899500D01*
X41972123Y-29899501D01*
X41912516Y-29905908D01*
X41777671Y-29956202D01*
X41777664Y-29956206D01*
X41662455Y-30042452D01*
X41662452Y-30042455D01*
X41576206Y-30157664D01*
X41576202Y-30157671D01*
X41525908Y-30292517D01*
X41519501Y-30352116D01*
X41519501Y-30352123D01*
X41519500Y-30352135D01*
X37025500Y-30352135D01*
X37025500Y-29337230D01*
X37045185Y-29270191D01*
X37061819Y-29249549D01*
X39724549Y-26586819D01*
X39785872Y-26553334D01*
X39812230Y-26550500D01*
X41994582Y-26550500D01*
X42061621Y-26570185D01*
X42094900Y-26601615D01*
X42128028Y-26647212D01*
X42128032Y-26647217D01*
X42272786Y-26791971D01*
X42427749Y-26904556D01*
X42438390Y-26912287D01*
X42554607Y-26971503D01*
X42620776Y-27005218D01*
X42620778Y-27005218D01*
X42620781Y-27005220D01*
X42725137Y-27039127D01*
X42815465Y-27068477D01*
X42916557Y-27084488D01*
X43017648Y-27100500D01*
X43017649Y-27100500D01*
X43222351Y-27100500D01*
X43222352Y-27100500D01*
X43424534Y-27068477D01*
X43619219Y-27005220D01*
X43801610Y-26912287D01*
X43894590Y-26844732D01*
X43967213Y-26791971D01*
X43967215Y-26791968D01*
X43967219Y-26791966D01*
X44111966Y-26647219D01*
X44111968Y-26647215D01*
X44111971Y-26647213D01*
X44218927Y-26499998D01*
X44232287Y-26481610D01*
X44325220Y-26299219D01*
X44388477Y-26104534D01*
X44420500Y-25902352D01*
X44420500Y-25697648D01*
X44388477Y-25495466D01*
X44325220Y-25300781D01*
X44325218Y-25300778D01*
X44325218Y-25300776D01*
X44257469Y-25167813D01*
X44232287Y-25118390D01*
X44182236Y-25049500D01*
X44111971Y-24952786D01*
X43967213Y-24808028D01*
X43801613Y-24687715D01*
X43801612Y-24687714D01*
X43801610Y-24687713D01*
X43744653Y-24658691D01*
X43619223Y-24594781D01*
X43424534Y-24531522D01*
X43249995Y-24503878D01*
X43222352Y-24499500D01*
X43017648Y-24499500D01*
X42993329Y-24503351D01*
X42815465Y-24531522D01*
X42620776Y-24594781D01*
X42438386Y-24687715D01*
X42272786Y-24808028D01*
X42128032Y-24952782D01*
X42128028Y-24952787D01*
X42094900Y-24998385D01*
X42039571Y-25041051D01*
X41994582Y-25049500D01*
X39376080Y-25049500D01*
X39231092Y-25078340D01*
X39231086Y-25078342D01*
X39094508Y-25134914D01*
X39094496Y-25134921D01*
X39045269Y-25167813D01*
X38971588Y-25217044D01*
X38971580Y-25217050D01*
X35692050Y-28496580D01*
X35692044Y-28496588D01*
X35642812Y-28570268D01*
X35642813Y-28570269D01*
X35609921Y-28619496D01*
X35609914Y-28619508D01*
X35553342Y-28756086D01*
X35553340Y-28756092D01*
X35524500Y-28901079D01*
X35524500Y-37512769D01*
X35504815Y-37579808D01*
X35488181Y-37600450D01*
X28667050Y-44421580D01*
X28667044Y-44421588D01*
X28617812Y-44495268D01*
X28617813Y-44495269D01*
X28584921Y-44544496D01*
X28584914Y-44544508D01*
X28528342Y-44681086D01*
X28528340Y-44681092D01*
X28499500Y-44826079D01*
X28499500Y-45046626D01*
X28479815Y-45113665D01*
X28427011Y-45159420D01*
X28357853Y-45169364D01*
X28328049Y-45161188D01*
X28307752Y-45152781D01*
X28262666Y-45134106D01*
X28262662Y-45134105D01*
X28262658Y-45134103D01*
X28088694Y-45099500D01*
X28088691Y-45099500D01*
X27911309Y-45099500D01*
X27911306Y-45099500D01*
X27737341Y-45134103D01*
X27737332Y-45134106D01*
X27573452Y-45201987D01*
X27573447Y-45201989D01*
X27533622Y-45228601D01*
X27466945Y-45249480D01*
X27464730Y-45249500D01*
X21625418Y-45249500D01*
X21558379Y-45229815D01*
X21525100Y-45198385D01*
X21491971Y-45152787D01*
X21491967Y-45152782D01*
X21347213Y-45008028D01*
X21181613Y-44887715D01*
X21181612Y-44887714D01*
X21181610Y-44887713D01*
X21106050Y-44849213D01*
X20999223Y-44794781D01*
X20804534Y-44731522D01*
X20626476Y-44703321D01*
X20602352Y-44699500D01*
X20397648Y-44699500D01*
X20373524Y-44703321D01*
X20195465Y-44731522D01*
X20000776Y-44794781D01*
X19818386Y-44887715D01*
X19652786Y-45008028D01*
X19508028Y-45152786D01*
X19387715Y-45318386D01*
X19294781Y-45500776D01*
X19231522Y-45695465D01*
X19199500Y-45897648D01*
X19199500Y-46102351D01*
X19231522Y-46304534D01*
X19294781Y-46499223D01*
X19387715Y-46681613D01*
X19508028Y-46847213D01*
X19652786Y-46991971D01*
X19787801Y-47090063D01*
X19818390Y-47112287D01*
X19892408Y-47150001D01*
X20000776Y-47205218D01*
X20000778Y-47205218D01*
X20000781Y-47205220D01*
X20105137Y-47239127D01*
X20195465Y-47268477D01*
X20296557Y-47284488D01*
X20397648Y-47300500D01*
X20397649Y-47300500D01*
X20602351Y-47300500D01*
X20602352Y-47300500D01*
X20804534Y-47268477D01*
X20999219Y-47205220D01*
X21181610Y-47112287D01*
X21274590Y-47044732D01*
X21347213Y-46991971D01*
X21347215Y-46991968D01*
X21347219Y-46991966D01*
X21491966Y-46847219D01*
X21491966Y-46847218D01*
X21491969Y-46847216D01*
X21491971Y-46847212D01*
X21525100Y-46801615D01*
X21580429Y-46758949D01*
X21625418Y-46750500D01*
X27464730Y-46750500D01*
X27531769Y-46770185D01*
X27533622Y-46771399D01*
X27573447Y-46798010D01*
X27573450Y-46798011D01*
X27573453Y-46798013D01*
X27737334Y-46865894D01*
X27737336Y-46865894D01*
X27737341Y-46865896D01*
X27872969Y-46892874D01*
X27934880Y-46925259D01*
X27969454Y-46985974D01*
X27965715Y-47055744D01*
X27936459Y-47102172D01*
X26417047Y-48621584D01*
X26417042Y-48621590D01*
X26391243Y-48660205D01*
X26391241Y-48660208D01*
X26362981Y-48702501D01*
X26334914Y-48744507D01*
X26278343Y-48881082D01*
X26278340Y-48881092D01*
X26249500Y-49026079D01*
X26249500Y-55874582D01*
X26229815Y-55941621D01*
X26198385Y-55974900D01*
X26152787Y-56008028D01*
X26152782Y-56008032D01*
X26008028Y-56152786D01*
X25887715Y-56318386D01*
X25794781Y-56500776D01*
X25731522Y-56695465D01*
X25699500Y-56897648D01*
X25699500Y-57102351D01*
X25731522Y-57304534D01*
X25794781Y-57499223D01*
X25887715Y-57681613D01*
X26008028Y-57847213D01*
X26152786Y-57991971D01*
X26307749Y-58104556D01*
X26318390Y-58112287D01*
X26431065Y-58169698D01*
X26500776Y-58205218D01*
X26500778Y-58205218D01*
X26500781Y-58205220D01*
X26605137Y-58239127D01*
X26695465Y-58268477D01*
X26796557Y-58284488D01*
X26897648Y-58300500D01*
X26897649Y-58300500D01*
X27102348Y-58300500D01*
X27102352Y-58300500D01*
X27124390Y-58297009D01*
X27193680Y-58305963D01*
X27247133Y-58350958D01*
X27267774Y-58417709D01*
X27249050Y-58485023D01*
X27231468Y-58507163D01*
X26417049Y-59321582D01*
X26405618Y-59338691D01*
X26334913Y-59444508D01*
X26278343Y-59581082D01*
X26278340Y-59581092D01*
X26249500Y-59726079D01*
X26249500Y-60136267D01*
X26229815Y-60203306D01*
X26177011Y-60249061D01*
X26164506Y-60253972D01*
X26130671Y-60265184D01*
X26130663Y-60265187D01*
X25981342Y-60357289D01*
X25857289Y-60481342D01*
X25765187Y-60630663D01*
X25765186Y-60630666D01*
X25710001Y-60797203D01*
X25710001Y-60797204D01*
X25710000Y-60797204D01*
X25699500Y-60899983D01*
X25699500Y-62100001D01*
X25699501Y-62100018D01*
X25710000Y-62202796D01*
X25710001Y-62202799D01*
X25745367Y-62309524D01*
X25765186Y-62369334D01*
X25857288Y-62518656D01*
X25981344Y-62642712D01*
X26130666Y-62734814D01*
X26297203Y-62789999D01*
X26399991Y-62800500D01*
X27600008Y-62800499D01*
X27687900Y-62791520D01*
X27756590Y-62804289D01*
X27807475Y-62852170D01*
X27824500Y-62914878D01*
X27824500Y-65392770D01*
X27804815Y-65459809D01*
X27788181Y-65480451D01*
X27095105Y-66173526D01*
X27033782Y-66207011D01*
X26988026Y-66208318D01*
X26932352Y-66199500D01*
X26727648Y-66199500D01*
X26714535Y-66201577D01*
X26525465Y-66231522D01*
X26330776Y-66294781D01*
X26148386Y-66387715D01*
X25982786Y-66508028D01*
X25838028Y-66652786D01*
X25717715Y-66818386D01*
X25624781Y-67000776D01*
X25561522Y-67195465D01*
X25529500Y-67397648D01*
X25529500Y-67602351D01*
X25561522Y-67804534D01*
X25624781Y-67999223D01*
X25717715Y-68181613D01*
X25838028Y-68347213D01*
X25982786Y-68491971D01*
X26137749Y-68604556D01*
X26148390Y-68612287D01*
X26264607Y-68671503D01*
X26330776Y-68705218D01*
X26330778Y-68705218D01*
X26330781Y-68705220D01*
X26525466Y-68768477D01*
X26727648Y-68800500D01*
X26727652Y-68800500D01*
X26729414Y-68800779D01*
X26792548Y-68830708D01*
X26829480Y-68890019D01*
X26828482Y-68959882D01*
X26797697Y-69010933D01*
X24815104Y-70993526D01*
X24753781Y-71027011D01*
X24708025Y-71028318D01*
X24652352Y-71019500D01*
X24447648Y-71019500D01*
X24423329Y-71023351D01*
X24245465Y-71051522D01*
X24050776Y-71114781D01*
X23868386Y-71207715D01*
X23702786Y-71328028D01*
X23558028Y-71472786D01*
X23437715Y-71638386D01*
X23344781Y-71820776D01*
X23281522Y-72015465D01*
X23251852Y-72202796D01*
X23249500Y-72217648D01*
X23249500Y-72422352D01*
X23253878Y-72449995D01*
X23281522Y-72624534D01*
X23344781Y-72819223D01*
X23437715Y-73001613D01*
X23558028Y-73167213D01*
X23702786Y-73311971D01*
X23857749Y-73424556D01*
X23868390Y-73432287D01*
X23984607Y-73491503D01*
X24050776Y-73525218D01*
X24050778Y-73525218D01*
X24050781Y-73525220D01*
X24155137Y-73559127D01*
X24245465Y-73588477D01*
X24346557Y-73604488D01*
X24447648Y-73620500D01*
X24447649Y-73620500D01*
X24652351Y-73620500D01*
X24652352Y-73620500D01*
X24854534Y-73588477D01*
X25049219Y-73525220D01*
X25231610Y-73432287D01*
X25324590Y-73364732D01*
X25397213Y-73311971D01*
X25397215Y-73311968D01*
X25397219Y-73311966D01*
X25541966Y-73167219D01*
X25541968Y-73167215D01*
X25541971Y-73167213D01*
X25594732Y-73094590D01*
X25662287Y-73001610D01*
X25755220Y-72819219D01*
X25818477Y-72624534D01*
X25850500Y-72422352D01*
X25850500Y-72217648D01*
X28149500Y-72217648D01*
X28149500Y-72422352D01*
X28153878Y-72449995D01*
X28181522Y-72624534D01*
X28244781Y-72819223D01*
X28337715Y-73001613D01*
X28458028Y-73167213D01*
X28602786Y-73311971D01*
X28757749Y-73424556D01*
X28768390Y-73432287D01*
X28884607Y-73491503D01*
X28950776Y-73525218D01*
X28950778Y-73525218D01*
X28950781Y-73525220D01*
X29055137Y-73559127D01*
X29145465Y-73588477D01*
X29246557Y-73604488D01*
X29347648Y-73620500D01*
X29347649Y-73620500D01*
X29552351Y-73620500D01*
X29552352Y-73620500D01*
X29754534Y-73588477D01*
X29949219Y-73525220D01*
X30131610Y-73432287D01*
X30224590Y-73364732D01*
X30297213Y-73311971D01*
X30297215Y-73311968D01*
X30297219Y-73311966D01*
X30441966Y-73167219D01*
X30441968Y-73167215D01*
X30441971Y-73167213D01*
X30494732Y-73094590D01*
X30562287Y-73001610D01*
X30655220Y-72819219D01*
X30718477Y-72624534D01*
X30750500Y-72422352D01*
X30750500Y-72217648D01*
X30736919Y-72131902D01*
X30718477Y-72015465D01*
X30655218Y-71820776D01*
X30621503Y-71754607D01*
X30562287Y-71638390D01*
X30532663Y-71597616D01*
X30441971Y-71472786D01*
X30297213Y-71328028D01*
X30131613Y-71207715D01*
X30131612Y-71207714D01*
X30131610Y-71207713D01*
X30074653Y-71178691D01*
X29949223Y-71114781D01*
X29754534Y-71051522D01*
X29579995Y-71023878D01*
X29552352Y-71019500D01*
X29347648Y-71019500D01*
X29323329Y-71023351D01*
X29145465Y-71051522D01*
X28950776Y-71114781D01*
X28768386Y-71207715D01*
X28602786Y-71328028D01*
X28458028Y-71472786D01*
X28337715Y-71638386D01*
X28244781Y-71820776D01*
X28181522Y-72015465D01*
X28151852Y-72202796D01*
X28149500Y-72217648D01*
X25850500Y-72217648D01*
X25841569Y-72161264D01*
X25841479Y-72160653D01*
X25846240Y-72126684D01*
X25850635Y-72092680D01*
X25851104Y-72091993D01*
X25851179Y-72091460D01*
X25852593Y-72089816D01*
X25876470Y-72054896D01*
X28662952Y-69268416D01*
X28724336Y-69176547D01*
X28725701Y-69174505D01*
X28727771Y-69171405D01*
X28745084Y-69145495D01*
X28801658Y-69008913D01*
X28817467Y-68929439D01*
X28849852Y-68867528D01*
X28910568Y-68832954D01*
X28980337Y-68836694D01*
X29026765Y-68865950D01*
X29152786Y-68991971D01*
X29307749Y-69104556D01*
X29318390Y-69112287D01*
X29434607Y-69171503D01*
X29500776Y-69205218D01*
X29500778Y-69205218D01*
X29500781Y-69205220D01*
X29605137Y-69239127D01*
X29695465Y-69268477D01*
X29796557Y-69284488D01*
X29897648Y-69300500D01*
X29897649Y-69300500D01*
X30102351Y-69300500D01*
X30102352Y-69300500D01*
X30304534Y-69268477D01*
X30499219Y-69205220D01*
X30681610Y-69112287D01*
X30774590Y-69044732D01*
X30847213Y-68991971D01*
X30847215Y-68991968D01*
X30847219Y-68991966D01*
X30991966Y-68847219D01*
X30991968Y-68847215D01*
X30991971Y-68847213D01*
X31095133Y-68705220D01*
X31112287Y-68681610D01*
X31205220Y-68499219D01*
X31268477Y-68304534D01*
X31300500Y-68102352D01*
X31300500Y-67897648D01*
X31271713Y-67715894D01*
X31268477Y-67695465D01*
X31228085Y-67571152D01*
X31205220Y-67500781D01*
X31205218Y-67500778D01*
X31205218Y-67500776D01*
X31138341Y-67369524D01*
X31112287Y-67318390D01*
X31081887Y-67276547D01*
X30991971Y-67152786D01*
X30847213Y-67008028D01*
X30681613Y-66887715D01*
X30681612Y-66887714D01*
X30681610Y-66887713D01*
X30624653Y-66858691D01*
X30499223Y-66794781D01*
X30472159Y-66785987D01*
X30455699Y-66780639D01*
X30398025Y-66741202D01*
X30370827Y-66676843D01*
X30382742Y-66607997D01*
X30406335Y-66575031D01*
X36489067Y-60492298D01*
X36550388Y-60458815D01*
X36620080Y-60463799D01*
X36676013Y-60505671D01*
X36699219Y-60560582D01*
X36731523Y-60764535D01*
X36794781Y-60959223D01*
X36858691Y-61084653D01*
X36887699Y-61141583D01*
X36887715Y-61141613D01*
X37008028Y-61307213D01*
X37152786Y-61451971D01*
X37264076Y-61532826D01*
X37318390Y-61572287D01*
X37409840Y-61618883D01*
X37411080Y-61619515D01*
X37461876Y-61667490D01*
X37478671Y-61735311D01*
X37456134Y-61801446D01*
X37411080Y-61840485D01*
X37318386Y-61887715D01*
X37152786Y-62008028D01*
X37008028Y-62152786D01*
X36887715Y-62318386D01*
X36794781Y-62500776D01*
X36731522Y-62695465D01*
X36699500Y-62897648D01*
X36699500Y-63102351D01*
X36731522Y-63304534D01*
X36794781Y-63499223D01*
X36887715Y-63681613D01*
X37008028Y-63847213D01*
X37152786Y-63991971D01*
X37307749Y-64104556D01*
X37318390Y-64112287D01*
X37434607Y-64171503D01*
X37500776Y-64205218D01*
X37500778Y-64205218D01*
X37500781Y-64205220D01*
X37605137Y-64239127D01*
X37695465Y-64268477D01*
X37796557Y-64284488D01*
X37897648Y-64300500D01*
X37897649Y-64300500D01*
X38102351Y-64300500D01*
X38102352Y-64300500D01*
X38304534Y-64268477D01*
X38499219Y-64205220D01*
X38681610Y-64112287D01*
X38774590Y-64044732D01*
X38847213Y-63991971D01*
X38847215Y-63991968D01*
X38847219Y-63991966D01*
X38991966Y-63847219D01*
X38991968Y-63847215D01*
X38991971Y-63847213D01*
X39044732Y-63774590D01*
X39112287Y-63681610D01*
X39205220Y-63499219D01*
X39268477Y-63304534D01*
X39300500Y-63102352D01*
X39300500Y-62897648D01*
X39268477Y-62695466D01*
X39205220Y-62500781D01*
X39205218Y-62500778D01*
X39205218Y-62500776D01*
X39153301Y-62398884D01*
X39112287Y-62318390D01*
X39104556Y-62307749D01*
X38991971Y-62152786D01*
X38847213Y-62008028D01*
X38681614Y-61887715D01*
X38675006Y-61884348D01*
X38588917Y-61840483D01*
X38538123Y-61792511D01*
X38521328Y-61724690D01*
X38543865Y-61658555D01*
X38588917Y-61619516D01*
X38681610Y-61572287D01*
X38735924Y-61532826D01*
X38847213Y-61451971D01*
X38847215Y-61451968D01*
X38847219Y-61451966D01*
X38991966Y-61307219D01*
X38991968Y-61307215D01*
X38991971Y-61307213D01*
X39078862Y-61187616D01*
X39112287Y-61141610D01*
X39205220Y-60959219D01*
X39268477Y-60764534D01*
X39300500Y-60562352D01*
X39300500Y-60357648D01*
X39300443Y-60357288D01*
X39268477Y-60155465D01*
X39234168Y-60049873D01*
X39205220Y-59960781D01*
X39205218Y-59960778D01*
X39205218Y-59960776D01*
X39127143Y-59807547D01*
X39112287Y-59778390D01*
X39104556Y-59767749D01*
X38991971Y-59612786D01*
X38847213Y-59468028D01*
X38681614Y-59347715D01*
X38594511Y-59303334D01*
X38588917Y-59300483D01*
X38538123Y-59252511D01*
X38521328Y-59184690D01*
X38543865Y-59118555D01*
X38588917Y-59079516D01*
X38681610Y-59032287D01*
X38737108Y-58991966D01*
X38847213Y-58911971D01*
X38847215Y-58911968D01*
X38847219Y-58911966D01*
X38991966Y-58767219D01*
X38994650Y-58763524D01*
X39025100Y-58721615D01*
X39080429Y-58678949D01*
X39125418Y-58670500D01*
X44003920Y-58670500D01*
X44101462Y-58651096D01*
X44148913Y-58641658D01*
X44285495Y-58585084D01*
X44370416Y-58528342D01*
X44406611Y-58504157D01*
X44473288Y-58483281D01*
X44540668Y-58501766D01*
X44587358Y-58553746D01*
X44599500Y-58607261D01*
X44599500Y-59412770D01*
X44579815Y-59479809D01*
X44563181Y-59500451D01*
X38000451Y-66063181D01*
X37939128Y-66096666D01*
X37912770Y-66099500D01*
X32785270Y-66099500D01*
X32718231Y-66079815D01*
X32716378Y-66078601D01*
X32676552Y-66051989D01*
X32676547Y-66051987D01*
X32512667Y-65984106D01*
X32512658Y-65984103D01*
X32338694Y-65949500D01*
X32338691Y-65949500D01*
X32161309Y-65949500D01*
X32161306Y-65949500D01*
X31987341Y-65984103D01*
X31987332Y-65984106D01*
X31823459Y-66051983D01*
X31823446Y-66051990D01*
X31675965Y-66150535D01*
X31675961Y-66150538D01*
X31550538Y-66275961D01*
X31550535Y-66275965D01*
X31451990Y-66423446D01*
X31451983Y-66423459D01*
X31384106Y-66587332D01*
X31384103Y-66587341D01*
X31349500Y-66761304D01*
X31349500Y-66938695D01*
X31384103Y-67112658D01*
X31384106Y-67112667D01*
X31451983Y-67276540D01*
X31451990Y-67276553D01*
X31550535Y-67424034D01*
X31550538Y-67424038D01*
X31675961Y-67549461D01*
X31675965Y-67549464D01*
X31823446Y-67648009D01*
X31823459Y-67648016D01*
X31904564Y-67681610D01*
X31987334Y-67715894D01*
X31987336Y-67715894D01*
X31987341Y-67715896D01*
X32161304Y-67750499D01*
X32161307Y-67750500D01*
X32161309Y-67750500D01*
X32338693Y-67750500D01*
X32338694Y-67750499D01*
X32396682Y-67738964D01*
X32512658Y-67715896D01*
X32512661Y-67715894D01*
X32512666Y-67715894D01*
X32676547Y-67648013D01*
X32676550Y-67648010D01*
X32676552Y-67648010D01*
X32716378Y-67621399D01*
X32783055Y-67600520D01*
X32785270Y-67600500D01*
X37975500Y-67600500D01*
X38042539Y-67620185D01*
X38088294Y-67672989D01*
X38099500Y-67724500D01*
X38099500Y-86364729D01*
X38079815Y-86431768D01*
X38078602Y-86433620D01*
X38051988Y-86473449D01*
X38051987Y-86473452D01*
X37984106Y-86637332D01*
X37984103Y-86637341D01*
X37949500Y-86811304D01*
X37949500Y-86988695D01*
X37965933Y-87071309D01*
X37959706Y-87140900D01*
X37916843Y-87196078D01*
X37850953Y-87219322D01*
X37844316Y-87219500D01*
X33846080Y-87219500D01*
X33701092Y-87248340D01*
X33701082Y-87248343D01*
X33564511Y-87304912D01*
X33564499Y-87304919D01*
X33532133Y-87326546D01*
X33532132Y-87326547D01*
X33441579Y-87387051D01*
X32037049Y-88791581D01*
X32037043Y-88791589D01*
X31987811Y-88865269D01*
X31987812Y-88865270D01*
X31954920Y-88914497D01*
X31954913Y-88914509D01*
X31898341Y-89051087D01*
X31898339Y-89051093D01*
X31869499Y-89196080D01*
X31869499Y-90015514D01*
X31849814Y-90082553D01*
X31818386Y-90115830D01*
X31730208Y-90179896D01*
X31730206Y-90179898D01*
X31730205Y-90179898D01*
X31579890Y-90330213D01*
X31454949Y-90502182D01*
X31450484Y-90510946D01*
X31402509Y-90561742D01*
X31334688Y-90578536D01*
X31268553Y-90555998D01*
X31229516Y-90510946D01*
X31225050Y-90502182D01*
X31100109Y-90330213D01*
X30949786Y-90179890D01*
X30777820Y-90054951D01*
X30588414Y-89958444D01*
X30588413Y-89958443D01*
X30588412Y-89958443D01*
X30386243Y-89892754D01*
X30386241Y-89892753D01*
X30386240Y-89892753D01*
X30224957Y-89867208D01*
X30176287Y-89859500D01*
X29963713Y-89859500D01*
X29915042Y-89867208D01*
X29753760Y-89892753D01*
X29551585Y-89958444D01*
X29362179Y-90054951D01*
X29190213Y-90179890D01*
X29039890Y-90330213D01*
X28914949Y-90502182D01*
X28910484Y-90510946D01*
X28862509Y-90561742D01*
X28794688Y-90578536D01*
X28728553Y-90555998D01*
X28689516Y-90510946D01*
X28685050Y-90502182D01*
X28560109Y-90330213D01*
X28409791Y-90179895D01*
X28341613Y-90130360D01*
X28298948Y-90075030D01*
X28290500Y-90030043D01*
X28290500Y-84752229D01*
X28310185Y-84685190D01*
X28326815Y-84664552D01*
X29184895Y-83806471D01*
X29246216Y-83772988D01*
X29291971Y-83771681D01*
X29347648Y-83780500D01*
X29347649Y-83780500D01*
X29552351Y-83780500D01*
X29552352Y-83780500D01*
X29754534Y-83748477D01*
X29949219Y-83685220D01*
X30131610Y-83592287D01*
X30267287Y-83493713D01*
X30297213Y-83471971D01*
X30297215Y-83471968D01*
X30297219Y-83471966D01*
X30441966Y-83327219D01*
X30441968Y-83327215D01*
X30441971Y-83327213D01*
X30494732Y-83254590D01*
X30562287Y-83161610D01*
X30655220Y-82979219D01*
X30718477Y-82784534D01*
X30750500Y-82582352D01*
X30750500Y-82377648D01*
X30718477Y-82175466D01*
X30655220Y-81980781D01*
X30655218Y-81980778D01*
X30655218Y-81980776D01*
X30621503Y-81914607D01*
X30562287Y-81798390D01*
X30554556Y-81787749D01*
X30441971Y-81632786D01*
X30297213Y-81488028D01*
X30131613Y-81367715D01*
X30131612Y-81367714D01*
X30131610Y-81367713D01*
X30074653Y-81338691D01*
X29949223Y-81274781D01*
X29754534Y-81211522D01*
X29579995Y-81183878D01*
X29552352Y-81179500D01*
X29347648Y-81179500D01*
X29323329Y-81183351D01*
X29145465Y-81211522D01*
X28950776Y-81274781D01*
X28768386Y-81367715D01*
X28602786Y-81488028D01*
X28458028Y-81632786D01*
X28337715Y-81798386D01*
X28244781Y-81980776D01*
X28181522Y-82175465D01*
X28149500Y-82377648D01*
X28149500Y-82582351D01*
X28158318Y-82638025D01*
X28149364Y-82707318D01*
X28123526Y-82745104D01*
X26957050Y-83911580D01*
X26957044Y-83911588D01*
X26907812Y-83985268D01*
X26907813Y-83985269D01*
X26874921Y-84034496D01*
X26874914Y-84034508D01*
X26818342Y-84171086D01*
X26818340Y-84171092D01*
X26789500Y-84316079D01*
X26789500Y-90015513D01*
X26769815Y-90082552D01*
X26738385Y-90115831D01*
X26650214Y-90179890D01*
X26650209Y-90179894D01*
X26499890Y-90330213D01*
X26374949Y-90502182D01*
X26370484Y-90510946D01*
X26322509Y-90561742D01*
X26254688Y-90578536D01*
X26188553Y-90555998D01*
X26149516Y-90510946D01*
X26145050Y-90502182D01*
X26020109Y-90330213D01*
X25869786Y-90179890D01*
X25697820Y-90054951D01*
X25508414Y-89958444D01*
X25508413Y-89958443D01*
X25508412Y-89958443D01*
X25306243Y-89892754D01*
X25306241Y-89892753D01*
X25306240Y-89892753D01*
X25144957Y-89867208D01*
X25096287Y-89859500D01*
X24883713Y-89859500D01*
X24835042Y-89867208D01*
X24673760Y-89892753D01*
X24471585Y-89958444D01*
X24282179Y-90054951D01*
X24110213Y-90179890D01*
X23959892Y-90330211D01*
X23903097Y-90408385D01*
X23847767Y-90451051D01*
X23802779Y-90459500D01*
X20447229Y-90459500D01*
X20380190Y-90439815D01*
X20359548Y-90423181D01*
X19661819Y-89725451D01*
X19628334Y-89664128D01*
X19625500Y-89637770D01*
X19625500Y-82377648D01*
X23249500Y-82377648D01*
X23249500Y-82582351D01*
X23281522Y-82784534D01*
X23344781Y-82979223D01*
X23437715Y-83161613D01*
X23558028Y-83327213D01*
X23702786Y-83471971D01*
X23857749Y-83584556D01*
X23868390Y-83592287D01*
X23984607Y-83651503D01*
X24050776Y-83685218D01*
X24050778Y-83685218D01*
X24050781Y-83685220D01*
X24115619Y-83706287D01*
X24245465Y-83748477D01*
X24329564Y-83761797D01*
X24447648Y-83780500D01*
X24447649Y-83780500D01*
X24652351Y-83780500D01*
X24652352Y-83780500D01*
X24854534Y-83748477D01*
X25049219Y-83685220D01*
X25231610Y-83592287D01*
X25367287Y-83493713D01*
X25397213Y-83471971D01*
X25397215Y-83471968D01*
X25397219Y-83471966D01*
X25541966Y-83327219D01*
X25541968Y-83327215D01*
X25541971Y-83327213D01*
X25594732Y-83254590D01*
X25662287Y-83161610D01*
X25755220Y-82979219D01*
X25818477Y-82784534D01*
X25850500Y-82582352D01*
X25850500Y-82377648D01*
X25818477Y-82175466D01*
X25755220Y-81980781D01*
X25755218Y-81980778D01*
X25755218Y-81980776D01*
X25721503Y-81914607D01*
X25662287Y-81798390D01*
X25654556Y-81787749D01*
X25541971Y-81632786D01*
X25397213Y-81488028D01*
X25231613Y-81367715D01*
X25231612Y-81367714D01*
X25231610Y-81367713D01*
X25174653Y-81338691D01*
X25049223Y-81274781D01*
X24854534Y-81211522D01*
X24679995Y-81183878D01*
X24652352Y-81179500D01*
X24447648Y-81179500D01*
X24423329Y-81183351D01*
X24245465Y-81211522D01*
X24050776Y-81274781D01*
X23868386Y-81367715D01*
X23702786Y-81488028D01*
X23558028Y-81632786D01*
X23437715Y-81798386D01*
X23344781Y-81980776D01*
X23281522Y-82175465D01*
X23249500Y-82377648D01*
X19625500Y-82377648D01*
X19625500Y-80745416D01*
X19645185Y-80678377D01*
X19676613Y-80645099D01*
X19722219Y-80611966D01*
X19866966Y-80467219D01*
X19866968Y-80467215D01*
X19866971Y-80467213D01*
X19919732Y-80394590D01*
X19987287Y-80301610D01*
X20080220Y-80119219D01*
X20143477Y-79924534D01*
X20175500Y-79722352D01*
X20175500Y-79517648D01*
X20143477Y-79315466D01*
X20080220Y-79120781D01*
X20080218Y-79120778D01*
X20080218Y-79120776D01*
X20046503Y-79054607D01*
X19987287Y-78938390D01*
X19936213Y-78868092D01*
X19866971Y-78772786D01*
X19722213Y-78628028D01*
X19556613Y-78507715D01*
X19556612Y-78507714D01*
X19556610Y-78507713D01*
X19499653Y-78478691D01*
X19374223Y-78414781D01*
X19179534Y-78351522D01*
X19004995Y-78323878D01*
X18977352Y-78319500D01*
X18772648Y-78319500D01*
X18748329Y-78323351D01*
X18570465Y-78351522D01*
X18375776Y-78414781D01*
X18193386Y-78507715D01*
X18027786Y-78628028D01*
X17883028Y-78772786D01*
X17762715Y-78938386D01*
X17669781Y-79120776D01*
X17606522Y-79315465D01*
X17574500Y-79517648D01*
X12500500Y-79517648D01*
X12500500Y-71399983D01*
X17574500Y-71399983D01*
X17574500Y-72600001D01*
X17574501Y-72600018D01*
X17585000Y-72702796D01*
X17585001Y-72702799D01*
X17623581Y-72819223D01*
X17640186Y-72869334D01*
X17732288Y-73018656D01*
X17856344Y-73142712D01*
X18005666Y-73234814D01*
X18172203Y-73289999D01*
X18274991Y-73300500D01*
X19475008Y-73300499D01*
X19577797Y-73289999D01*
X19744334Y-73234814D01*
X19893656Y-73142712D01*
X20017712Y-73018656D01*
X20109814Y-72869334D01*
X20164999Y-72702797D01*
X20175500Y-72600009D01*
X20175499Y-71399992D01*
X20164999Y-71297203D01*
X20109814Y-71130666D01*
X20017712Y-70981344D01*
X19893656Y-70857288D01*
X19744334Y-70765186D01*
X19577797Y-70710001D01*
X19577795Y-70710000D01*
X19475010Y-70699500D01*
X18274998Y-70699500D01*
X18274981Y-70699501D01*
X18172203Y-70710000D01*
X18172200Y-70710001D01*
X18005668Y-70765185D01*
X18005663Y-70765187D01*
X17856342Y-70857289D01*
X17732289Y-70981342D01*
X17640187Y-71130663D01*
X17640186Y-71130666D01*
X17585001Y-71297203D01*
X17585001Y-71297204D01*
X17585000Y-71297204D01*
X17574500Y-71399983D01*
X12500500Y-71399983D01*
X12500500Y-67397648D01*
X15369500Y-67397648D01*
X15369500Y-67602351D01*
X15401522Y-67804534D01*
X15464781Y-67999223D01*
X15557715Y-68181613D01*
X15678028Y-68347213D01*
X15822786Y-68491971D01*
X15977749Y-68604556D01*
X15988390Y-68612287D01*
X16104607Y-68671503D01*
X16170776Y-68705218D01*
X16170778Y-68705218D01*
X16170781Y-68705220D01*
X16275137Y-68739127D01*
X16365465Y-68768477D01*
X16466557Y-68784488D01*
X16567648Y-68800500D01*
X16567649Y-68800500D01*
X16772351Y-68800500D01*
X16772352Y-68800500D01*
X16974534Y-68768477D01*
X17169219Y-68705220D01*
X17351610Y-68612287D01*
X17444590Y-68544732D01*
X17517213Y-68491971D01*
X17517215Y-68491968D01*
X17517219Y-68491966D01*
X17661966Y-68347219D01*
X17661968Y-68347215D01*
X17661971Y-68347213D01*
X17765133Y-68205220D01*
X17782287Y-68181610D01*
X17875220Y-67999219D01*
X17938477Y-67804534D01*
X17970500Y-67602352D01*
X17970500Y-67397648D01*
X17938477Y-67195466D01*
X17924609Y-67152786D01*
X17880479Y-67016966D01*
X17875220Y-67000781D01*
X17875218Y-67000778D01*
X17875218Y-67000776D01*
X17817610Y-66887715D01*
X17782287Y-66818390D01*
X17765134Y-66794781D01*
X17661971Y-66652786D01*
X17517213Y-66508028D01*
X17351613Y-66387715D01*
X17351612Y-66387714D01*
X17351610Y-66387713D01*
X17287429Y-66355011D01*
X17169223Y-66294781D01*
X16974534Y-66231522D01*
X16785465Y-66201577D01*
X16772352Y-66199500D01*
X16567648Y-66199500D01*
X16554535Y-66201577D01*
X16365465Y-66231522D01*
X16170776Y-66294781D01*
X15988386Y-66387715D01*
X15822786Y-66508028D01*
X15678028Y-66652786D01*
X15557715Y-66818386D01*
X15464781Y-67000776D01*
X15401522Y-67195465D01*
X15369500Y-67397648D01*
X12500500Y-67397648D01*
X12500500Y-53497648D01*
X13019500Y-53497648D01*
X13019500Y-53702351D01*
X13051522Y-53904534D01*
X13114781Y-54099223D01*
X13207715Y-54281613D01*
X13328028Y-54447213D01*
X13472786Y-54591971D01*
X13619257Y-54698386D01*
X13638390Y-54712287D01*
X13737249Y-54762658D01*
X13820776Y-54805218D01*
X13820778Y-54805218D01*
X13820781Y-54805220D01*
X13864226Y-54819336D01*
X14015465Y-54868477D01*
X14093149Y-54880781D01*
X14217648Y-54900500D01*
X14217649Y-54900500D01*
X14422351Y-54900500D01*
X14422352Y-54900500D01*
X14624534Y-54868477D01*
X14819219Y-54805220D01*
X15001610Y-54712287D01*
X15094590Y-54644732D01*
X15167213Y-54591971D01*
X15167215Y-54591968D01*
X15167219Y-54591966D01*
X15311966Y-54447219D01*
X15311968Y-54447215D01*
X15311971Y-54447213D01*
X15374359Y-54361342D01*
X15432287Y-54281610D01*
X15525220Y-54099219D01*
X15588477Y-53904534D01*
X15620500Y-53702352D01*
X15620500Y-53497648D01*
X23179500Y-53497648D01*
X23179500Y-53702351D01*
X23211522Y-53904534D01*
X23274781Y-54099223D01*
X23367715Y-54281613D01*
X23488028Y-54447213D01*
X23632786Y-54591971D01*
X23779257Y-54698386D01*
X23798390Y-54712287D01*
X23897249Y-54762658D01*
X23980776Y-54805218D01*
X23980778Y-54805218D01*
X23980781Y-54805220D01*
X24024226Y-54819336D01*
X24175465Y-54868477D01*
X24253149Y-54880781D01*
X24377648Y-54900500D01*
X24377649Y-54900500D01*
X24582351Y-54900500D01*
X24582352Y-54900500D01*
X24784534Y-54868477D01*
X24979219Y-54805220D01*
X25161610Y-54712287D01*
X25254590Y-54644732D01*
X25327213Y-54591971D01*
X25327215Y-54591968D01*
X25327219Y-54591966D01*
X25471966Y-54447219D01*
X25471968Y-54447215D01*
X25471971Y-54447213D01*
X25534359Y-54361342D01*
X25592287Y-54281610D01*
X25685220Y-54099219D01*
X25748477Y-53904534D01*
X25780500Y-53702352D01*
X25780500Y-53497648D01*
X25766351Y-53408315D01*
X25748477Y-53295465D01*
X25707495Y-53169337D01*
X25685220Y-53100781D01*
X25685218Y-53100778D01*
X25685218Y-53100776D01*
X25613382Y-52959792D01*
X25592287Y-52918390D01*
X25578929Y-52900004D01*
X25471971Y-52752786D01*
X25327213Y-52608028D01*
X25161613Y-52487715D01*
X25161612Y-52487714D01*
X25161610Y-52487713D01*
X25104653Y-52458691D01*
X24979223Y-52394781D01*
X24784534Y-52331522D01*
X24609995Y-52303878D01*
X24582352Y-52299500D01*
X24377648Y-52299500D01*
X24353329Y-52303351D01*
X24175465Y-52331522D01*
X23980776Y-52394781D01*
X23798386Y-52487715D01*
X23632786Y-52608028D01*
X23488028Y-52752786D01*
X23367715Y-52918386D01*
X23274781Y-53100776D01*
X23211522Y-53295465D01*
X23179500Y-53497648D01*
X15620500Y-53497648D01*
X15606351Y-53408315D01*
X15588477Y-53295465D01*
X15547495Y-53169337D01*
X15525220Y-53100781D01*
X15525218Y-53100778D01*
X15525218Y-53100776D01*
X15453382Y-52959792D01*
X15432287Y-52918390D01*
X15418929Y-52900004D01*
X15311971Y-52752786D01*
X15167213Y-52608028D01*
X15001613Y-52487715D01*
X15001612Y-52487714D01*
X15001610Y-52487713D01*
X14944653Y-52458691D01*
X14819223Y-52394781D01*
X14624534Y-52331522D01*
X14449995Y-52303878D01*
X14422352Y-52299500D01*
X14217648Y-52299500D01*
X14193329Y-52303351D01*
X14015465Y-52331522D01*
X13820776Y-52394781D01*
X13638386Y-52487715D01*
X13472786Y-52608028D01*
X13328028Y-52752786D01*
X13207715Y-52918386D01*
X13114781Y-53100776D01*
X13051522Y-53295465D01*
X13019500Y-53497648D01*
X12500500Y-53497648D01*
X12500500Y-39862332D01*
X26279500Y-39862332D01*
X26279500Y-40137667D01*
X26279501Y-40137684D01*
X26315438Y-40410655D01*
X26315439Y-40410660D01*
X26315440Y-40410666D01*
X26331766Y-40471595D01*
X26386704Y-40676630D01*
X26492075Y-40931017D01*
X26492080Y-40931028D01*
X26559543Y-41047876D01*
X26629751Y-41169479D01*
X26629753Y-41169482D01*
X26629754Y-41169483D01*
X26797370Y-41387926D01*
X26797376Y-41387933D01*
X26992066Y-41582623D01*
X26992072Y-41582628D01*
X27210521Y-41750249D01*
X27363778Y-41838732D01*
X27448971Y-41887919D01*
X27448976Y-41887921D01*
X27448979Y-41887923D01*
X27703368Y-41993295D01*
X27969334Y-42064560D01*
X28242326Y-42100500D01*
X28242333Y-42100500D01*
X28517667Y-42100500D01*
X28517674Y-42100500D01*
X28790666Y-42064560D01*
X29056632Y-41993295D01*
X29311021Y-41887923D01*
X29549479Y-41750249D01*
X29767928Y-41582628D01*
X29962628Y-41387928D01*
X30130249Y-41169479D01*
X30267923Y-40931021D01*
X30373295Y-40676632D01*
X30444560Y-40410666D01*
X30480500Y-40137674D01*
X30480500Y-39862326D01*
X30444560Y-39589334D01*
X30373295Y-39323368D01*
X30267923Y-39068979D01*
X30267921Y-39068976D01*
X30267919Y-39068971D01*
X30200463Y-38952135D01*
X30130249Y-38830521D01*
X29962628Y-38612072D01*
X29962623Y-38612066D01*
X29767933Y-38417376D01*
X29767926Y-38417370D01*
X29549483Y-38249754D01*
X29549482Y-38249753D01*
X29549479Y-38249751D01*
X29454407Y-38194861D01*
X29311028Y-38112080D01*
X29311017Y-38112075D01*
X29056630Y-38006704D01*
X28923649Y-37971072D01*
X28790666Y-37935440D01*
X28790660Y-37935439D01*
X28790655Y-37935438D01*
X28517684Y-37899501D01*
X28517679Y-37899500D01*
X28517674Y-37899500D01*
X28242326Y-37899500D01*
X28242320Y-37899500D01*
X28242315Y-37899501D01*
X27969344Y-37935438D01*
X27969337Y-37935439D01*
X27969334Y-37935440D01*
X27919033Y-37948918D01*
X27703369Y-38006704D01*
X27448982Y-38112075D01*
X27448971Y-38112080D01*
X27210516Y-38249754D01*
X26992073Y-38417370D01*
X26992066Y-38417376D01*
X26797376Y-38612066D01*
X26797370Y-38612073D01*
X26629754Y-38830516D01*
X26492080Y-39068971D01*
X26492075Y-39068982D01*
X26386704Y-39323369D01*
X26315441Y-39589331D01*
X26315438Y-39589344D01*
X26279501Y-39862315D01*
X26279500Y-39862332D01*
X12500500Y-39862332D01*
X12500500Y-37249778D01*
X14499500Y-37249778D01*
X14499500Y-37470221D01*
X14533985Y-37687952D01*
X14602103Y-37897603D01*
X14602104Y-37897606D01*
X14657694Y-38006704D01*
X14702131Y-38093917D01*
X14702187Y-38094025D01*
X14831752Y-38272358D01*
X14831756Y-38272363D01*
X14987636Y-38428243D01*
X14987641Y-38428247D01*
X15094535Y-38505909D01*
X15165978Y-38557815D01*
X15294375Y-38623237D01*
X15362393Y-38657895D01*
X15362396Y-38657896D01*
X15467221Y-38691955D01*
X15572049Y-38726015D01*
X15789778Y-38760500D01*
X15789779Y-38760500D01*
X17810221Y-38760500D01*
X17810222Y-38760500D01*
X18027951Y-38726015D01*
X18237606Y-38657895D01*
X18434022Y-38557815D01*
X18612365Y-38428242D01*
X18768242Y-38272365D01*
X18897815Y-38094022D01*
X18997895Y-37897606D01*
X19066015Y-37687951D01*
X19100500Y-37470222D01*
X19100500Y-37249778D01*
X19066015Y-37032049D01*
X18997895Y-36822394D01*
X18997895Y-36822393D01*
X18963237Y-36754375D01*
X18897815Y-36625978D01*
X18881260Y-36603192D01*
X18768247Y-36447641D01*
X18768243Y-36447636D01*
X18612363Y-36291756D01*
X18612358Y-36291752D01*
X18434025Y-36162187D01*
X18434024Y-36162186D01*
X18434022Y-36162185D01*
X18371096Y-36130122D01*
X18237606Y-36062104D01*
X18237603Y-36062103D01*
X18027952Y-35993985D01*
X17919086Y-35976742D01*
X17810222Y-35959500D01*
X15789778Y-35959500D01*
X15717201Y-35970995D01*
X15572047Y-35993985D01*
X15362396Y-36062103D01*
X15362393Y-36062104D01*
X15165974Y-36162187D01*
X14987641Y-36291752D01*
X14987636Y-36291756D01*
X14831756Y-36447636D01*
X14831752Y-36447641D01*
X14702187Y-36625974D01*
X14602104Y-36822393D01*
X14602103Y-36822396D01*
X14533985Y-37032047D01*
X14499500Y-37249778D01*
X12500500Y-37249778D01*
X12500500Y-32169778D01*
X14499500Y-32169778D01*
X14499500Y-32390222D01*
X14516742Y-32499086D01*
X14533985Y-32607952D01*
X14602103Y-32817603D01*
X14602104Y-32817606D01*
X14702187Y-33014025D01*
X14831752Y-33192358D01*
X14831756Y-33192363D01*
X14987636Y-33348243D01*
X14987641Y-33348247D01*
X15042258Y-33387928D01*
X15165978Y-33477815D01*
X15294375Y-33543237D01*
X15362393Y-33577895D01*
X15362396Y-33577896D01*
X15467221Y-33611955D01*
X15572049Y-33646015D01*
X15789778Y-33680500D01*
X15789779Y-33680500D01*
X17810221Y-33680500D01*
X17810222Y-33680500D01*
X18027951Y-33646015D01*
X18237606Y-33577895D01*
X18434022Y-33477815D01*
X18612365Y-33348242D01*
X18768242Y-33192365D01*
X18897815Y-33014022D01*
X18997895Y-32817606D01*
X19066015Y-32607951D01*
X19100500Y-32390222D01*
X19100500Y-32169778D01*
X19066015Y-31952049D01*
X19036865Y-31862332D01*
X26279500Y-31862332D01*
X26279500Y-32137667D01*
X26279501Y-32137684D01*
X26315438Y-32410655D01*
X26315439Y-32410660D01*
X26315440Y-32410666D01*
X26315441Y-32410668D01*
X26386704Y-32676630D01*
X26492075Y-32931017D01*
X26492080Y-32931028D01*
X26539999Y-33014025D01*
X26629751Y-33169479D01*
X26629753Y-33169482D01*
X26629754Y-33169483D01*
X26797370Y-33387926D01*
X26797376Y-33387933D01*
X26992066Y-33582623D01*
X26992072Y-33582628D01*
X27210521Y-33750249D01*
X27363778Y-33838732D01*
X27448971Y-33887919D01*
X27448976Y-33887921D01*
X27448979Y-33887923D01*
X27703368Y-33993295D01*
X27969334Y-34064560D01*
X28242326Y-34100500D01*
X28242333Y-34100500D01*
X28517667Y-34100500D01*
X28517674Y-34100500D01*
X28790666Y-34064560D01*
X29056632Y-33993295D01*
X29311021Y-33887923D01*
X29549479Y-33750249D01*
X29767928Y-33582628D01*
X29962628Y-33387928D01*
X30130249Y-33169479D01*
X30267923Y-32931021D01*
X30373295Y-32676632D01*
X30444560Y-32410666D01*
X30480500Y-32137674D01*
X30480500Y-31862326D01*
X30444560Y-31589334D01*
X30373295Y-31323368D01*
X30267923Y-31068979D01*
X30267921Y-31068976D01*
X30267919Y-31068971D01*
X30178437Y-30913985D01*
X30130249Y-30830521D01*
X29962628Y-30612072D01*
X29962623Y-30612066D01*
X29767933Y-30417376D01*
X29767926Y-30417370D01*
X29549483Y-30249754D01*
X29549482Y-30249753D01*
X29549479Y-30249751D01*
X29454407Y-30194861D01*
X29311028Y-30112080D01*
X29311017Y-30112075D01*
X29056630Y-30006704D01*
X28923649Y-29971072D01*
X28790666Y-29935440D01*
X28790660Y-29935439D01*
X28790655Y-29935438D01*
X28517684Y-29899501D01*
X28517679Y-29899500D01*
X28517674Y-29899500D01*
X28242326Y-29899500D01*
X28242320Y-29899500D01*
X28242315Y-29899501D01*
X27969344Y-29935438D01*
X27969337Y-29935439D01*
X27969334Y-29935440D01*
X27913125Y-29950500D01*
X27703369Y-30006704D01*
X27448982Y-30112075D01*
X27448971Y-30112080D01*
X27210516Y-30249754D01*
X26992073Y-30417370D01*
X26992066Y-30417376D01*
X26797376Y-30612066D01*
X26797370Y-30612073D01*
X26629754Y-30830516D01*
X26492080Y-31068971D01*
X26492075Y-31068982D01*
X26386704Y-31323369D01*
X26315441Y-31589331D01*
X26315438Y-31589344D01*
X26279501Y-31862315D01*
X26279500Y-31862332D01*
X19036865Y-31862332D01*
X18997895Y-31742394D01*
X18997895Y-31742393D01*
X18919906Y-31589334D01*
X18897815Y-31545978D01*
X18880748Y-31522487D01*
X18768247Y-31367641D01*
X18768243Y-31367636D01*
X18612363Y-31211756D01*
X18612358Y-31211752D01*
X18434025Y-31082187D01*
X18434024Y-31082186D01*
X18434022Y-31082185D01*
X18344255Y-31036446D01*
X18237606Y-30982104D01*
X18237603Y-30982103D01*
X18027952Y-30913985D01*
X17919086Y-30896742D01*
X17810222Y-30879500D01*
X15789778Y-30879500D01*
X15717201Y-30890995D01*
X15572047Y-30913985D01*
X15362396Y-30982103D01*
X15362393Y-30982104D01*
X15165974Y-31082187D01*
X14987641Y-31211752D01*
X14987636Y-31211756D01*
X14831756Y-31367636D01*
X14831752Y-31367641D01*
X14702187Y-31545974D01*
X14602104Y-31742393D01*
X14602103Y-31742396D01*
X14533985Y-31952047D01*
X14518900Y-32047289D01*
X14499500Y-32169778D01*
X12500500Y-32169778D01*
X12500500Y-26499983D01*
X14499500Y-26499983D01*
X14499500Y-27900001D01*
X14499501Y-27900018D01*
X14510000Y-28002796D01*
X14510001Y-28002799D01*
X14565185Y-28169331D01*
X14565186Y-28169334D01*
X14657288Y-28318656D01*
X14781344Y-28442712D01*
X14930666Y-28534814D01*
X15097203Y-28589999D01*
X15199991Y-28600500D01*
X18400008Y-28600499D01*
X18502797Y-28589999D01*
X18669334Y-28534814D01*
X18818656Y-28442712D01*
X18942712Y-28318656D01*
X19034814Y-28169334D01*
X19089999Y-28002797D01*
X19100500Y-27900009D01*
X19100499Y-26499992D01*
X19089999Y-26397203D01*
X19034814Y-26230666D01*
X18942712Y-26081344D01*
X18818656Y-25957288D01*
X18669334Y-25865186D01*
X18502797Y-25810001D01*
X18502795Y-25810000D01*
X18400010Y-25799500D01*
X15199998Y-25799500D01*
X15199981Y-25799501D01*
X15097203Y-25810000D01*
X15097200Y-25810001D01*
X14930668Y-25865185D01*
X14930663Y-25865187D01*
X14781342Y-25957289D01*
X14657289Y-26081342D01*
X14565187Y-26230663D01*
X14565186Y-26230666D01*
X14510001Y-26397203D01*
X14510001Y-26397204D01*
X14510000Y-26397204D01*
X14499500Y-26499983D01*
X12500500Y-26499983D01*
X12500500Y-19097648D01*
X41819500Y-19097648D01*
X41819500Y-19302351D01*
X41851522Y-19504534D01*
X41914781Y-19699223D01*
X42007715Y-19881613D01*
X42128028Y-20047213D01*
X42272786Y-20191971D01*
X42427749Y-20304556D01*
X42438390Y-20312287D01*
X42536597Y-20362326D01*
X42620776Y-20405218D01*
X42620778Y-20405218D01*
X42620781Y-20405220D01*
X42725137Y-20439127D01*
X42815465Y-20468477D01*
X42916557Y-20484488D01*
X43017648Y-20500500D01*
X43017649Y-20500500D01*
X43222351Y-20500500D01*
X43222352Y-20500500D01*
X43424534Y-20468477D01*
X43619219Y-20405220D01*
X43801610Y-20312287D01*
X43894590Y-20244732D01*
X43967213Y-20191971D01*
X43967215Y-20191968D01*
X43967219Y-20191966D01*
X44111966Y-20047219D01*
X44111968Y-20047215D01*
X44111971Y-20047213D01*
X44164732Y-19974590D01*
X44232287Y-19881610D01*
X44325220Y-19699219D01*
X44388477Y-19504534D01*
X44420500Y-19302352D01*
X44420500Y-19097648D01*
X51979500Y-19097648D01*
X51979500Y-19302351D01*
X52011522Y-19504534D01*
X52074781Y-19699223D01*
X52167715Y-19881613D01*
X52288028Y-20047213D01*
X52432786Y-20191971D01*
X52587749Y-20304556D01*
X52598390Y-20312287D01*
X52696597Y-20362326D01*
X52780776Y-20405218D01*
X52780778Y-20405218D01*
X52780781Y-20405220D01*
X52885137Y-20439127D01*
X52975465Y-20468477D01*
X53076557Y-20484488D01*
X53177648Y-20500500D01*
X53177649Y-20500500D01*
X53382351Y-20500500D01*
X53382352Y-20500500D01*
X53584534Y-20468477D01*
X53779219Y-20405220D01*
X53863391Y-20362332D01*
X79899500Y-20362332D01*
X79899500Y-20637667D01*
X79899501Y-20637684D01*
X79935438Y-20910655D01*
X79935439Y-20910660D01*
X79935440Y-20910666D01*
X79935441Y-20910668D01*
X80006704Y-21176630D01*
X80112075Y-21431017D01*
X80112080Y-21431028D01*
X80194861Y-21574407D01*
X80249751Y-21669479D01*
X80249753Y-21669482D01*
X80249754Y-21669483D01*
X80417370Y-21887926D01*
X80417376Y-21887933D01*
X80612066Y-22082623D01*
X80612072Y-22082628D01*
X80830521Y-22250249D01*
X80983778Y-22338732D01*
X81068971Y-22387919D01*
X81068976Y-22387921D01*
X81068979Y-22387923D01*
X81323368Y-22493295D01*
X81589334Y-22564560D01*
X81862326Y-22600500D01*
X81862333Y-22600500D01*
X82137667Y-22600500D01*
X82137674Y-22600500D01*
X82410666Y-22564560D01*
X82676632Y-22493295D01*
X82931021Y-22387923D01*
X83169479Y-22250249D01*
X83387928Y-22082628D01*
X83582628Y-21887928D01*
X83750249Y-21669479D01*
X83887923Y-21431021D01*
X83993295Y-21176632D01*
X84064560Y-20910666D01*
X84100500Y-20637674D01*
X84100500Y-20362326D01*
X84064560Y-20089334D01*
X83993295Y-19823368D01*
X83887923Y-19568979D01*
X83887921Y-19568976D01*
X83887919Y-19568971D01*
X83838732Y-19483778D01*
X83750249Y-19330521D01*
X83582628Y-19112072D01*
X83582623Y-19112066D01*
X83387933Y-18917376D01*
X83387926Y-18917370D01*
X83169483Y-18749754D01*
X83169482Y-18749753D01*
X83169479Y-18749751D01*
X83074407Y-18694861D01*
X82931028Y-18612080D01*
X82931017Y-18612075D01*
X82676630Y-18506704D01*
X82543649Y-18471072D01*
X82410666Y-18435440D01*
X82410660Y-18435439D01*
X82410655Y-18435438D01*
X82137684Y-18399501D01*
X82137679Y-18399500D01*
X82137674Y-18399500D01*
X81862326Y-18399500D01*
X81862320Y-18399500D01*
X81862315Y-18399501D01*
X81589344Y-18435438D01*
X81589337Y-18435439D01*
X81589334Y-18435440D01*
X81533125Y-18450500D01*
X81323369Y-18506704D01*
X81068982Y-18612075D01*
X81068971Y-18612080D01*
X80830516Y-18749754D01*
X80612073Y-18917370D01*
X80612066Y-18917376D01*
X80417376Y-19112066D01*
X80417370Y-19112073D01*
X80249754Y-19330516D01*
X80112080Y-19568971D01*
X80112075Y-19568982D01*
X80006704Y-19823369D01*
X79935441Y-20089331D01*
X79935438Y-20089344D01*
X79899501Y-20362315D01*
X79899500Y-20362332D01*
X53863391Y-20362332D01*
X53961610Y-20312287D01*
X54036402Y-20257948D01*
X54036404Y-20257947D01*
X54127212Y-20191971D01*
X54127210Y-20191971D01*
X54127219Y-20191966D01*
X54271966Y-20047219D01*
X54271968Y-20047215D01*
X54271971Y-20047213D01*
X54324732Y-19974590D01*
X54392287Y-19881610D01*
X54485220Y-19699219D01*
X54548477Y-19504534D01*
X54580500Y-19302352D01*
X54580500Y-19097648D01*
X54548477Y-18895466D01*
X54485220Y-18700781D01*
X54485218Y-18700778D01*
X54485218Y-18700776D01*
X54451503Y-18634607D01*
X54392287Y-18518390D01*
X54332021Y-18435440D01*
X54271971Y-18352786D01*
X54127213Y-18208028D01*
X53961613Y-18087715D01*
X53961612Y-18087714D01*
X53961610Y-18087713D01*
X53904653Y-18058691D01*
X53779223Y-17994781D01*
X53584534Y-17931522D01*
X53409995Y-17903878D01*
X53382352Y-17899500D01*
X53177648Y-17899500D01*
X53153329Y-17903351D01*
X52975465Y-17931522D01*
X52780776Y-17994781D01*
X52598386Y-18087715D01*
X52432786Y-18208028D01*
X52288028Y-18352786D01*
X52167715Y-18518386D01*
X52074781Y-18700776D01*
X52011522Y-18895465D01*
X51979500Y-19097648D01*
X44420500Y-19097648D01*
X44388477Y-18895466D01*
X44325220Y-18700781D01*
X44325218Y-18700778D01*
X44325218Y-18700776D01*
X44291503Y-18634607D01*
X44232287Y-18518390D01*
X44172021Y-18435440D01*
X44111971Y-18352786D01*
X43967213Y-18208028D01*
X43801613Y-18087715D01*
X43801612Y-18087714D01*
X43801610Y-18087713D01*
X43744653Y-18058691D01*
X43619223Y-17994781D01*
X43424534Y-17931522D01*
X43249995Y-17903878D01*
X43222352Y-17899500D01*
X43017648Y-17899500D01*
X42993329Y-17903351D01*
X42815465Y-17931522D01*
X42620776Y-17994781D01*
X42438386Y-18087715D01*
X42272786Y-18208028D01*
X42128028Y-18352786D01*
X42007715Y-18518386D01*
X41914781Y-18700776D01*
X41851522Y-18895465D01*
X41819500Y-19097648D01*
X12500500Y-19097648D01*
X12500500Y-17002706D01*
X12500618Y-16997297D01*
X12503377Y-16934108D01*
X12517387Y-16613224D01*
X12518325Y-16602496D01*
X12568151Y-16224032D01*
X12570024Y-16213402D01*
X12644224Y-15878711D01*
X14149500Y-15878711D01*
X14149500Y-16121288D01*
X14181161Y-16361785D01*
X14243947Y-16596104D01*
X14317012Y-16772498D01*
X14336776Y-16820212D01*
X14458064Y-17030289D01*
X14458066Y-17030292D01*
X14458067Y-17030293D01*
X14605733Y-17222736D01*
X14605739Y-17222743D01*
X14777256Y-17394260D01*
X14777262Y-17394265D01*
X14969711Y-17541936D01*
X15179788Y-17663224D01*
X15403900Y-17756054D01*
X15638211Y-17818838D01*
X15818586Y-17842584D01*
X15878711Y-17850500D01*
X15878712Y-17850500D01*
X16121289Y-17850500D01*
X16169388Y-17844167D01*
X16361789Y-17818838D01*
X16596100Y-17756054D01*
X16820212Y-17663224D01*
X17030289Y-17541936D01*
X17222738Y-17394265D01*
X17394265Y-17222738D01*
X17541936Y-17030289D01*
X17663224Y-16820212D01*
X17756054Y-16596100D01*
X17818838Y-16361789D01*
X17850500Y-16121288D01*
X17850500Y-15878712D01*
X17850500Y-15878711D01*
X96149500Y-15878711D01*
X96149500Y-16121288D01*
X96181161Y-16361785D01*
X96243947Y-16596104D01*
X96317012Y-16772498D01*
X96336776Y-16820212D01*
X96458064Y-17030289D01*
X96458066Y-17030292D01*
X96458067Y-17030293D01*
X96605733Y-17222736D01*
X96605739Y-17222743D01*
X96777256Y-17394260D01*
X96777262Y-17394265D01*
X96969711Y-17541936D01*
X97179788Y-17663224D01*
X97403900Y-17756054D01*
X97638211Y-17818838D01*
X97818586Y-17842584D01*
X97878711Y-17850500D01*
X97878712Y-17850500D01*
X98121289Y-17850500D01*
X98169388Y-17844167D01*
X98361789Y-17818838D01*
X98596100Y-17756054D01*
X98820212Y-17663224D01*
X99030289Y-17541936D01*
X99222738Y-17394265D01*
X99394265Y-17222738D01*
X99541936Y-17030289D01*
X99663224Y-16820212D01*
X99756054Y-16596100D01*
X99818838Y-16361789D01*
X99850500Y-16121288D01*
X99850500Y-15878712D01*
X99845498Y-15840721D01*
X99818838Y-15638214D01*
X99818838Y-15638211D01*
X99756054Y-15403900D01*
X99663224Y-15179788D01*
X99541936Y-14969711D01*
X99394265Y-14777262D01*
X99394260Y-14777256D01*
X99222743Y-14605739D01*
X99222736Y-14605733D01*
X99030293Y-14458067D01*
X99030292Y-14458066D01*
X99030289Y-14458064D01*
X98820212Y-14336776D01*
X98820205Y-14336773D01*
X98596104Y-14243947D01*
X98478944Y-14212554D01*
X98361789Y-14181162D01*
X98361788Y-14181161D01*
X98361785Y-14181161D01*
X98121289Y-14149500D01*
X98121288Y-14149500D01*
X97878712Y-14149500D01*
X97878711Y-14149500D01*
X97638214Y-14181161D01*
X97403895Y-14243947D01*
X97179794Y-14336773D01*
X97179785Y-14336777D01*
X96969706Y-14458067D01*
X96777263Y-14605733D01*
X96777256Y-14605739D01*
X96605739Y-14777256D01*
X96605733Y-14777263D01*
X96458067Y-14969706D01*
X96336777Y-15179785D01*
X96336773Y-15179794D01*
X96243947Y-15403895D01*
X96181161Y-15638214D01*
X96149500Y-15878711D01*
X17850500Y-15878711D01*
X17845498Y-15840721D01*
X17818838Y-15638214D01*
X17818838Y-15638211D01*
X17756054Y-15403900D01*
X17663224Y-15179788D01*
X17541936Y-14969711D01*
X17394265Y-14777262D01*
X17394260Y-14777256D01*
X17222743Y-14605739D01*
X17222736Y-14605733D01*
X17030293Y-14458067D01*
X17030292Y-14458066D01*
X17030289Y-14458064D01*
X16820212Y-14336776D01*
X16820205Y-14336773D01*
X16596104Y-14243947D01*
X16478944Y-14212554D01*
X16361789Y-14181162D01*
X16361788Y-14181161D01*
X16361785Y-14181161D01*
X16121289Y-14149500D01*
X16121288Y-14149500D01*
X15878712Y-14149500D01*
X15878711Y-14149500D01*
X15638214Y-14181161D01*
X15403895Y-14243947D01*
X15179794Y-14336773D01*
X15179785Y-14336777D01*
X14969706Y-14458067D01*
X14777263Y-14605733D01*
X14777256Y-14605739D01*
X14605739Y-14777256D01*
X14605733Y-14777263D01*
X14458067Y-14969706D01*
X14336777Y-15179785D01*
X14336773Y-15179794D01*
X14243947Y-15403895D01*
X14181161Y-15638214D01*
X14149500Y-15878711D01*
X12644224Y-15878711D01*
X12652647Y-15840718D01*
X12655446Y-15830276D01*
X12770230Y-15466227D01*
X12773917Y-15456095D01*
X12920003Y-15103412D01*
X12924561Y-15093638D01*
X13100822Y-14755045D01*
X13106217Y-14745700D01*
X13311325Y-14423744D01*
X13317515Y-14414905D01*
X13549896Y-14112060D01*
X13556834Y-14103791D01*
X13814726Y-13822352D01*
X13822352Y-13814726D01*
X14103791Y-13556834D01*
X14112060Y-13549896D01*
X14414905Y-13317515D01*
X14423744Y-13311325D01*
X14745700Y-13106217D01*
X14755045Y-13100822D01*
X15093638Y-12924561D01*
X15103412Y-12920003D01*
X15456095Y-12773917D01*
X15466227Y-12770230D01*
X15830285Y-12655443D01*
X15840714Y-12652648D01*
X16213402Y-12570024D01*
X16224032Y-12568151D01*
X16602496Y-12518325D01*
X16613224Y-12517387D01*
X16997297Y-12500617D01*
X17002706Y-12500500D01*
X17065892Y-12500500D01*
X96934108Y-12500500D01*
X96997294Y-12500500D01*
X97002702Y-12500617D01*
G37*
%TD.AperFunction*%
%TD*%
M02*
