%TF.GenerationSoftware,KiCad,Pcbnew,10.0.6*%
%TF.CreationDate,2026-09-18T23:12:30+01:00*%
%TF.ProjectId,S660-PDB,53363630-2d50-4444-922e-6b696361645f,rev?*%
%TF.SameCoordinates,Original*%
%TF.FileFunction,Soldermask,Top*%
%TF.FilePolarity,Negative*%
%FSLAX46Y46*%
G04 Gerber Fmt 4.6, Leading zero omitted, Abs format (unit mm)*
G04 Created by KiCad (PCBNEW 10.0.6) date 2026-09-18 23:12:30*
%MOMM*%
%LPD*%
G01*
G04 APERTURE LIST*
G04 Aperture macros list*
%AMRoundRect*
0 Rectangle with rounded corners*
0 $1 Rounding radius*
0 $2 $3 $4 $5 $6 $7 $8 $9 X,Y pos of 4 corners*
0 Add a 4 corners polygon primitive as box body*
4,1,4,$2,$3,$4,$5,$6,$7,$8,$9,$2,$3,0*
0 Add four circle primitives for the rounded corners*
1,1,$1+$1,$2,$3*
1,1,$1+$1,$4,$5*
1,1,$1+$1,$6,$7*
1,1,$1+$1,$8,$9*
0 Add four rect primitives between the rounded corners*
20,1,$1+$1,$2,$3,$4,$5,0*
20,1,$1+$1,$4,$5,$6,$7,0*
20,1,$1+$1,$6,$7,$8,$9,0*
20,1,$1+$1,$8,$9,$2,$3,0*%
G04 Aperture macros list end*
%ADD10RoundRect,0.250000X-0.550000X-0.550000X0.550000X-0.550000X0.550000X0.550000X-0.550000X0.550000X0*%
%ADD11C,1.600000*%
%ADD12R,1.500000X1.500000*%
%ADD13C,1.500000*%
%ADD14R,1.700000X1.700000*%
%ADD15C,1.700000*%
%ADD16RoundRect,0.250000X-1.550000X0.650000X-1.550000X-0.650000X1.550000X-0.650000X1.550000X0.650000X0*%
%ADD17O,3.600000X1.800000*%
%ADD18C,2.000000*%
%ADD19R,2.000000X2.000000*%
%ADD20C,3.200000*%
%ADD21R,1.800000X1.800000*%
%ADD22C,1.800000*%
%ADD23RoundRect,0.249999X0.850001X0.850001X-0.850001X0.850001X-0.850001X-0.850001X0.850001X-0.850001X0*%
%ADD24C,2.200000*%
%ADD25RoundRect,0.250000X0.550000X0.550000X-0.550000X0.550000X-0.550000X-0.550000X0.550000X-0.550000X0*%
%ADD26RoundRect,0.250000X-0.550000X0.550000X-0.550000X-0.550000X0.550000X-0.550000X0.550000X0.550000X0*%
%ADD27RoundRect,0.250000X-0.750000X-0.750000X0.750000X-0.750000X0.750000X0.750000X-0.750000X0.750000X0*%
%ADD28RoundRect,0.250000X1.550000X-0.650000X1.550000X0.650000X-1.550000X0.650000X-1.550000X-0.650000X0*%
%ADD29RoundRect,0.250000X-1.350000X-1.350000X1.350000X-1.350000X1.350000X1.350000X-1.350000X1.350000X0*%
%ADD30R,2.400000X2.400000*%
%ADD31C,2.400000*%
%ADD32R,3.200000X3.200000*%
G04 APERTURE END LIST*
D10*
%TO.C,C7*%
X43000000Y-71500000D03*
D11*
X45000000Y-71500000D03*
%TD*%
D12*
%TO.C,U2*%
X42250000Y-66300000D03*
D13*
X44790000Y-66300000D03*
X47330000Y-66300000D03*
%TD*%
D11*
%TO.C,C5*%
X50100000Y-66025000D03*
X50100000Y-71025000D03*
%TD*%
%TO.C,R20*%
X30000000Y-68000000D03*
X40160000Y-68000000D03*
%TD*%
D12*
%TO.C,Q2*%
X67140000Y-58700000D03*
D13*
X67140000Y-61240000D03*
X67140000Y-63780000D03*
%TD*%
D12*
%TO.C,Q3*%
X65209999Y-98200000D03*
D13*
X67749999Y-98200000D03*
X70289999Y-98200000D03*
%TD*%
D11*
%TO.C,R16*%
X84000000Y-47040000D03*
X84000000Y-57200000D03*
%TD*%
D10*
%TO.C,U1*%
X30380000Y-55380000D03*
D11*
X30380000Y-57920000D03*
X30380000Y-60460000D03*
X30380000Y-63000000D03*
X38000000Y-63000000D03*
X38000000Y-60460000D03*
X38000000Y-57920000D03*
X38000000Y-55380000D03*
%TD*%
%TO.C,R4*%
X44350000Y-98660000D03*
X54510000Y-98660000D03*
%TD*%
D14*
%TO.C,FAN3*%
X88580000Y-98250000D03*
D15*
X86040000Y-98250000D03*
X83500000Y-98250000D03*
X80960000Y-98250000D03*
%TD*%
D14*
%TO.C,J4*%
X48000000Y-47000000D03*
D15*
X50540000Y-47000000D03*
X48000000Y-49540000D03*
X50540000Y-49540000D03*
X48000000Y-52080000D03*
X50540000Y-52080000D03*
%TD*%
D11*
%TO.C,R2*%
X43120000Y-25800000D03*
X53280000Y-25800000D03*
%TD*%
%TO.C,R1*%
X53280000Y-19200000D03*
X43120000Y-19200000D03*
%TD*%
%TO.C,C6*%
X27000000Y-57000000D03*
X22000000Y-57000000D03*
%TD*%
D14*
%TO.C,FAN1*%
X88600000Y-83600000D03*
D15*
X86060000Y-83600000D03*
X83520000Y-83600000D03*
X80980000Y-83600000D03*
%TD*%
D11*
%TO.C,R9*%
X77080000Y-90950000D03*
X66920000Y-90950000D03*
%TD*%
D16*
%TO.C,J1*%
X16800000Y-27200000D03*
D17*
X16800000Y-32280000D03*
X16800000Y-37360000D03*
X16800000Y-42440000D03*
%TD*%
D18*
%TO.C,K1*%
X80000000Y-32500000D03*
X83500000Y-40000000D03*
D19*
X60000000Y-40000000D03*
D18*
X60000000Y-32500000D03*
%TD*%
D11*
%TO.C,R12*%
X20500000Y-46000000D03*
X30660000Y-46000000D03*
%TD*%
D20*
%TO.C,H3*%
X97500000Y-97500000D03*
%TD*%
%TO.C,H2*%
X98000000Y-16000000D03*
%TD*%
D11*
%TO.C,R15*%
X89320000Y-67000000D03*
X99480000Y-67000000D03*
%TD*%
D18*
%TO.C,SW1*%
X72350000Y-72250000D03*
X72350000Y-78750000D03*
X67850000Y-72250000D03*
X67850000Y-78750000D03*
%TD*%
D21*
%TO.C,LED3*%
X86540000Y-76200000D03*
D22*
X84000000Y-76200000D03*
%TD*%
D23*
%TO.C,D4*%
X77330000Y-52000000D03*
D24*
X67170000Y-52000000D03*
%TD*%
D14*
%TO.C,FAN2*%
X88560000Y-90800000D03*
D15*
X86020000Y-90800000D03*
X83480000Y-90800000D03*
X80940000Y-90800000D03*
%TD*%
D25*
%TO.C,Z2*%
X27000000Y-61500000D03*
D11*
X19380000Y-61500000D03*
%TD*%
D21*
%TO.C,LED1*%
X78740000Y-76200000D03*
D22*
X76200000Y-76200000D03*
%TD*%
D20*
%TO.C,H1*%
X16000000Y-16000000D03*
%TD*%
D26*
%TO.C,U3*%
X18875000Y-72000000D03*
D11*
X16335000Y-72000000D03*
X16335000Y-79620000D03*
X18875000Y-79620000D03*
%TD*%
D13*
%TO.C,TP1*%
X33600000Y-72350000D03*
%TD*%
D11*
%TO.C,R6*%
X24480000Y-53600000D03*
X14320000Y-53600000D03*
%TD*%
%TO.C,R11*%
X39080000Y-49250000D03*
X28920000Y-49250000D03*
%TD*%
%TO.C,R17*%
X55000000Y-46000000D03*
X65160000Y-46000000D03*
%TD*%
D21*
%TO.C,LED2*%
X92600000Y-76200000D03*
D22*
X95140000Y-76200000D03*
%TD*%
D20*
%TO.C,H4*%
X16500000Y-97500000D03*
%TD*%
D11*
%TO.C,R5*%
X54570000Y-93880000D03*
X44410000Y-93880000D03*
%TD*%
%TO.C,R7*%
X24550000Y-82480000D03*
X24550000Y-72320000D03*
%TD*%
%TO.C,R19*%
X48000000Y-58000000D03*
X58160000Y-58000000D03*
%TD*%
D27*
%TO.C,C3*%
X91250000Y-53750000D03*
D18*
X96250000Y-53750000D03*
%TD*%
D11*
%TO.C,R18*%
X54000000Y-54000000D03*
X64160000Y-54000000D03*
%TD*%
D28*
%TO.C,J2*%
X97267500Y-33290000D03*
D17*
X97267500Y-28210000D03*
%TD*%
D11*
%TO.C,R8*%
X29450000Y-82480000D03*
X29450000Y-72320000D03*
%TD*%
%TO.C,R14*%
X72350000Y-68750000D03*
X82510000Y-68750000D03*
%TD*%
%TO.C,C4*%
X42000000Y-54500000D03*
X42000000Y-49500000D03*
%TD*%
%TO.C,R3*%
X49420000Y-63000000D03*
X59580000Y-63000000D03*
%TD*%
D14*
%TO.C,J3*%
X24990000Y-93750000D03*
D15*
X24990000Y-91210000D03*
X27530000Y-93750000D03*
X27530000Y-91210000D03*
X30070000Y-93750000D03*
X30070000Y-91210000D03*
X32610000Y-93750000D03*
X32610000Y-91210000D03*
X35150000Y-93750000D03*
X35150000Y-91210000D03*
%TD*%
D29*
%TO.C,D1*%
X62000000Y-20500000D03*
D20*
X82000000Y-20500000D03*
%TD*%
D11*
%TO.C,R13*%
X16670000Y-67500000D03*
X26830000Y-67500000D03*
%TD*%
D30*
%TO.C,JP1*%
X94500000Y-42000000D03*
D31*
X91000000Y-42000000D03*
%TD*%
D32*
%TO.C,D2*%
X43620000Y-32000000D03*
D20*
X28380000Y-32000000D03*
%TD*%
D32*
%TO.C,D3*%
X43620000Y-40000000D03*
D20*
X28380000Y-40000000D03*
%TD*%
M02*
